<svg width="45" height="46" viewBox="0 0 45 46" fill="none" xmlns="http://www.w3.org/2000/svg">
<path d="M43.9568 22.6438C43.9568 34.8822 34.22 44.7875 22.2284 44.7875C10.2368 44.7875 0.5 34.8822 0.5 22.6438C0.5 10.4053 10.2368 0.5 22.2284 0.5C34.22 0.5 43.9568 10.4053 43.9568 22.6438Z" fill="url(#paint0_linear)" stroke="black"/>
<path d="M39.3457 22.6451C39.3457 32.289 31.6736 40.091 22.229 40.091C12.7844 40.091 5.1123 32.289 5.1123 22.6451C5.1123 13.0012 12.7844 5.19922 22.229 5.19922C31.6736 5.19922 39.3457 13.0012 39.3457 22.6451Z" fill="#E5B35A" stroke="black"/>
<path d="M18.7473 24.2448L20.3016 24.7725L19.3055 23.4679C18.5328 22.4559 17.6138 22.339 16.8703 22.2444L16.8601 22.2431C16.7688 22.2276 16.6893 22.2147 16.6194 22.2033C16.5183 22.1868 16.437 22.1735 16.3681 22.1606C16.3971 22.0593 16.4401 21.928 16.4994 21.7469C16.506 21.727 16.5127 21.7064 16.5196 21.6852C16.7218 21.1658 16.8329 20.6157 16.7311 19.9599C16.7193 19.8122 16.6607 19.6752 16.6065 19.5831C16.5721 19.5247 16.5206 19.4517 16.4475 19.3871C16.3797 19.3273 16.2429 19.2311 16.0488 19.2311C15.9677 19.2311 15.8531 19.2402 15.7359 19.2933C15.6014 19.3542 15.4998 19.4565 15.4385 19.5813C15.3861 19.6882 15.3737 19.7909 15.3689 19.8489C15.3643 19.9052 15.3643 19.9647 15.3644 20.0053L15.3644 20.013C15.3644 20.2135 15.3572 20.2872 15.3233 20.3564L15.2837 20.437L15.2747 20.5262C15.1567 21.6877 14.4828 22.4096 13.6437 22.7574C12.7815 23.1149 11.7632 23.0672 11.0278 22.6729L11.0278 22.6728L11.0184 22.6681C10.5365 22.4226 10.149 22.1058 9.83588 21.6328C9.26128 20.5905 9.68835 19.4239 10.7957 18.9727C11.0373 18.8742 11.3274 18.7331 11.5096 18.4546C11.7026 18.1598 11.7081 17.8207 11.6539 17.4894C11.5038 16.5721 11.9511 15.786 12.7176 15.5021L12.7361 15.4953L12.754 15.487C13.5619 15.1129 14.4924 15.3424 14.9911 16.0681L14.9962 16.0755L15.0015 16.0827L20.1205 22.9885L25.2395 29.8944L25.2413 29.8968C25.8088 30.6528 26.076 31.2926 26.1229 31.8468C26.1685 32.3859 26.0106 32.9004 25.6111 33.4295C24.8089 34.4918 23.6487 34.8712 22.4902 34.4817C22.318 34.4156 22.2169 34.367 22.1571 34.3284C22.1566 34.3281 22.1561 34.3277 22.1556 34.3274C22.1562 34.3249 22.1568 34.3223 22.1575 34.3196C22.176 34.2449 22.2202 34.1308 22.3084 33.9511L22.3127 33.9424L22.3167 33.9334C23.7301 30.7452 21.6296 27.2948 18.3381 27.4994C17.4878 27.5036 16.7503 27.8261 16.1347 28.3359C16.0071 28.4092 15.8687 28.5176 15.7663 28.6636C15.6416 28.8414 15.5405 29.1321 15.6922 29.4411L15.7277 29.5135L15.7842 29.5711C15.8911 29.6799 16.0297 29.7646 16.1969 29.792C16.3604 29.8189 16.5025 29.7831 16.6063 29.7378C16.7502 29.675 16.8638 29.5724 16.9228 29.514C18.5704 28.4302 20.6503 29.2286 21.196 31.0552L21.1959 31.0553L21.1999 31.0676C21.5839 32.2412 21.1456 33.3719 20.2954 34.3285C19.5482 35.086 18.7058 35.4463 17.7312 35.2172C16.7223 34.98 16.034 34.2835 15.7986 33.2445L15.7987 33.2445L15.7965 33.2358C15.7357 32.9879 15.6205 32.7337 15.3728 32.5655C15.1406 32.4078 14.8751 32.3852 14.6653 32.3852H14.6202L14.5758 32.3933C13.4608 32.5961 12.5417 32.1908 12.0028 31.5069C11.4628 30.8217 11.2734 29.8168 11.7144 28.7549L11.7145 28.7549L11.7181 28.7459C11.8119 28.507 11.9203 28.1544 11.7592 27.8261C11.5938 27.4891 11.2485 27.3776 11.0039 27.3258C9.7336 26.954 9.27074 25.3374 10.1595 24.2811L10.1699 24.2687L10.1796 24.2557C10.289 24.107 10.3483 24.0855 10.353 24.084C10.3543 24.0836 10.3549 24.0835 10.3557 24.0834C10.3566 24.0834 10.3603 24.0832 10.3676 24.0842C10.3831 24.0864 10.4166 24.0945 10.4723 24.1229C11.5406 24.667 12.7034 24.6554 13.8244 24.2402L13.8344 24.2365L13.8442 24.2324C15.3139 23.6159 16.723 23.5483 18.0355 24.2168L18.2235 24.3126L18.4232 24.2448C18.5527 24.2008 18.5798 24.2008 18.5851 24.2008H18.5853H18.5854C18.5907 24.2008 18.6178 24.2008 18.7473 24.2448ZM16.3655 19.9317C16.3655 19.9312 16.3655 19.9308 16.3656 19.9304L16.3655 19.9317ZM21.6966 21.7591C21.2744 21.3013 20.9018 20.7817 20.5149 20.2309V20.2304V20.2301V20.2294V20.2293V20.2284V20.2284V20.2276V20.2275V20.2267V20.2265V20.2258V20.2255V20.225V20.2245V20.2241V20.2236V20.2233V20.2226V20.2224V20.2216V20.2216V20.2207V20.2206V20.2199V20.2197V20.219V20.2187V20.2182V20.2177V20.2173V20.2168V20.2165V20.2158V20.2156V20.2149V20.2148V20.2139V20.2131V20.2129V20.2122V20.212V20.2114V20.211V20.2105V20.2101V20.2097V20.2091V20.2088V20.2082V20.208V20.2072V20.2072V20.2063V20.2063V20.2055V20.2053V20.2046V20.2044V20.2038V20.2035V20.2029V20.2025V20.2021V20.2016V20.2013V20.2006V20.2004V20.1997V20.1996V20.1988V20.1987V20.1979V20.1978V20.1971V20.1969V20.1962V20.196V20.1954V20.195V20.1946V20.1941V20.1937V20.1932V20.1929V20.1923V20.1921V20.1913V20.1912V20.1904V20.1904V20.1896V20.1895V20.1887V20.1886V20.1879V20.1877V20.1871V20.1867V20.1862V20.1858V20.1854V20.1849V20.1846V20.184V20.1837V20.1831V20.1829V20.1822V20.1821V20.1812V20.1812V20.1804V20.1803V20.1796V20.1794V20.1787V20.1785V20.1779V20.1776V20.1771V20.1767V20.1763V20.1758V20.1754V20.1749V20.1746V20.174V20.1738V20.1731V20.1729V20.1722V20.1721V20.1713V20.1713V20.1705V20.1704V20.1696V20.1695V20.1688V20.1686V20.168V20.1677V20.1672V20.1668V20.1663V20.1659V20.1655V20.165V20.1647V20.1642V20.1638V20.1633V20.163V20.1624V20.1622V20.1615V20.1614V20.1606V20.1605V20.1597V20.1597V20.1589V20.1588V20.1581V20.158V20.1572V20.1571V20.1564V20.1562V20.1556V20.1553V20.1548V20.1544V20.1539V20.1536V20.1531V20.1527V20.1523V20.1518V20.1515V20.1509V20.1506V20.1501V20.1498V20.1492V20.149V20.1483V20.1482V20.1474V20.1473V20.1466V20.1465V20.1457V20.1457V20.1448V20.1448V20.144V20.144V20.1432V20.1431V20.1424V20.1422V20.1415V20.1414V20.1407V20.1405V20.1399V20.1396V20.1391V20.1388V20.1382V20.1379V20.1374V20.137V20.1366V20.1362V20.1357V20.1353V20.1349V20.1345V20.1341V20.1336V20.1333V20.1327V20.1324V20.1319V20.1316V20.131V20.1308V20.1302V20.13V20.1293V20.1291V20.1285V20.1283V20.1276V20.1275V20.1268V20.1266V20.1259V20.1258V20.1251V20.125V20.1242V20.1241V20.1238C20.8052 19.7821 20.9299 19.3354 20.9299 18.909C20.9299 18.4003 20.7552 17.8613 20.3975 17.4361L20.3851 17.4214L20.3717 17.4078C20.3446 17.3801 20.3307 17.3648 20.3134 17.3456C20.2965 17.3268 20.2762 17.3044 20.2371 17.2634C20.183 17.2066 20.1046 17.1284 20.0076 17.0625C19.9886 17.0496 19.968 17.0366 19.946 17.0239C20.0801 17.0772 20.2001 17.1571 20.3037 17.2627L20.3287 17.2881L20.357 17.3097C20.6194 17.5102 20.8522 17.8788 21.0219 18.3082C21.4121 19.4242 21.5969 20.5483 21.6966 21.7591ZM19.0124 17.1259C18.993 17.1457 18.9747 17.1658 18.9574 17.1864C18.9573 17.177 18.9575 17.1678 18.9579 17.1589C18.9602 17.1088 18.9709 17.0907 18.9767 17.0824C18.9827 17.0738 19.006 17.0439 19.0811 17.0072C19.1466 16.9894 19.2108 16.9754 19.2736 16.9653C19.2079 16.9903 19.1459 17.0234 19.0883 17.0625L19.0472 17.0904L19.0124 17.1259ZM25.4607 19.6409C25.4973 18.4609 25.0852 17.2617 24.2777 16.0239C26.0362 16.8568 27.3847 18.0957 28.2263 20.0243C28.6784 21.072 28.7366 22.6029 28.4366 24.1081C28.1362 25.616 27.5002 26.9791 26.6868 27.7248L26.6771 27.7337L26.6679 27.7431C26.5715 27.8412 26.4828 27.9302 26.3927 27.997C26.3857 28.0021 26.3791 28.0069 26.3728 28.0113C26.342 28.0032 26.3114 27.9979 26.2815 27.9951C25.8543 27.4689 25.435 26.893 25.069 26.3147C25.0784 26.1825 25.0519 26.0346 24.9485 25.8942C24.8544 25.7664 24.7327 25.6971 24.6176 25.6603C24.1591 25.1023 23.762 24.5421 23.3589 23.9675C23.3455 23.8896 23.3226 23.8097 23.2876 23.7323C23.304 23.7185 23.3214 23.7042 23.3399 23.6891C23.3559 23.6761 23.3729 23.6624 23.3907 23.648C23.5383 23.5291 23.7441 23.3633 23.9073 23.1484C24.8766 22.0569 25.4217 20.8974 25.4607 19.6409ZM16.328 22.3426C16.3279 22.3427 16.3279 22.341 16.3282 22.3373C16.3282 22.3407 16.3281 22.3425 16.328 22.3426ZM22.1488 34.3699C22.1488 34.3699 22.1488 34.3695 22.1488 34.3688C22.1488 34.3695 22.1488 34.3699 22.1488 34.3699ZM26.4733 11.1768L26.4773 11.1783C27.8006 11.6838 28.7414 12.7902 29.659 14.0989L29.6668 14.11L29.6752 14.1206C30.0722 14.6262 30.3062 14.9561 30.3062 15.3151C30.3062 15.6513 30.4111 15.9739 30.7004 16.1803C30.9504 16.3585 31.2489 16.3789 31.4519 16.3789H31.4801L31.5081 16.3757C32.1699 16.3008 32.7256 16.5388 33.129 16.9964C33.5408 17.4635 33.8112 18.1838 33.8112 19.0734C33.8112 20.3219 33.548 21.5605 33.0322 22.6114L33.0288 22.6184L33.0256 22.6254C32.4236 23.9541 32.3267 25.2852 32.6228 26.693L32.6236 26.6966C32.8975 27.9523 32.8524 28.623 32.5817 29.0658C32.3075 29.5145 31.7167 29.8714 30.4773 30.2455L30.4691 30.248L30.461 30.2507C29.7063 30.507 28.859 30.5955 28.0041 30.5093C27.9132 30.4975 27.8468 30.4838 27.7995 30.4709C27.8217 30.4105 27.8599 30.3277 27.9219 30.2171L27.9258 30.2102L27.9295 30.2031L27.9388 30.1852C28.7626 28.6 29.6085 26.9723 30.1747 25.2422L30.1761 25.2376C31.1448 22.1788 30.7538 19.3819 28.8126 16.7123C27.4921 14.8869 25.8891 13.3477 24.006 12.0965C23.8898 11.9966 23.8181 11.9234 23.775 11.8673C23.7581 11.8452 23.7486 11.8298 23.7436 11.8202C23.746 11.8141 23.7499 11.8056 23.7559 11.7943C23.7845 11.7409 23.8458 11.6566 23.9688 11.5313C24.5376 10.9519 25.4195 10.7639 26.4733 11.1768ZM23.7382 11.8084C23.7382 11.8084 23.7383 11.8087 23.7385 11.8093L23.7382 11.8084ZM23.7399 11.8308C23.7397 11.832 23.7396 11.8326 23.7395 11.8326L23.7399 11.8308ZM16.4172 14.4145L16.4048 14.4281L16.3935 14.4426C16.3597 14.4856 16.3311 14.5182 16.3076 14.5427C16.2776 14.508 16.2402 14.4589 16.1953 14.3909C16.0184 14.0975 15.9091 13.883 15.8507 13.716C15.7937 13.5528 15.7978 13.4694 15.809 13.4221C15.8202 13.3749 15.8536 13.2994 15.9768 13.1805C16.1041 13.0576 16.299 12.9153 16.5911 12.7321C18.3559 11.6258 20.4107 11.8794 21.6845 13.1201C21.5242 13.0911 21.3677 13.0645 21.2132 13.0383L21.2054 13.037C19.4535 12.7396 17.7747 12.9253 16.4172 14.4145ZM23.1897 19.6372V19.6168L23.188 19.5964C23.0899 18.3966 22.6967 17.172 21.9811 16.2342C21.2432 15.2579 20.1299 14.9373 19.0878 15.1925C19.3664 15.1056 19.6463 15.0635 19.9227 15.0635C20.6734 15.0635 21.4507 15.3748 22.1538 16.0467C22.2472 16.1419 22.3264 16.2251 22.3866 16.3171C22.4451 16.4065 22.4664 16.4763 22.4664 16.5366V16.7041L22.5673 16.8379C23.4158 17.9615 23.7785 19.0643 23.2741 20.3093C23.264 20.1916 23.2461 20.0824 23.2315 19.993L23.2292 19.9792C23.205 19.8311 23.1897 19.7306 23.1897 19.6372Z" fill="#664407" stroke="black"/>
<path d="M18.8396 24.151L20.3939 24.6788L19.3978 23.3741C18.6251 22.3621 17.7061 22.2452 16.9626 22.1506L16.9524 22.1493C16.8611 22.1339 16.7816 22.1209 16.7116 22.1095C16.6106 22.093 16.5292 22.0798 16.4604 22.0668C16.4894 21.9655 16.5324 21.8343 16.5917 21.6532C16.5982 21.6332 16.605 21.6127 16.6119 21.5915C16.814 21.0721 16.9252 20.522 16.8234 19.8662C16.8116 19.7184 16.753 19.5814 16.6987 19.4893C16.6643 19.4309 16.6129 19.3579 16.5397 19.2934C16.4719 19.2335 16.3352 19.1374 16.1411 19.1374C16.06 19.1374 15.9453 19.1465 15.8282 19.1995C15.6937 19.2604 15.5921 19.3627 15.5308 19.4876C15.4784 19.5944 15.4659 19.6971 15.4612 19.7552C15.4566 19.8114 15.4566 19.8709 15.4566 19.9116L15.4566 19.9192C15.4566 20.1198 15.4495 20.1935 15.4156 20.2627L15.376 20.3432L15.367 20.4325C15.249 21.5939 14.5751 22.3158 13.736 22.6637C12.8738 23.0211 11.8555 22.9735 11.12 22.5792L11.1201 22.5791L11.1107 22.5743C10.6288 22.3288 10.2413 22.012 9.92817 21.5391C9.35357 20.4967 9.78064 19.3302 10.888 18.879C11.1296 18.7805 11.4197 18.6393 11.6019 18.3609C11.7948 18.0661 11.8004 17.7269 11.7462 17.3956C11.5961 16.4783 12.0434 15.6923 12.8099 15.4084L12.8284 15.4015L12.8463 15.3932C13.6542 15.0191 14.5847 15.2486 15.0834 15.9743L15.0885 15.9817L15.0938 15.9889L20.2128 22.8948L25.3317 29.8007L25.3336 29.8031C25.901 30.559 26.1683 31.1989 26.2152 31.7531C26.2608 32.2921 26.1029 32.8067 25.7034 33.3357C24.9012 34.3981 23.741 34.7775 22.5825 34.388C22.4103 34.3219 22.3091 34.2733 22.2494 34.2346C22.2489 34.2343 22.2484 34.234 22.2479 34.2337C22.2485 34.2312 22.2491 34.2286 22.2498 34.2258C22.2683 34.1512 22.3125 34.0371 22.4007 33.8574L22.405 33.8486L22.4089 33.8397C23.8224 30.6515 21.7219 27.2011 18.4304 27.4057C17.5801 27.4098 16.8425 27.7324 16.2269 28.2422C16.0993 28.3154 15.9609 28.4239 15.8585 28.5699C15.7339 28.7477 15.6328 29.0383 15.7845 29.3474L15.82 29.4198L15.8765 29.4774C15.9834 29.5862 16.122 29.6708 16.2892 29.6983C16.4527 29.7251 16.5948 29.6894 16.6986 29.644C16.8425 29.5812 16.9561 29.4786 17.0151 29.4203C18.6626 28.3365 20.7426 29.1348 21.2883 30.9615L21.2881 30.9615L21.2922 30.9738C21.6762 32.1474 21.2379 33.2781 20.3877 34.2348C19.6405 34.9923 18.7981 35.3525 17.8235 35.1234C16.8145 34.8862 16.1263 34.1897 15.8909 33.1508L15.891 33.1507L15.8888 33.142C15.828 32.8941 15.7128 32.64 15.4651 32.4718C15.2328 32.314 14.9674 32.2914 14.7576 32.2914H14.7125L14.6681 32.2995C13.5531 32.5023 12.634 32.097 12.0951 31.4132C11.555 30.728 11.3657 29.723 11.8067 28.6612L11.8068 28.6612L11.8104 28.6521C11.9041 28.4133 12.0126 28.0606 11.8514 27.7323C11.686 27.3953 11.3408 27.2839 11.0962 27.232C9.82587 26.8602 9.36302 25.2437 10.2518 24.1874L10.2622 24.175L10.2718 24.1619C10.3813 24.0133 10.4406 23.9917 10.4453 23.9902C10.4466 23.9898 10.4472 23.9898 10.448 23.9897C10.4489 23.9896 10.4526 23.9894 10.4599 23.9905C10.4754 23.9927 10.5089 24.0008 10.5646 24.0291C11.6329 24.5732 12.7956 24.5617 13.9167 24.1464L13.9266 24.1427L13.9364 24.1386C15.4061 23.5221 16.8153 23.4546 18.1278 24.1231L18.2347 24.1775H18.3547C18.5042 24.1775 18.6507 24.1531 18.7136 24.1426C18.7262 24.1405 18.7355 24.139 18.7407 24.1383C18.7645 24.1353 18.7734 24.1356 18.7794 24.1361C18.7857 24.1367 18.8035 24.1387 18.8396 24.151ZM16.4578 19.8379C16.4578 19.8375 16.4578 19.8371 16.4579 19.8367L16.4578 19.8379ZM21.8177 13.1278C21.6431 13.0958 21.473 13.067 21.3054 13.0385L21.2977 13.0372C19.5458 12.7398 17.867 12.9255 16.5095 14.4147L16.4971 14.4283L16.4858 14.4428C16.452 14.4858 16.4234 14.5184 16.3999 14.5429C16.3699 14.5082 16.3324 14.4591 16.2876 14.3911C16.1107 14.0977 16.0014 13.8832 15.943 13.7162C15.886 13.553 15.8901 13.4696 15.9013 13.4223C15.9125 13.3751 15.9459 13.2996 16.069 13.1807C16.1964 13.0578 16.3912 12.9155 16.6834 12.7323C18.4778 11.6074 20.5522 11.8285 21.8177 13.1278ZM23.3799 23.6385C23.3963 23.6248 23.4137 23.6104 23.4322 23.5954C23.4481 23.5823 23.4651 23.5686 23.483 23.5543C23.6306 23.4353 23.8364 23.2695 23.9996 23.0546C24.9688 21.9631 25.514 20.8036 25.553 19.5472C25.5896 18.3672 25.1775 17.1679 24.37 15.9302C26.1285 16.7631 27.4769 18.002 28.3186 19.9305C28.7707 20.9782 28.8289 22.5092 28.5289 24.0144C28.2284 25.5222 27.5924 26.8853 26.779 27.6311L26.7693 27.6399L26.7601 27.6493C26.6638 27.7475 26.5751 27.8364 26.4849 27.9032C26.455 27.9254 26.4313 27.9402 26.4135 27.9501C25.9726 27.4108 25.5386 26.8172 25.1613 26.221C25.1707 26.0888 25.1442 25.9409 25.0408 25.8005C24.9466 25.6726 24.825 25.6034 24.7099 25.5665C24.2513 25.0086 23.8543 24.4483 23.4512 23.8738C23.4378 23.7958 23.4149 23.716 23.3799 23.6385ZM21.7889 21.6654C21.3667 21.2076 20.9941 20.688 20.6072 20.1372V20.1367V20.1364V20.1357V20.1355V20.1347V20.1347V20.1338V20.1337V20.1329V20.1327V20.1321V20.1318V20.1312V20.1308V20.1304V20.1298V20.1295V20.1288V20.1287V20.1279V20.1278V20.127V20.1269V20.1261V20.1259V20.1253V20.125V20.1244V20.124V20.1236V20.123V20.1227V20.1221V20.1219V20.1211V20.121V20.1202V20.1193V20.1192V20.1185V20.1182V20.1176V20.1173V20.1168V20.1163V20.1159V20.1154V20.1151V20.1144V20.1142V20.1135V20.1134V20.1126V20.1125V20.1117V20.1116V20.1109V20.1107V20.11V20.1097V20.1092V20.1088V20.1084V20.1078V20.1075V20.1069V20.1067V20.106V20.1058V20.105V20.105V20.1042V20.1041V20.1033V20.1032V20.1025V20.1022V20.1016V20.1013V20.1008V20.1004V20.1V20.0994V20.0991V20.0985V20.0983V20.0976V20.0975V20.0967V20.0966V20.0958V20.0957V20.095V20.0948V20.0941V20.0939V20.0933V20.093V20.0925V20.0921V20.0916V20.0912V20.0908V20.0902V20.09V20.0893V20.0891V20.0884V20.0883V20.0875V20.0875V20.0867V20.0866V20.0858V20.0857V20.085V20.0848V20.0842V20.0839V20.0833V20.083V20.0825V20.0821V20.0817V20.0812V20.0808V20.0803V20.08V20.0794V20.0792V20.0785V20.0784V20.0776V20.0775V20.0767V20.0767V20.0759V20.0758V20.0751V20.0749V20.0742V20.074V20.0734V20.0731V20.0726V20.0722V20.0717V20.0713V20.0709V20.0704V20.0701V20.0695V20.0693V20.0686V20.0684V20.0677V20.0676V20.0669V20.0668V20.066V20.066V20.0651V20.0651V20.0643V20.0642V20.0635V20.0633V20.0627V20.0624V20.0618V20.0616V20.061V20.0607V20.0602V20.0598V20.0594V20.0589V20.0585V20.0581V20.0577V20.0572V20.0569V20.0563V20.0561V20.0554V20.0552V20.0546V20.0544V20.0537V20.0536V20.0528V20.0527V20.0519V20.0519V20.0511V20.0511V20.0503V20.0502V20.0494V20.0493V20.0486V20.0485V20.0478V20.0476V20.047V20.0467V20.0461V20.0459V20.0453V20.045V20.0445V20.0442V20.0437V20.0433V20.0428V20.0424V20.042V20.0416V20.0412V20.0407V20.0403V20.0399V20.0395V20.039V20.0387V20.0381V20.0379V20.0373V20.037V20.0364V20.0362V20.0356V20.0354V20.0347V20.0345V20.0339V20.0337V20.033V20.0329V20.0322V20.0321V20.0313V20.0312V20.0305V20.0304V20.03C20.8975 19.6883 21.0222 19.2417 21.0222 18.8152C21.0222 18.3065 20.8475 17.7675 20.4898 17.3424L20.4774 17.3277L20.464 17.314C20.4369 17.2864 20.423 17.271 20.4057 17.2519C20.3887 17.2331 20.3685 17.2107 20.3294 17.1696C20.2753 17.1129 20.1969 17.0346 20.0998 16.9688C20.0809 16.9559 20.0603 16.9429 20.0383 16.9302C20.1723 16.9834 20.2924 17.0634 20.396 17.1689L20.4209 17.1943L20.4492 17.216C20.7116 17.4164 20.9444 17.785 21.1142 18.2144C21.5044 19.3305 21.6892 20.4546 21.7889 21.6654ZM19.1047 17.0321C19.0853 17.0519 19.067 17.0721 19.0497 17.0926C19.0496 17.0832 19.0498 17.0741 19.0502 17.0651C19.0525 17.015 19.0632 16.997 19.069 16.9886C19.075 16.98 19.0983 16.9502 19.1734 16.9135C19.2389 16.8956 19.3031 16.8817 19.3659 16.8716C19.3001 16.8965 19.2382 16.9297 19.1806 16.9688L19.1395 16.9967L19.1047 17.0321ZM16.4203 22.2489C16.4202 22.249 16.4202 22.2473 16.4205 22.2436C16.4205 22.2469 16.4204 22.2488 16.4203 22.2489ZM22.2411 34.2761C22.2411 34.2761 22.241 34.2758 22.2411 34.2751C22.2411 34.2758 22.2411 34.2761 22.2411 34.2761ZM26.5656 11.083L26.5696 11.0845C27.8929 11.5901 28.8337 12.6965 29.7513 14.0051L29.7591 14.0162L29.7674 14.0269C30.1645 14.5324 30.3985 14.8624 30.3985 15.2214C30.3985 15.5575 30.5034 15.8802 30.7927 16.0865C31.0427 16.2648 31.3412 16.2851 31.5442 16.2851H31.5724L31.6004 16.2819C32.2622 16.207 32.8179 16.445 33.2213 16.9026C33.6331 17.3698 33.9034 18.0901 33.9034 18.9797C33.9034 20.2281 33.6403 21.4667 33.1245 22.5177L33.1211 22.5246L33.1179 22.5316C32.5159 23.8603 32.419 25.1915 32.7151 26.5992L32.7159 26.6028C32.9898 27.8586 32.9446 28.5292 32.674 28.972C32.3997 29.4207 31.809 29.7777 30.5696 30.1517L30.5614 30.1542L30.5533 30.157C29.7986 30.4132 28.9512 30.5017 28.0964 30.4155C28.0054 30.4037 27.9391 30.39 27.8918 30.3771C27.9139 30.3168 27.9522 30.2339 28.0142 30.1234L28.0181 30.1164L28.0218 30.1093L28.0312 30.0911C28.855 28.506 29.7009 26.8785 30.267 25.1485L30.2684 25.1439C31.237 22.0852 30.8461 19.2885 28.9052 16.6191C27.5846 14.7935 25.9816 13.2541 24.0982 12.0028C23.9821 11.9028 23.9104 11.8296 23.8673 11.7736C23.8504 11.7515 23.8409 11.736 23.8358 11.7265C23.8383 11.7203 23.8422 11.7118 23.8482 11.7006C23.8768 11.6472 23.9381 11.5628 24.0611 11.4375C24.6299 10.8581 25.5118 10.6701 26.5656 11.083ZM23.8318 11.7388C23.8318 11.7389 23.8319 11.7383 23.8322 11.7371L23.8318 11.7388ZM23.282 19.5434V19.523L23.2803 19.5027C23.1821 18.3028 22.789 17.0782 22.0734 16.1405C21.3355 15.1641 20.2221 14.8436 19.18 15.0988C19.4586 15.0119 19.7385 14.9697 20.0149 14.9697C20.7544 14.9697 21.5197 15.2718 22.2144 15.923C22.2659 15.9963 22.3182 16.0607 22.3611 16.1129C22.3683 16.1217 22.3753 16.1302 22.382 16.1383C22.4283 16.1945 22.4609 16.2341 22.4903 16.2753C22.5475 16.3554 22.5586 16.3957 22.5586 16.4428V16.6104L22.6596 16.7441C23.5081 17.8677 23.8708 18.9705 23.3664 20.2156C23.3563 20.0979 23.3384 19.9887 23.3238 19.8992L23.3215 19.8855C23.2973 19.7374 23.282 19.6368 23.282 19.5434Z" fill="#FFD277" stroke="black"/>
<defs>
<linearGradient id="paint0_linear" x1="0.0538013" y1="21.4676" x2="44.4529" y2="23.7138" gradientUnits="userSpaceOnUse">
<stop stop-color="#FFFFE3"/>
<stop offset="0.1817" stop-color="#FDCF74"/>
<stop offset="1" stop-color="#F6C266"/>
</linearGradient>
</defs>
</svg>
