<svg width="671" height="464" viewBox="0 0 671 464" fill="none" xmlns="http://www.w3.org/2000/svg">
<path d="M270.173 156.283C267.591 155.813 246.1 90.1372 254.586 39.682C263.071 -10.7732 258.459 1.25336 258.459 1.25336C258.459 1.25336 294.984 93.9894 294.338 142.847C293.693 191.705 292.217 193.303 292.217 193.303L270.173 156.283Z" fill="url(#paint0_linear)"/>
<path d="M322.469 226.563C322.469 226.563 244.624 212.376 219.721 128.847L237.799 134.485L216.954 110.62C216.954 110.62 213.541 61.4799 214.832 48.0439C214.832 48.0439 247.206 87.882 249.051 91.6403L250.896 112.875L254.032 96.9019C254.032 96.9019 302.639 135.424 322.469 226.563Z" fill="url(#paint1_linear)"/>
<path d="M325.513 228.161C322.469 226.563 239.643 157.317 216.953 52.1781L214.832 48.0439" stroke="url(#paint2_linear)" stroke-width="0.5" stroke-miterlimit="10"/>
<path d="M162.997 405.271C162.536 401.512 133.851 323.34 133.851 323.34L157.832 307.461L131.545 317.044L129.977 313.756L159.769 299.099L128.225 308.682L124.904 298.911L157.37 282.938L121.676 286.508L119.923 281.341L138.462 278.898L118.909 277.864L110.516 253.247L109.04 247.328L128.686 237.65L106.457 241.972L77.0347 181.558C77.0347 181.558 150.73 228.818 174.895 285.193C199.06 341.567 184.579 422.935 184.579 422.935L173.973 428.196L162.997 405.271Z" fill="url(#paint3_linear)"/>
<path d="M289.818 210.026C289.818 210.026 280.964 189.262 286.59 178.55C292.216 167.839 298.119 161.45 298.119 161.45C298.119 161.45 293.969 189.262 291.847 199.691C289.818 210.026 289.818 210.026 289.818 210.026Z" fill="#D52F52"/>
<path d="M284.468 207.207C284.468 207.207 268.235 197.811 264.546 182.214C260.856 166.617 262.793 155.248 262.793 155.248C262.793 155.248 280.963 173.758 279.857 180.053C278.75 186.442 284.468 207.207 284.468 207.207Z" fill="#D52F52"/>
<path d="M265.284 197.53C265.284 197.53 252.924 185.879 247.114 171.222C241.303 156.564 239.919 150.363 239.919 150.363C239.919 150.363 264.177 175.074 267.405 184.94C270.633 194.805 265.284 197.53 265.284 197.53Z" fill="#D52F52"/>
<path d="M284.192 212.563C285.944 211.341 262.24 224.965 267.866 241.878C273.585 258.79 273.585 258.79 273.585 258.79C273.585 258.79 287.42 238.777 286.959 229.757C286.497 220.737 293.784 210.59 293.784 210.59L284.192 212.563Z" fill="#D52F52"/>
<path d="M283.269 205.516C283.269 205.516 277.458 214.066 270.91 218.201C264.453 222.335 237.798 221.489 237.798 221.489C237.798 221.489 255.23 209.557 262.885 206.55C270.541 203.637 283.269 205.516 283.269 205.516Z" fill="#D52F52"/>
<path d="M260.487 197.154C260.487 197.154 257.444 210.402 237.798 208.805C218.152 207.207 218.152 204.201 218.152 204.201C218.152 204.201 249.973 196.12 255.23 195.275C260.395 194.429 262.332 195.932 262.332 195.932L260.487 197.154Z" fill="#D52F52"/>
<path d="M257.444 192.833C255.784 193.772 232.541 191.705 214.924 170.94C197.307 150.176 196.108 148.391 196.108 148.391C196.108 148.391 240.104 176.766 245.177 180.806C250.25 184.846 257.444 192.833 257.444 192.833Z" fill="#D52F52"/>
<path d="M255.23 191.891C255.23 191.891 282.993 213.032 308.634 214.441L309.095 214.159C309.095 214.159 281.609 209.179 255.968 190.764L255.23 191.891Z" fill="#D52F52"/>
<path d="M161.705 381.687C161.705 381.687 131.914 379.526 121.122 391.647C110.331 403.767 104.981 414.197 104.981 414.197C104.981 414.197 137.817 396.345 149.715 389.016C161.705 381.687 161.705 381.687 161.705 381.687Z" fill="#FFCD6A"/>
<path d="M155.802 375.955C155.802 375.955 136.802 359.231 115.772 361.392C94.7431 363.647 81.4614 371.257 81.4614 371.257C81.4614 371.257 112.636 386.479 120.015 382.251C127.394 378.022 155.802 375.955 155.802 375.955Z" fill="#FFCD6A"/>
<path d="M135.049 355.567C135.049 355.567 115.034 344.856 94.1894 343.916C73.3445 343.071 65.0435 344.01 65.0435 344.01C65.0435 344.01 106.641 364.211 120.384 363.929C134.127 363.741 135.049 355.567 135.049 355.567Z" fill="#FFCD6A"/>
<path d="M162.351 373.231C161.613 375.956 167.977 339.313 191.589 339.031C215.201 338.843 215.201 338.843 215.201 338.843C215.201 338.843 196.477 365.621 185.132 369.097C173.788 372.574 164.38 386.479 164.38 386.479L162.351 373.231Z" fill="#FFCD6A"/>
<path d="M153.127 375.204C153.127 375.204 161.244 363.835 163.365 353.594C165.579 343.353 152.574 309.34 152.574 309.34C152.574 309.34 145.564 337.245 145.287 348.426C145.01 359.607 153.127 375.204 153.127 375.204Z" fill="#FFCD6A"/>
<path d="M132.466 349.554C132.466 349.554 147.685 339.689 136.709 314.978C125.733 290.267 122.229 291.582 122.229 291.582C122.229 291.582 126.471 336.306 127.763 343.447C129.054 350.588 131.729 352.279 131.729 352.279L132.466 349.554Z" fill="#FFCD6A"/>
<path d="M125.734 347.581C126.103 345.044 113.19 315.917 79.4324 302.482C45.6748 289.046 43 288.294 43 288.294C43 288.294 97.9714 332.36 105.442 337.058C112.821 341.85 125.734 347.581 125.734 347.581Z" fill="#FFCD6A"/>
<path d="M123.52 345.232C123.52 345.232 162.259 371.634 175.54 404.05L175.356 404.708C175.356 404.708 156.817 371.447 122.414 346.642L123.52 345.232Z" fill="#FFCD6A"/>
<path d="M191.405 353.594C191.405 353.594 139.477 314.978 149.439 248.644L160.691 259.167L153.497 235.114C153.497 235.114 167.516 200.35 172.958 191.518C172.958 191.518 183.196 230.792 183.196 233.986L177.385 249.208L185.041 239.436C185.041 239.53 207.546 283.878 191.405 353.594Z" fill="url(#paint4_linear)"/>
<path d="M193.065 355.755C191.405 353.594 154.327 275.421 173.143 195.182L172.958 191.611" stroke="url(#paint5_linear)" stroke-width="0.3945" stroke-miterlimit="10"/>
<path d="M346.727 203.451C346.727 203.451 362.222 137.304 379.931 127.627C397.64 117.949 397.64 117.949 397.64 117.949L392.383 143.6L403.636 114.285C403.636 114.285 422.636 107.708 440.16 102.634C457.685 97.6543 457.685 97.6543 457.685 97.6543C457.685 97.6543 431.767 146.042 423.097 157.599C414.519 169.062 394.32 168.216 394.32 168.216L414.519 169.062C414.519 169.062 386.572 219.423 373.198 228.255C359.824 237.087 342.577 230.228 342.577 230.228L346.727 203.451Z" fill="url(#paint6_linear)"/>
<path d="M333.168 243.288C332.8 240.563 384.819 137.398 451.505 100.66" stroke="url(#paint7_linear)" stroke-width="0.5" stroke-miterlimit="10"/>
<path d="M138.015 387.812H144.656V340.833H138.015V387.812Z" fill="#347FAA"/>
<path d="M39.5238 439.379C39.5238 439.379 43.951 444.076 39.4316 448.023C35.0044 451.969 2.90694 466.344 0.324391 463.244C-3.4572 458.64 27.0722 437.312 27.0722 437.312L39.5238 439.379Z" fill="#3F0C0B"/>
<path d="M88.6847 434.399C88.6847 434.399 85.0875 441.164 88.6847 444.265C92.2818 447.365 137.107 446.707 134.248 443.983C131.389 441.258 102.796 432.05 102.796 432.05L92.743 431.486L88.6847 434.399Z" fill="#3F0C0B"/>
<path d="M41.3684 237.182C39.5237 239.437 28.9168 298.442 27.1644 332.079C25.5964 362.333 26.8877 425.003 27.1644 437.217C27.1644 438.439 28.0867 439.472 29.2858 439.754C32.3295 440.318 37.7713 441.069 39.616 439.284C43.1209 435.996 56.587 317.891 62.0288 297.596C67.5629 277.301 64.7036 239.531 64.7036 239.531L41.3684 237.182Z" fill="url(#paint8_linear)"/>
<path d="M164.778 51.3343L115.617 75.3874C113.403 76.421 110.821 75.1995 110.36 72.7566L102.981 38.65C102.612 36.9588 103.442 35.1736 105.01 34.4219L154.171 10.3688C156.384 9.33528 158.967 10.5567 159.428 12.9996L166.807 47.1062C167.176 48.7974 166.346 50.5826 164.778 51.3343Z" fill="#A3BCC1"/>
<path d="M161.826 50.3945L117.553 71.441C115.617 72.3806 113.311 71.2531 112.757 69.186L106.024 39.4015C105.655 37.8981 106.485 36.3009 107.869 35.6432L152.141 14.5967C154.078 13.6571 156.384 14.7846 156.937 16.8517L163.67 46.6362C164.039 48.1395 163.301 49.6428 161.826 50.3945Z" fill="#F57982"/>
<path d="M79.5533 234.551C80.4756 236.994 95.5098 274.577 100.306 330.763C103.534 368.158 102.981 420.681 102.796 432.143C102.796 433.459 101.874 434.68 100.583 434.868C96.801 435.62 89.3301 436.841 88.6845 434.398C87.8544 431.11 68.2085 298.724 64.5192 287.355C60.8298 275.986 62.0288 238.121 62.0288 238.121L79.5533 234.551Z" fill="url(#paint9_linear)"/>
<path d="M70.8833 149.051C70.8833 149.051 118.937 130.447 119.767 110.246C120.69 90.0454 122.995 77.737 119.767 72.0056C116.539 66.2742 120.782 58.7576 123.641 57.5361C126.5 56.3147 132.127 53.9657 129.452 57.5361C126.777 61.1065 125.578 66.2742 126.5 66.8379C127.423 67.4017 132.403 67.1198 132.403 67.1198L139.505 64.1132C139.505 64.1132 135.632 74.9183 132.68 79.0524C129.729 83.0926 140.335 107.803 127.33 129.132C114.325 150.46 81.8591 167.936 81.8591 167.936L70.8833 149.051Z" fill="#F7B68B"/>
<path d="M67.7471 148.393C68.485 147.36 90.5289 136.179 93.9416 137.776C97.3542 139.373 103.534 155.722 102.058 158.635C100.582 161.547 77.7084 167.842 79.8298 167.842C81.9511 167.842 64.4267 153.185 67.7471 148.393Z" fill="#EF964D"/>
<path d="M42.3832 239.343C38.3249 238.121 36.019 215.102 30.5772 194.901C27.1646 182.405 29.4704 172.257 29.5627 167.371C30.0238 148.768 44.4123 133.923 76.4175 147.359C89.5147 152.902 84.0729 231.92 79.5535 234.551C75.034 237.182 53.6357 242.631 42.3832 239.343Z" fill="#FA9F4D"/>
<path d="M48.1018 119.359C48.1018 119.359 46.9027 143.976 48.1018 145.48C49.3008 146.983 52.2523 156.379 59.4465 151.399C66.6408 146.419 59.4465 142.191 59.4465 142.191L58.7087 122.836L48.1018 119.359Z" fill="#F7B68B"/>
<path d="M45.9799 108.46C45.9799 108.46 34.7274 116.165 26.9797 111.185C19.2321 106.205 13.2368 95.8699 18.4942 85.7225C18.4942 85.7225 15.0815 70.4074 23.7515 63.4546C32.4215 56.4078 40.7226 58.099 40.7226 58.099C40.7226 58.099 45.0576 45.6026 54.0965 45.4147C63.1354 45.2268 71.252 52.4615 71.9899 52.4615C72.7277 52.4615 83.0579 49.5489 89.4221 54.3407C95.7862 59.1325 106.209 80.3669 97.9998 85.3467C89.791 90.3264 88.592 88.0715 88.592 88.0715L74.8491 62.9848L70.5141 68.5283C70.5141 68.5283 60.3684 77.924 59.6305 78.2999C58.8926 78.6757 48.7469 86.1923 48.7469 86.1923L42.1983 94.2727L45.9799 108.46Z" fill="#EC772A"/>
<path d="M88.7765 85.2536C87.8542 78.5826 83.058 72.9452 76.5094 70.9721C68.1161 68.4352 57.6937 68.5292 50.9606 70.9721C40.6304 74.6364 39.7081 95.0252 39.7081 95.0252C39.2469 96.4346 38.8779 97.9379 38.6935 99.5352C37.0333 112.877 46.7178 125.186 60.4607 126.971C73.0045 128.568 84.5338 120.864 87.6697 109.307C90.2523 101.32 89.6988 91.8306 88.7765 85.2536Z" fill="#FFC197"/>
<path d="M72.0824 67.1193C72.0824 67.1193 72.7281 93.0516 55.5726 98.1253C38.417 103.199 30.5771 92.206 30.5771 92.206C30.5771 92.206 47.087 53.4955 72.0824 67.1193Z" fill="#EC772A"/>
<path d="M71.3445 69.0922C72.1746 70.9714 82.5971 92.2997 91.0826 89.9508C99.5681 87.5079 93.7574 73.3203 87.6699 66.7433C81.5825 60.1663 67.3785 59.5085 71.3445 69.0922Z" fill="#EC772A"/>
<path d="M39.8929 109.87C36.4802 109.4 33.9899 106.205 34.451 102.635L34.5433 101.695C35.0045 98.2188 38.1404 95.682 41.6453 96.1518C45.058 96.6216 47.5483 99.8161 47.0871 103.386L46.9949 104.326C46.5337 107.803 43.3055 110.339 39.8929 109.87Z" fill="#FFC197"/>
<path d="M66.6411 105.924C66.6411 105.924 70.9761 110.81 73.6509 112.313C73.6509 112.313 71.1606 115.507 68.947 114.38C66.7333 113.253 66.6411 105.924 66.6411 105.924Z" fill="#BC7646"/>
<path d="M70.146 90.1387C70.146 90.1387 72.4518 94.6486 76.4179 95.2124C76.4179 95.2124 70.9761 96.7157 70.146 90.1387Z" fill="#BC7646"/>
<path d="M85.3643 96.998C85.3643 96.998 87.9468 98.5953 89.607 97.7497C89.6993 97.7497 87.5779 100.287 85.3643 96.998Z" fill="#BC7646"/>
<path d="M83.7039 98.3125C83.7039 98.3125 84.9029 106.205 84.2573 107.426C83.6116 108.648 82.966 108.648 81.8592 107.708C80.7524 106.769 83.7039 98.3125 83.7039 98.3125Z" fill="#BC7646"/>
<path d="M101.321 189.452C101.321 189.452 120.229 194.243 125.947 184.566C131.758 174.888 132.035 168.217 129.637 169.533C127.239 170.848 124.933 181.089 120.137 181.277C115.433 181.559 105.379 180.995 105.379 180.995L101.321 189.452Z" fill="#F7B68B"/>
<path d="M118.199 185.6C130.068 185.6 139.69 175.798 139.69 163.708C139.69 151.617 130.068 141.815 118.199 141.815C106.33 141.815 96.7085 151.617 96.7085 163.708C96.7085 175.798 106.33 185.6 118.199 185.6Z" fill="url(#paint10_linear)"/>
<path d="M118.199 180.996C127.572 180.996 135.17 173.256 135.17 163.708C135.17 154.16 127.572 146.42 118.199 146.42C108.826 146.42 101.228 154.16 101.228 163.708C101.228 173.256 108.826 180.996 118.199 180.996Z" fill="#E5B35A"/>
<path d="M114.971 164.742C114.418 163.896 113.68 163.802 112.942 163.708C111.835 163.52 111.835 163.614 112.204 162.581C112.389 162.111 112.389 161.641 112.389 161.172C112.389 161.078 112.296 160.89 112.204 160.89C112.02 160.89 112.02 160.984 112.02 161.172C112.02 161.359 112.02 161.547 111.927 161.735C111.651 164.366 108.791 165.118 107.131 164.178C106.578 163.896 106.117 163.52 105.84 162.957C105.194 161.735 105.655 160.232 107.039 159.668C107.5 159.48 107.685 159.292 107.592 158.729C107.408 157.601 107.961 156.662 108.884 156.286C109.898 155.91 111.005 156.192 111.651 157.037C114.971 161.453 118.292 165.963 121.52 170.379C122.627 171.977 122.719 173.198 121.889 174.42C121.059 175.641 119.583 176.111 118.384 175.547C117.646 175.265 117.646 175.077 117.923 174.326C119.122 171.507 117.369 168.594 114.51 168.782C113.864 168.782 113.219 169.064 112.665 169.534C112.481 169.628 112.296 169.816 112.481 170.004C112.665 170.191 112.85 170.004 112.942 169.91C114.787 168.688 117.277 169.534 117.923 171.601C118.384 173.01 117.83 174.232 116.908 175.265C116.17 176.111 115.156 176.581 114.049 176.299C112.85 176.017 112.112 175.171 111.835 174.044C111.743 173.668 111.558 173.574 111.19 173.668C108.699 174.044 106.947 171.883 107.869 169.44C108.054 168.97 107.961 168.876 107.5 168.688C105.84 168.218 105.287 166.245 106.393 164.93C106.67 164.648 106.947 164.46 107.316 164.742C108.238 165.212 109.253 165.212 110.175 164.836C111.651 164.178 113.126 164.084 114.694 164.836C114.602 164.742 114.694 164.742 114.971 164.742ZM122.442 152.152C121.335 151.682 120.228 151.87 119.491 152.621C119.029 153.185 119.029 153.467 119.583 153.843C121.335 155.064 122.903 156.474 124.195 158.165C125.947 160.608 126.408 163.145 125.394 165.963C124.84 167.561 124.102 169.158 123.272 170.661C122.903 171.319 123.088 171.507 123.733 171.601C124.656 171.695 125.486 171.601 126.316 171.319C128.714 170.661 129.267 169.722 128.714 167.279C128.437 165.963 128.53 164.836 129.083 163.614C129.636 162.487 129.913 161.266 129.913 160.044C129.913 158.165 128.714 156.756 127.146 156.943C126.777 156.943 126.5 156.85 126.5 156.38C126.5 155.816 126.131 155.346 125.762 154.876C124.84 153.843 123.918 152.715 122.442 152.152ZM122.073 169.346C122.35 169.346 122.627 169.064 122.811 168.876C124.563 167.185 125.394 163.145 124.471 160.89C123.457 158.447 121.52 157.037 119.122 156.286C119.122 156.286 119.029 156.38 118.937 156.38C119.122 156.662 119.398 156.943 119.583 157.319C121.243 159.762 121.243 161.829 119.398 163.896C119.122 164.178 118.66 164.366 118.476 164.836C118.66 164.836 118.753 165.024 118.66 165.212C119.122 165.869 119.583 166.433 120.044 167.091C120.228 167.091 120.228 167.185 120.228 167.279C120.69 168.03 121.243 168.688 121.796 169.346C121.981 169.346 122.073 169.346 122.073 169.346ZM112.389 153.749C111.19 154.501 111.19 154.876 111.927 156.004C112.296 156.568 112.573 156.568 112.942 156.098C114.141 154.876 115.525 154.595 117.185 154.97C117.738 155.064 118.292 155.158 118.937 155.346C117.646 152.903 114.694 152.246 112.389 153.749ZM118.384 156.943C116.816 155.44 114.971 155.534 113.403 156.943C113.034 157.319 113.034 157.601 113.311 157.883C113.68 158.353 113.772 157.695 113.864 157.601C114.971 156.474 116.539 156.474 117.461 157.695C118.107 158.541 118.384 159.574 118.568 160.608C118.568 160.89 118.66 161.172 118.66 161.359C118.753 161.641 118.845 162.017 119.122 162.017C119.398 162.017 119.491 161.735 119.583 161.453C120.136 160.044 119.767 158.729 118.845 157.507C118.845 157.413 118.66 157.225 118.384 156.943ZM117.923 163.802C118.107 163.708 118.107 163.427 118.107 163.239C118.015 161.923 117.83 160.608 117.369 159.292C117.185 158.823 116.908 158.447 116.631 158.071C116.17 157.601 115.525 157.507 114.971 157.789C114.325 158.071 114.602 158.635 114.694 159.104C114.787 159.48 114.879 159.856 115.156 160.232C115.34 160.232 115.34 160.326 115.34 160.514C115.432 160.608 115.432 160.702 115.525 160.702C115.709 160.608 115.801 160.608 115.986 160.796C115.801 160.326 115.525 159.762 115.34 159.292C115.248 159.104 115.248 158.823 115.432 158.729C115.709 158.541 115.893 158.823 115.986 159.011C116.539 159.668 116.539 160.608 115.986 161.078C115.986 161.172 115.986 161.359 115.986 161.453C116.447 162.111 116.908 162.675 117.369 163.333C117.738 163.239 117.83 163.614 117.923 163.802ZM115.986 160.796C115.893 160.608 115.709 160.608 115.525 160.702C115.709 160.89 115.893 161.172 116.078 161.359C116.078 161.266 116.078 161.078 116.078 160.984C115.986 160.89 115.986 160.89 115.986 160.796ZM117.923 163.802C117.738 163.614 117.646 163.333 117.369 163.333C117.554 163.427 117.554 163.802 117.923 163.802ZM115.34 160.514C115.432 160.326 115.34 160.232 115.156 160.232C115.248 160.326 115.248 160.42 115.34 160.514Z" fill="#664407"/>
<path d="M114.971 164.648C114.418 163.803 113.68 163.709 112.942 163.615C111.835 163.427 111.835 163.521 112.204 162.487C112.389 162.017 112.389 161.548 112.389 161.078C112.389 160.984 112.296 160.796 112.204 160.796C112.02 160.796 112.02 160.89 112.02 161.078C112.02 161.266 112.02 161.454 111.927 161.642C111.651 164.272 108.791 165.024 107.131 164.084C106.578 163.803 106.117 163.427 105.84 162.863C105.194 161.642 105.655 160.138 107.039 159.574C107.5 159.387 107.685 159.199 107.592 158.635C107.408 157.507 107.961 156.568 108.884 156.192C109.898 155.816 111.005 156.098 111.651 156.944C114.971 161.36 118.292 165.87 121.52 170.286C122.627 171.883 122.719 173.104 121.889 174.326C121.059 175.547 119.583 176.017 118.384 175.453C117.646 175.171 117.646 174.984 117.923 174.232C119.122 171.413 117.369 168.5 114.51 168.688C113.864 168.688 113.219 168.97 112.665 169.44C112.481 169.534 112.296 169.722 112.481 169.91C112.665 170.098 112.85 169.91 112.942 169.816C114.787 168.594 117.277 169.44 117.923 171.507C118.384 172.916 117.83 174.138 116.908 175.171C116.17 176.017 115.156 176.487 114.049 176.205C112.85 175.923 112.112 175.077 111.835 173.95C111.743 173.574 111.558 173.48 111.19 173.574C108.699 173.95 106.947 171.789 107.869 169.346C108.054 168.876 107.961 168.782 107.5 168.594C105.84 168.125 105.287 166.152 106.393 164.836C106.67 164.554 106.947 164.366 107.316 164.648C108.238 165.118 109.253 165.118 110.175 164.742C111.651 164.084 113.126 163.99 114.694 164.742C114.694 164.648 114.787 164.648 114.971 164.648ZM122.534 152.058C121.427 151.588 120.321 151.776 119.583 152.528C119.122 153.091 119.122 153.373 119.675 153.749C121.427 154.971 122.995 156.38 124.287 158.071C126.039 160.514 126.5 163.051 125.486 165.87C124.932 167.467 124.195 169.064 123.364 170.568C122.995 171.225 123.18 171.413 123.826 171.507C124.748 171.601 125.578 171.507 126.408 171.225C128.806 170.568 129.36 169.628 128.806 167.185C128.53 165.87 128.622 164.742 129.175 163.521C129.729 162.393 130.005 161.172 130.005 159.95C130.005 158.071 128.806 156.662 127.238 156.85C126.869 156.85 126.593 156.756 126.593 156.286C126.593 155.722 126.224 155.252 125.855 154.783C124.932 153.749 124.01 152.622 122.534 152.058ZM122.165 169.252C122.442 169.252 122.719 168.97 122.903 168.782C124.656 167.091 125.486 163.051 124.563 160.796C123.549 158.353 121.612 156.944 119.214 156.192C119.214 156.192 119.122 156.286 119.029 156.286C119.214 156.568 119.491 156.85 119.675 157.226C121.335 159.668 121.335 161.736 119.491 163.803C119.214 164.084 118.753 164.272 118.568 164.742C118.753 164.742 118.845 164.93 118.753 165.118C119.214 165.776 119.675 166.339 120.136 166.997C120.321 166.997 120.321 167.091 120.321 167.185C120.782 167.937 121.335 168.594 121.889 169.252C122.073 169.252 122.165 169.252 122.165 169.252ZM112.481 153.655C111.282 154.407 111.282 154.783 112.02 155.91C112.389 156.474 112.665 156.474 113.034 156.004C114.233 154.783 115.617 154.501 117.277 154.877C117.83 154.971 118.384 155.065 119.029 155.252C117.646 152.903 114.787 152.246 112.481 153.655ZM118.476 156.944C116.908 155.44 115.063 155.534 113.495 156.944C113.126 157.319 113.126 157.601 113.403 157.883C113.772 158.353 113.864 157.695 113.957 157.601C115.063 156.474 116.631 156.474 117.554 157.695C118.199 158.541 118.476 159.574 118.66 160.608C118.66 160.89 118.753 161.172 118.753 161.36C118.845 161.642 118.937 162.017 119.214 162.017C119.491 162.017 119.583 161.736 119.675 161.454C120.228 160.044 119.86 158.729 118.937 157.507C118.937 157.413 118.753 157.132 118.476 156.944ZM118.015 163.709C118.199 163.615 118.199 163.333 118.199 163.145C118.107 161.829 117.923 160.514 117.461 159.199C117.277 158.729 117 158.353 116.724 157.977C116.262 157.507 115.617 157.413 115.063 157.695C114.418 157.977 114.694 158.541 114.787 159.011C114.879 159.387 114.971 159.762 115.248 160.138C115.432 160.138 115.432 160.232 115.432 160.42C115.525 160.514 115.525 160.608 115.617 160.608C115.801 160.514 115.893 160.514 116.078 160.702C115.893 160.232 115.617 159.668 115.432 159.199C115.34 159.011 115.34 158.729 115.525 158.635C115.801 158.447 115.986 158.729 116.078 158.917C116.631 159.574 116.631 160.514 116.078 160.984C116.078 161.078 116.078 161.266 116.078 161.36C116.539 162.017 117 162.581 117.461 163.239C117.83 163.239 117.923 163.521 118.015 163.709ZM116.078 160.702C115.986 160.514 115.801 160.514 115.617 160.608C115.801 160.796 115.986 161.078 116.17 161.266C116.17 161.172 116.17 160.984 116.17 160.89C116.078 160.89 116.078 160.796 116.078 160.702ZM118.015 163.709C117.83 163.521 117.738 163.239 117.461 163.239C117.646 163.427 117.646 163.803 118.015 163.709ZM115.432 160.42C115.525 160.232 115.432 160.138 115.248 160.138C115.34 160.232 115.34 160.326 115.432 160.42Z" fill="#FFD277"/>
<path d="M49.7616 176.768C49.7616 176.768 55.5723 207.586 69.4996 204.955C83.427 202.324 98.5533 183.72 98.5533 183.72C98.5533 183.72 99.0145 177.989 102.519 176.861C106.117 175.64 108.699 173.855 110.451 174.231C112.204 174.513 111.282 177.519 108.976 179.586C106.67 181.653 102.888 186.445 98.4611 193.492C94.1261 200.633 76.3249 232.86 52.9898 216.605C29.6546 200.351 29.839 177.519 31.8682 176.58C33.8973 175.64 49.7616 176.768 49.7616 176.768Z" fill="#F7B68B"/>
<path d="M26.7959 181.748C26.7959 181.748 27.9027 196.593 31.1309 197.439C34.3591 198.284 55.5729 188.794 55.2962 185.882C55.0195 182.875 48.2864 154.03 41.0922 152.339C33.8979 150.648 23.7522 154.124 26.8882 180.244C30.0241 206.365 26.7959 181.748 26.7959 181.748Z" fill="#FFAD69"/>
<path d="M121.981 42.8778L124.471 36.0189C124.471 35.925 124.564 35.831 124.656 35.831L125.763 35.1733C126.039 34.9854 126.316 35.1733 126.408 35.4552L130.743 53.495C130.835 53.6829 130.651 53.9648 130.466 53.9648L129.729 54.2467C129.452 54.3406 129.175 54.2467 129.175 53.9648L125.394 37.6162C125.394 37.4283 125.209 37.4283 125.117 37.6162L123.457 41.9382C123.457 42.0322 123.364 42.1262 123.272 42.2201L121.981 42.8778Z" fill="#FFC197"/>
<path d="M130.466 38.5565L132.957 31.6976C132.957 31.6037 133.049 31.5097 133.141 31.5097L134.248 30.852C134.525 30.6641 134.801 30.852 134.894 31.1339L139.229 49.1737C139.321 49.3616 139.136 49.6435 138.952 49.6435L138.214 49.9254C137.937 50.0193 137.661 49.9254 137.661 49.6435L133.879 33.2949C133.879 33.107 133.695 33.107 133.602 33.2949L131.942 37.617C131.942 37.7109 131.85 37.8049 131.758 37.8988L130.466 38.5565Z" fill="#FFC197"/>
<path d="M143.471 36.49L151.68 32.168L152.234 34.329L143.471 38.1812L142.826 36.6779L143.471 36.49Z" fill="#FFC197"/>
<path d="M145.316 31.7918L147.53 40.342L149.005 39.4024L146.33 30.1006L145.316 31.322V31.7918Z" fill="#FFC197"/>
<path d="M291.037 148.013C291.037 148.013 292.697 128.658 296.11 129.691C299.523 130.725 305.149 134.671 305.149 134.671C305.149 134.671 322.766 128.564 342.504 134.671C342.504 134.671 350.251 127.248 352.926 128.47C355.601 129.691 356.339 142 356.339 149.046C356.339 149.046 364.824 209.273 352.096 223.555C339.368 237.742 309.761 236.897 297.494 223.555C285.226 210.213 285.226 184.562 291.037 148.013Z" fill="url(#paint11_linear)"/>
<path d="M308.746 178.361C316.184 178.361 322.213 171.883 322.213 163.891C322.213 155.9 316.184 149.422 308.746 149.422C301.309 149.422 295.28 155.9 295.28 163.891C295.28 171.883 301.309 178.361 308.746 178.361Z" fill="#FFD277"/>
<path d="M338.907 178.361C346.344 178.361 352.373 171.883 352.373 163.891C352.373 155.9 346.344 149.422 338.907 149.422C331.47 149.422 325.441 155.9 325.441 163.891C325.441 171.883 331.47 178.361 338.907 178.361Z" fill="#FFD277"/>
<path d="M338.907 166.334C340.18 166.334 341.213 165.24 341.213 163.891C341.213 162.542 340.18 161.448 338.907 161.448C337.633 161.448 336.601 162.542 336.601 163.891C336.601 165.24 337.633 166.334 338.907 166.334Z" fill="#3F0C0B"/>
<path d="M308.746 166.334C310.02 166.334 311.052 165.24 311.052 163.891C311.052 162.542 310.02 161.448 308.746 161.448C307.473 161.448 306.44 162.542 306.44 163.891C306.44 165.24 307.473 166.334 308.746 166.334Z" fill="#3F0C0B"/>
<path d="M287.256 176.67C287.256 176.67 292.421 187.005 298.785 190.67C305.149 194.334 319.354 200.817 315.756 209.367C312.159 217.823 301.737 205.891 301.737 205.891C301.737 205.891 303.489 212.75 297.402 210.87C291.314 209.085 291.222 202.508 291.222 202.508C291.222 202.508 288.916 205.985 288.455 203.636C288.178 201.193 286.334 183.435 287.256 176.67Z" fill="url(#paint12_linear)"/>
<path d="M358.829 176.669C358.829 176.669 353.664 187.004 347.3 190.669C340.936 194.333 326.732 200.816 330.329 209.366C333.926 217.822 344.348 205.89 344.348 205.89C344.348 205.89 342.596 212.749 348.683 210.87C354.771 209.084 354.863 202.507 354.863 202.507C354.863 202.507 358.091 205.796 358.46 203.447C358.737 201.004 359.752 183.434 358.829 176.669Z" fill="url(#paint13_linear)"/>
<path d="M323.78 176.577C323.78 176.577 327.562 176.201 328.484 178.362C329.406 180.523 325.717 188.134 324.61 187.664C323.503 187.194 319.722 181.087 320.644 178.362C321.013 177.141 323.78 176.577 323.78 176.577Z" fill="url(#paint14_linear)"/>
<path d="M321.105 132.04C321.105 132.04 325.625 131.758 329.591 132.228C329.591 132.228 329.591 138.241 328.761 139.087C327.931 139.932 321.567 139.838 321.105 138.711C320.644 137.583 321.105 132.04 321.105 132.04Z" fill="url(#paint15_linear)"/>
<path d="M533.777 260.669C533.777 260.669 459.344 229.851 451.873 141.437L468.66 150.926L452.888 122.739C452.888 122.739 459.713 73.2234 463.679 60.0693C463.679 60.0693 487.568 106.578 488.674 110.806L486.092 132.323L492.548 117.102C492.548 117.102 532.854 165.772 533.777 260.669Z" fill="url(#paint16_linear)"/>
<path d="M536.451 262.924C533.777 260.669 465.8 174.041 464.97 64.674L463.679 60.1641" stroke="url(#paint17_linear)" stroke-width="0.5082" stroke-miterlimit="10"/>
<path d="M526.767 283.408C526.767 283.408 535.898 221.114 481.388 181.464L480.927 196.497L468.844 174.793C468.844 174.793 433.98 159.948 423.834 157.505C423.834 157.505 444.679 191.893 446.985 194.242L461.927 200.913L449.475 199.222C449.567 199.316 465.431 245.637 526.767 283.408Z" fill="#EF7B48"/>
<path d="M527.136 286.133C526.767 283.502 497.068 203.544 426.324 160.136L423.834 157.505" stroke="#DA6C33" stroke-miterlimit="10"/>
<path d="M557.666 250.523C558.588 246.671 596.589 168.404 596.589 168.404L573.346 149.331L599.632 162.203L601.569 159.008L572.147 140.499L603.967 153.934L608.487 144.163L576.389 123.962L613.191 131.573L615.589 126.405L596.589 121.801L617.064 122.835L628.409 98.1237L630.623 92.1104L611.162 79.8959L633.851 86.7548L670.837 27.0918C670.837 27.0918 589.21 68.1513 558.127 124.15C527.044 180.149 533.501 266.402 533.501 266.402L544.015 273.073L557.666 250.523Z" fill="url(#paint18_linear)"/>
<path d="M574.874 287.212H213.778V327.52H574.874V287.212Z" fill="white"/>
<path d="M430.713 287.212H213.778V327.52H430.713V287.212Z" fill="#F9F3E3"/>
<path d="M581.147 280.543H206.861V287.496H581.147V280.543Z" fill="#4A8FA6"/>
<path d="M581.147 327.24H206.861V334.193H581.147V327.24Z" fill="#4A8FA6"/>
<path d="M581.054 280.541H574.874V327.52H581.054V280.541Z" fill="#4A8FA6"/>
<path d="M144.608 381.143L528.485 381.143V340.835L144.608 340.835V381.143Z" fill="white"/>
<path d="M144.658 381.143H310.402V340.835H144.658V381.143Z" fill="#F9F3E3"/>
<path d="M138 387.842L535.897 387.842V380.889L138 380.889V387.842Z" fill="#347FAA"/>
<path d="M138 341.088L535.897 341.088V334.135L138 334.135V341.088Z" fill="#347FAA"/>
<path d="M488.267 236.946V233H464.655H394.834H194.686C177.346 233 163.234 243.711 163.234 256.865C163.234 270.019 177.346 280.73 194.686 280.73H394.926H464.747H488.359V276.784H464.747V236.946H488.267Z" fill="#74BEC9"/>
<path d="M477.108 276.878H342.446C331.655 276.878 322.893 267.952 322.893 256.959C322.893 245.966 331.655 237.04 342.446 237.04H477.015V276.878H477.108Z" fill="white"/>
<path d="M497.306 393.385V387.748H472.311H398.616H187.308C169.045 387.748 154.104 402.969 154.104 421.573C154.104 440.176 169.045 455.397 187.308 455.397H398.708H472.403H497.398V449.76H472.403V393.292H497.306V393.385Z" fill="url(#paint19_linear)"/>
<path d="M485.502 449.853H286.461C271.242 449.853 258.698 437.169 258.698 421.572C258.698 406.069 271.15 393.291 286.461 393.291H485.502V449.853Z" fill="white"/>
<path d="M547.724 164.55C547.724 164.55 564.88 201.569 591.166 193.77C617.453 185.972 593.472 199.878 593.472 199.878C593.472 199.878 558.331 211.247 547.724 192.831C537.117 174.509 541.914 159.852 547.724 164.55Z" fill="#F6C266"/>
<path d="M554.734 57.3443C554.734 57.3443 533.151 25.4927 507.879 43.5325C482.607 61.5724 480.578 87.7865 482.238 100.095C483.898 112.403 484.728 118.511 481.777 122.739C478.825 127.061 469.786 135.047 471.539 152.617C473.199 170.093 493.767 187.1 516.365 178.174C538.962 169.248 540.899 166.993 540.899 166.993C540.899 166.993 558.423 173.006 567.093 153.181C575.855 133.356 571.059 110.242 569.953 106.296C568.753 102.35 581.666 87.9744 572.258 71.3439C562.943 54.7134 554.734 57.3443 554.734 57.3443Z" fill="url(#paint20_linear)"/>
<path d="M524.481 158.253C523.928 157.972 510.093 155.341 502.529 165.77C494.874 176.293 511.753 230.789 519.224 235.487C526.695 240.184 543.85 238.963 545.972 230.789C548.093 222.614 558.884 178.36 549.845 166.522C540.807 154.683 524.481 158.253 524.481 158.253Z" fill="#FFCD6A"/>
<path d="M523.005 138.335C523.005 138.335 522.083 157.221 522.083 159.194C522.083 161.167 531.122 181.744 536.564 178.643C542.006 175.543 535.272 160.603 530.292 157.973C530.292 157.973 528.539 141.154 530.292 138.899C532.044 136.644 523.005 138.335 523.005 138.335Z" fill="#E29C6D"/>
<path d="M505.019 115.222C501.053 115.222 497.825 111.934 497.825 107.894V105.92C497.825 101.88 501.053 98.5918 505.019 98.5918C508.985 98.5918 512.214 101.88 512.214 105.92V107.894C512.121 111.934 508.893 115.222 505.019 115.222Z" fill="#EAA678"/>
<path d="M561.744 86.565C559.622 78.4846 553.166 72.2834 545.142 70.8741C534.811 69.0889 522.544 70.968 514.981 75.0082C503.452 81.2094 505.297 106.484 505.297 106.484C504.928 108.363 504.743 110.242 504.743 112.121C504.743 128.846 518.025 142.376 534.443 142.376C549.477 142.376 561.928 131.007 563.865 116.162C565.894 106.014 563.773 94.5514 561.744 86.565Z" fill="#EAA678"/>
<path d="M556.118 78.3907C556.118 78.3907 553.443 99.3432 533.244 102.444C512.952 105.544 501.054 98.9674 501.054 98.9674C501.054 98.9674 482.331 91.2629 493.583 80.7396C504.836 70.2164 532.506 56.4046 543.758 65.0487C555.011 73.6928 558.147 71.156 556.118 78.3907Z" fill="#410F0B"/>
<path d="M554.734 80.4572C554.55 81.1149 558.977 103.759 565.433 109.02C571.89 114.282 567.186 81.2089 564.695 79.2358C562.205 77.2627 557.686 66.5515 554.734 80.4572Z" fill="#410F0B"/>
<path d="M494.505 93.4232C494.505 93.4232 506.126 81.3966 506.956 82.0543C507.786 82.712 501.699 99.2486 500.131 98.6848C498.563 98.1211 494.043 95.1144 494.505 93.4232Z" fill="#FFCD6A"/>
<path d="M539.331 123.02C539.331 123.02 541.729 126.12 546.064 125.838C546.064 125.838 542.374 128.281 540.714 126.778C539.054 125.275 539.331 123.02 539.331 123.02Z" fill="#BC7646"/>
<path d="M553.442 108.27C553.442 108.27 556.855 110.431 560.637 108.739C560.637 108.739 557.408 112.592 553.442 108.27Z" fill="#BC7646"/>
<path d="M534.812 107.048C534.812 107.048 538.224 109.209 542.006 107.518C542.006 107.518 538.778 111.276 534.812 107.048Z" fill="#BC7646"/>
<path d="M620.958 330.479C620.958 330.479 610.905 329.446 613.118 339.311C615.332 349.177 626.492 374.451 627.876 373.418C629.351 372.384 635.439 348.707 631.196 334.707C626.953 320.614 620.958 330.479 620.958 330.479Z" fill="#3F0C0B"/>
<path d="M549.293 107.048C549.293 107.048 547.356 120.108 548.647 120.202C549.938 120.296 552.798 120.954 552.336 118.793C551.875 116.538 549.293 107.048 549.293 107.048Z" fill="#BC7646"/>
<path d="M615.239 287.821C615.239 287.821 622.71 318.733 620.958 330.478C620.958 330.478 629.72 338.464 632.579 332.451C635.439 326.438 645.4 272.036 628.152 254.654C610.997 237.366 599.929 233.89 583.327 235.393C566.724 236.99 545.326 257.191 545.326 257.191C545.326 257.191 602.511 249.017 615.239 287.821Z" fill="url(#paint21_linear)"/>
<path d="M519.132 235.582C519.132 235.582 506.865 267.903 521.623 277.769C536.38 287.634 558.609 269.218 557.871 259.729C557.041 250.239 545.973 230.884 545.973 230.884C545.973 230.884 538.871 238.025 519.132 235.582Z" fill="url(#paint22_linear)"/>
<path d="M587.754 323.525C587.754 323.525 577.147 322.398 579.084 331.324C580.929 340.344 590.337 367.873 591.72 367.122C593.104 366.276 598.638 351.618 597.531 330.29C596.332 308.962 587.754 323.525 587.754 323.525Z" fill="#3F0C0B"/>
<path d="M508.802 163.705C508.802 163.705 515.996 164.551 516.55 176.201C517.103 187.852 519.224 208.617 534.166 209.368C549.108 210.12 559.9 195.65 559.9 195.65L563.128 201.194C563.128 201.194 548.463 225.905 531.399 224.871C514.336 223.838 495.151 207.019 496.443 184.188C497.549 161.544 508.802 163.705 508.802 163.705Z" fill="#FFD58A"/>
<path d="M518.117 273.728C518.117 273.728 524.02 285.003 544.035 283.029C564.05 281.15 575.948 270.815 583.88 272.318C591.905 273.916 603.526 277.204 598.176 297.593C592.827 317.982 587.662 323.431 587.662 323.431C587.662 323.431 593.934 331.606 597.439 330.196C600.944 328.787 634.424 296.371 618.652 255.782C602.88 215.192 544.404 238.118 541.545 240.467C538.778 242.816 508.802 243.192 518.117 273.728Z" fill="url(#paint23_linear)"/>
<path d="M559.807 195.743C559.807 195.743 563.588 185.502 570.967 184.75C578.346 183.998 578.53 184.75 576.87 186.253C575.21 187.757 574.195 188.978 573.457 191.421C572.719 193.77 567.646 202.038 562.943 201.38L559.807 195.743Z" fill="#E29C6D"/>
<path d="M572.443 174.508C573.549 173.851 610.812 157.972 612.103 160.509C613.395 163.046 612.933 191.89 611.273 194.333C609.613 196.776 572.166 214.252 571.244 211.152C570.229 208.051 570.782 175.448 572.443 174.508Z" fill="#A3BCC1"/>
<path d="M613.117 180.71C613.117 180.71 607.583 178.361 604.263 180.71C601.035 183.059 601.035 183.059 601.035 183.059C601.035 183.059 600.481 183.811 602.142 185.596C603.802 187.475 603.986 187.287 606.292 188.884C608.598 190.576 609.705 192.361 611.826 191.421C613.948 190.482 616.715 182.683 613.117 180.71Z" fill="#EAA678"/>
<path d="M575.02 443.465H511.102C507.136 443.465 504 440.176 504 436.23C504 432.19 507.228 428.995 511.102 428.995H575.02C578.986 428.995 582.122 432.284 582.122 436.23C582.122 440.27 578.894 443.465 575.02 443.465Z" fill="url(#paint24_linear)"/>
<path d="M614.497 442.714L563.03 404.097C559.894 401.748 559.156 397.144 561.554 393.95C563.86 390.755 568.38 390.003 571.516 392.446L622.982 431.063C626.118 433.412 626.856 438.016 624.458 441.21C622.152 444.405 617.633 445.062 614.497 442.714Z" fill="url(#paint25_linear)"/>
<path d="M575.02 429.182H511.102C507.136 429.182 504 425.894 504 421.948C504 417.907 507.228 414.713 511.102 414.713H575.02C578.986 414.713 582.122 418.001 582.122 421.948C582.122 425.894 578.894 429.182 575.02 429.182Z" fill="#E5B35A"/>
<defs>
<linearGradient id="paint0_linear" x1="311.988" y1="162.225" x2="237.374" y2="34.4108" gradientUnits="userSpaceOnUse">
<stop offset="0.2288" stop-color="#4888AA"/>
<stop offset="1" stop-color="#A5BAC2"/>
</linearGradient>
<linearGradient id="paint1_linear" x1="192.771" y1="109.76" x2="344.831" y2="164.09" gradientUnits="userSpaceOnUse">
<stop offset="0.177" stop-color="#2CCD90"/>
<stop offset="1" stop-color="#005E63"/>
</linearGradient>
<linearGradient id="paint2_linear" x1="214.612" y1="138.142" x2="325.641" y2="138.142" gradientUnits="userSpaceOnUse">
<stop stop-color="#D85F4A"/>
<stop offset="1" stop-color="#4F1D25"/>
</linearGradient>
<linearGradient id="paint3_linear" x1="176.202" y1="417.364" x2="114.815" y2="198.095" gradientUnits="userSpaceOnUse">
<stop stop-color="#ED588D"/>
<stop offset="1" stop-color="#F58279"/>
</linearGradient>
<linearGradient id="paint4_linear" x1="177.326" y1="339.05" x2="173.553" y2="208.141" gradientUnits="userSpaceOnUse">
<stop offset="0.2288" stop-color="#4888AA"/>
<stop offset="1" stop-color="#A5BAC2"/>
</linearGradient>
<linearGradient id="paint5_linear" x1="142.537" y1="253.064" x2="223.96" y2="293.13" gradientUnits="userSpaceOnUse">
<stop stop-color="#D85F4A"/>
<stop offset="1" stop-color="#4F1D25"/>
</linearGradient>
<linearGradient id="paint6_linear" x1="342.528" y1="165.098" x2="457.59" y2="165.098" gradientUnits="userSpaceOnUse">
<stop stop-color="#ED588D"/>
<stop offset="1" stop-color="#F58279"/>
</linearGradient>
<linearGradient id="paint7_linear" x1="332.924" y1="171.867" x2="451.635" y2="171.867" gradientUnits="userSpaceOnUse">
<stop stop-color="#D85F4A"/>
<stop offset="1" stop-color="#4F1D25"/>
</linearGradient>
<linearGradient id="paint8_linear" x1="-0.847513" y1="311.666" x2="84.4952" y2="360.035" gradientUnits="userSpaceOnUse">
<stop offset="0.0761177" stop-color="#3E80A6"/>
<stop offset="0.9373" stop-color="#34586F"/>
</linearGradient>
<linearGradient id="paint9_linear" x1="82.4069" y1="301.788" x2="82.4069" y2="427.401" gradientUnits="userSpaceOnUse">
<stop offset="0.0761177" stop-color="#3E80A6"/>
<stop offset="1" stop-color="#34586F"/>
</linearGradient>
<linearGradient id="paint10_linear" x1="96.734" y1="162.536" x2="139.616" y2="164.705" gradientUnits="userSpaceOnUse">
<stop stop-color="#FFFFE3"/>
<stop offset="0.1817" stop-color="#FDCF74"/>
<stop offset="1" stop-color="#F6C266"/>
</linearGradient>
<linearGradient id="paint11_linear" x1="284.895" y1="192.614" x2="367.345" y2="163.36" gradientUnits="userSpaceOnUse">
<stop stop-color="#76343E"/>
<stop offset="0.7628" stop-color="#A44839"/>
</linearGradient>
<linearGradient id="paint12_linear" x1="303.932" y1="179.629" x2="298.301" y2="210.977" gradientUnits="userSpaceOnUse">
<stop stop-color="#76343E"/>
<stop offset="0.7628" stop-color="#A44839"/>
<stop offset="1" stop-color="#A44839"/>
</linearGradient>
<linearGradient id="paint13_linear" x1="349.188" y1="174.905" x2="342.198" y2="213.821" gradientUnits="userSpaceOnUse">
<stop stop-color="#76343E"/>
<stop offset="0.7628" stop-color="#A44839"/>
<stop offset="1" stop-color="#A44839"/>
</linearGradient>
<linearGradient id="paint14_linear" x1="320.443" y1="182.101" x2="328.564" y2="182.101" gradientUnits="userSpaceOnUse">
<stop offset="0.3944" stop-color="#DE5F33"/>
<stop offset="1" stop-color="#EF864B"/>
</linearGradient>
<linearGradient id="paint15_linear" x1="320.87" y1="135.792" x2="329.506" y2="135.792" gradientUnits="userSpaceOnUse">
<stop offset="0.3944" stop-color="#EC7933"/>
<stop offset="1" stop-color="#EFA24B"/>
</linearGradient>
<linearGradient id="paint16_linear" x1="512.417" y1="247.176" x2="459.08" y2="84.3724" gradientUnits="userSpaceOnUse">
<stop offset="0.2288" stop-color="#4888AA"/>
<stop offset="1" stop-color="#A5BAC2"/>
</linearGradient>
<linearGradient id="paint17_linear" x1="444.815" y1="149.615" x2="555.375" y2="172.66" gradientUnits="userSpaceOnUse">
<stop offset="0.00121941" stop-color="#8AB8C6"/>
<stop offset="0.9995" stop-color="#74BEC9"/>
</linearGradient>
<linearGradient id="paint18_linear" x1="542.635" y1="261.596" x2="630.315" y2="40.5192" gradientUnits="userSpaceOnUse">
<stop stop-color="#ED588D"/>
<stop offset="1" stop-color="#F58279"/>
</linearGradient>
<linearGradient id="paint19_linear" x1="154.136" y1="421.655" x2="497.35" y2="421.655" gradientUnits="userSpaceOnUse">
<stop stop-color="#76343E"/>
<stop offset="0.7628" stop-color="#A44839"/>
</linearGradient>
<linearGradient id="paint20_linear" x1="529.753" y1="106.789" x2="466.612" y2="191.489" gradientUnits="userSpaceOnUse">
<stop stop-color="#410F0B"/>
<stop offset="0.7628" stop-color="#4D190B"/>
</linearGradient>
<linearGradient id="paint21_linear" x1="569.636" y1="251.075" x2="645.552" y2="305.222" gradientUnits="userSpaceOnUse">
<stop offset="0.497" stop-color="#683742"/>
<stop offset="0.7628" stop-color="#79353F"/>
</linearGradient>
<linearGradient id="paint22_linear" x1="514.397" y1="255.679" x2="557.879" y2="255.679" gradientUnits="userSpaceOnUse">
<stop stop-color="#76343E"/>
<stop offset="0.7628" stop-color="#A44839"/>
</linearGradient>
<linearGradient id="paint23_linear" x1="535.187" y1="303.829" x2="619.359" y2="256.123" gradientUnits="userSpaceOnUse">
<stop stop-color="#76343E"/>
<stop offset="0.7628" stop-color="#A44839"/>
</linearGradient>
<linearGradient id="paint24_linear" x1="503.922" y1="436.227" x2="582.15" y2="436.227" gradientUnits="userSpaceOnUse">
<stop stop-color="#FFD277"/>
<stop offset="1" stop-color="#F6C266"/>
</linearGradient>
<linearGradient id="paint25_linear" x1="561.422" y1="393.952" x2="625.234" y2="440.072" gradientUnits="userSpaceOnUse">
<stop stop-color="#FFD277"/>
<stop offset="1" stop-color="#F6C266"/>
</linearGradient>
</defs>
</svg>
