<svg width="1440" height="320" viewBox="0 0 1440 320" fill="none" xmlns="http://www.w3.org/2000/svg">
<rect y="63" width="1441" height="257" fill="#396479"/>
<path d="M1226.98 140C1244.1 140 1257.97 126.121 1257.97 109C1257.97 91.8792 1244.1 78 1226.98 78C1209.87 78 1196 91.8792 1196 109C1196 126.121 1209.87 140 1226.98 140Z" fill="url(#paint0_linear)"/>
<path d="M1226.98 133.527C1240.52 133.527 1251.5 122.546 1251.5 109.001C1251.5 95.4553 1240.52 84.4746 1226.98 84.4746C1213.45 84.4746 1202.47 95.4553 1202.47 109.001C1202.47 122.546 1213.45 133.527 1226.98 133.527Z" fill="#E5B35A"/>
<path d="M1222.88 106.323C1223.25 104.953 1222.69 104.019 1222.13 103.086C1221.26 101.716 1221.26 101.716 1222.75 101.218C1223.38 100.969 1224 100.658 1224.56 100.16C1224.68 100.035 1224.81 99.8487 1224.68 99.7242C1224.56 99.5375 1224.37 99.662 1224.25 99.7242C1224 99.8487 1223.81 100.035 1223.56 100.16C1220.45 102.214 1216.97 99.662 1216.59 96.923C1216.47 96.0516 1216.41 95.2423 1216.72 94.3708C1217.46 92.5034 1219.52 91.6941 1221.38 92.7524C1222.07 93.1259 1222.38 93.1881 1222.94 92.5656C1224 91.3206 1225.55 91.1339 1226.86 91.8186C1228.23 92.5656 1228.91 94.0596 1228.54 95.6158C1226.61 103.335 1224.74 110.991 1222.75 118.648C1222.07 121.325 1220.7 122.507 1218.65 122.632C1216.53 122.756 1214.79 121.574 1214.17 119.706C1213.86 118.648 1213.98 118.399 1215.04 118.15C1219.21 117.029 1220.76 112.423 1218.02 109.435C1217.34 108.688 1216.53 108.252 1215.54 108.003C1215.29 107.941 1214.91 107.817 1214.85 108.128C1214.73 108.501 1215.16 108.439 1215.41 108.564C1218.46 109.497 1219.77 113.046 1218.02 115.66C1216.84 117.403 1215.1 117.839 1213.11 117.776C1211.49 117.714 1210.12 116.967 1209.38 115.411C1208.63 113.793 1208.82 112.236 1209.87 110.867C1210.25 110.369 1210.19 110.182 1209.75 109.809C1207.01 107.381 1207.88 103.397 1211.37 102.339C1212.05 102.152 1212.11 101.903 1211.87 101.28C1210.93 99.0395 1212.61 96.674 1214.98 96.674C1215.6 96.674 1215.91 96.8608 1216.1 97.4833C1216.47 98.915 1217.28 100.035 1218.58 100.782C1220.64 101.903 1222.13 103.459 1222.63 105.825C1222.57 105.949 1222.69 106.011 1222.88 106.323ZM1243.6 103.584C1243.1 101.903 1241.85 100.845 1240.42 100.72C1239.36 100.658 1239.05 100.907 1239.18 101.965C1239.49 105.015 1239.3 108.003 1238.56 110.991C1237.5 115.162 1235.01 117.901 1231.03 119.395C1228.73 120.266 1226.36 120.764 1223.94 121.2C1222.94 121.387 1222.75 121.698 1223.31 122.57C1224 123.69 1224.93 124.499 1225.99 125.246C1228.97 127.363 1230.41 127.176 1232.58 124.313C1233.77 122.819 1235.13 121.885 1236.94 121.449C1238.68 121.013 1240.24 120.266 1241.67 119.208C1243.78 117.527 1244.22 114.975 1242.54 113.295C1242.16 112.921 1242.1 112.485 1242.54 112.05C1243.16 111.489 1243.35 110.68 1243.53 109.933C1243.84 107.817 1244.22 105.7 1243.6 103.584ZM1224.31 118.523C1224.62 118.835 1225.06 118.897 1225.43 118.959C1228.85 119.457 1234.14 116.78 1235.69 113.668C1237.37 110.307 1237.25 106.883 1235.94 103.521C1235.94 103.459 1235.82 103.459 1235.69 103.459C1235.57 103.957 1235.45 104.517 1235.32 105.015C1234.14 109.124 1231.77 110.867 1227.98 110.68C1227.36 110.618 1226.8 110.369 1226.17 110.493C1226.3 110.742 1226.3 110.929 1225.99 111.054C1225.74 112.112 1225.43 113.17 1225.18 114.291C1225.37 114.477 1225.3 114.602 1225.06 114.664C1224.68 115.847 1224.37 117.029 1224.12 118.274C1224.18 118.337 1224.25 118.399 1224.31 118.523ZM1232.71 93.6861C1230.78 93.0014 1230.34 93.3126 1229.72 95.1801C1229.41 96.1138 1229.72 96.3628 1230.53 96.4251C1232.96 96.674 1234.51 98.0435 1235.63 100.16C1236.01 100.845 1236.38 101.529 1236.81 102.401C1238.31 98.8528 1236.38 94.9933 1232.71 93.6861ZM1234.57 103.335C1234.82 100.347 1233.02 98.168 1230.03 97.7323C1229.29 97.6078 1228.97 97.919 1228.91 98.5415C1228.79 99.413 1229.47 98.915 1229.78 98.9773C1231.96 99.2263 1233.45 101.031 1232.96 103.023C1232.58 104.517 1231.77 105.762 1230.65 106.883C1230.41 107.132 1230.09 107.443 1229.91 107.692C1229.66 108.003 1229.35 108.377 1229.66 108.813C1229.91 109.186 1230.34 108.937 1230.72 108.875C1232.83 108.252 1233.83 106.634 1234.45 104.58C1234.45 104.206 1234.51 103.77 1234.57 103.335ZM1226.67 108.875C1226.98 108.937 1227.17 108.75 1227.42 108.564C1228.79 107.256 1230.09 105.887 1231.09 104.268C1231.46 103.646 1231.65 103.023 1231.77 102.339C1231.9 101.405 1231.4 100.596 1230.65 100.222C1229.78 99.7865 1229.35 100.533 1228.91 101.094C1228.54 101.529 1228.23 102.027 1228.1 102.65C1228.29 102.837 1228.23 102.961 1227.98 103.023C1227.98 103.148 1227.92 103.272 1227.85 103.397C1228.17 103.459 1228.23 103.708 1228.17 103.957C1228.54 103.272 1228.91 102.588 1229.29 101.903C1229.47 101.654 1229.72 101.343 1230.03 101.467C1230.47 101.654 1230.34 102.027 1230.28 102.339C1230.03 103.521 1228.97 104.393 1227.98 104.206C1227.79 104.331 1227.67 104.455 1227.48 104.517C1227.23 105.576 1226.92 106.634 1226.67 107.754C1226.98 108.19 1226.73 108.501 1226.67 108.875ZM1228.17 103.957C1228.23 103.708 1228.17 103.459 1227.85 103.397C1227.73 103.77 1227.67 104.206 1227.54 104.58C1227.73 104.455 1227.85 104.331 1228.04 104.268C1228.04 104.144 1228.1 104.082 1228.17 103.957ZM1226.67 108.875C1226.73 108.501 1226.98 108.19 1226.73 107.817C1226.67 108.19 1226.24 108.501 1226.67 108.875ZM1227.92 103.023C1228.17 102.961 1228.23 102.837 1228.04 102.65C1227.98 102.774 1227.98 102.899 1227.92 103.023Z" fill="#664407"/>
<path d="M1223 106.385C1223.37 105.016 1222.81 104.082 1222.25 103.148C1221.38 101.779 1221.38 101.779 1222.88 101.281C1223.5 101.032 1224.12 100.72 1224.68 100.222C1224.81 100.098 1224.93 99.9112 1224.81 99.7867C1224.68 99.6 1224.49 99.7245 1224.37 99.7867C1224.12 99.9112 1223.93 100.098 1223.69 100.222C1220.58 102.277 1217.09 99.7245 1216.72 96.9855C1216.59 96.1141 1216.53 95.3048 1216.84 94.4333C1217.59 92.5659 1219.64 91.7566 1221.51 92.8149C1222.19 93.1884 1222.5 93.2506 1223.06 92.6281C1224.12 91.3831 1225.68 91.1964 1226.98 91.8811C1228.35 92.6281 1229.04 94.1221 1228.66 95.6783C1226.73 103.397 1224.87 111.054 1222.88 118.71C1222.19 121.387 1220.82 122.57 1218.77 122.694C1216.66 122.819 1214.91 121.636 1214.29 119.769C1213.98 118.71 1214.1 118.461 1215.16 118.212C1219.33 117.092 1220.89 112.486 1218.15 109.498C1217.46 108.751 1216.66 108.315 1215.66 108.066C1215.41 108.004 1215.04 107.879 1214.98 108.19C1214.85 108.564 1215.29 108.502 1215.54 108.626C1218.58 109.56 1219.89 113.108 1218.15 115.722C1216.97 117.465 1215.22 117.901 1213.23 117.839C1211.62 117.777 1210.25 117.03 1209.5 115.473C1208.75 113.855 1208.94 112.299 1210 110.929C1210.37 110.431 1210.31 110.245 1209.87 109.871C1207.14 107.443 1208.01 103.459 1211.49 102.401C1212.18 102.214 1212.24 101.965 1211.99 101.343C1211.06 99.102 1212.74 96.7365 1215.1 96.7365C1215.72 96.7365 1216.03 96.9233 1216.22 97.5458C1216.59 98.9775 1217.4 100.098 1218.71 100.845C1220.76 101.965 1222.25 103.522 1222.75 105.887C1222.75 105.949 1222.81 106.074 1223 106.385ZM1243.72 103.584C1243.22 101.903 1241.98 100.845 1240.55 100.72C1239.49 100.658 1239.18 100.907 1239.3 101.965C1239.61 105.016 1239.43 108.004 1238.68 110.992C1237.62 115.162 1235.13 117.901 1231.15 119.395C1228.85 120.267 1226.49 120.765 1224.06 121.2C1223.06 121.387 1222.88 121.698 1223.44 122.57C1224.12 123.69 1225.05 124.5 1226.11 125.247C1229.1 127.363 1230.53 127.176 1232.71 124.313C1233.89 122.819 1235.26 121.885 1237.06 121.449C1238.8 121.014 1240.36 120.267 1241.79 119.208C1243.91 117.528 1244.34 114.975 1242.66 113.295C1242.29 112.921 1242.23 112.486 1242.66 112.05C1243.28 111.49 1243.47 110.68 1243.66 109.933C1244.03 107.817 1244.4 105.7 1243.72 103.584ZM1224.43 118.524C1224.74 118.835 1225.18 118.897 1225.55 118.959C1228.97 119.457 1234.26 116.781 1235.82 113.668C1237.5 110.307 1237.37 106.883 1236.07 103.522C1236.07 103.459 1235.94 103.459 1235.82 103.459C1235.69 103.957 1235.57 104.518 1235.44 105.016C1234.26 109.124 1231.9 110.867 1228.1 110.68C1227.48 110.618 1226.92 110.369 1226.3 110.494C1226.42 110.743 1226.42 110.929 1226.11 111.054C1225.86 112.112 1225.55 113.17 1225.3 114.291C1225.49 114.478 1225.43 114.602 1225.18 114.664C1224.81 115.847 1224.49 117.03 1224.25 118.275C1224.31 118.399 1224.37 118.461 1224.43 118.524ZM1232.89 93.7486C1230.97 93.0639 1230.53 93.3751 1229.91 95.2426C1229.6 96.1763 1229.91 96.4253 1230.72 96.4875C1233.14 96.7365 1234.7 98.106 1235.82 100.222C1236.19 100.907 1236.56 101.592 1237 102.463C1238.43 98.853 1236.56 95.0558 1232.89 93.7486ZM1234.7 103.335C1234.95 100.347 1233.14 98.1683 1230.16 97.7325C1229.41 97.608 1229.1 97.9193 1229.04 98.5418C1228.91 99.4132 1229.6 98.9153 1229.91 98.9775C1232.09 99.2265 1233.58 101.032 1233.08 103.024C1232.71 104.518 1231.9 105.763 1230.78 106.883C1230.53 107.132 1230.22 107.443 1230.03 107.692C1229.78 108.004 1229.47 108.377 1229.78 108.813C1230.03 109.186 1230.47 108.937 1230.84 108.875C1232.96 108.253 1233.95 106.634 1234.57 104.58C1234.57 104.269 1234.7 103.833 1234.7 103.335ZM1226.86 108.937C1227.17 109 1227.36 108.813 1227.61 108.626C1228.97 107.319 1230.28 105.949 1231.28 104.331C1231.65 103.708 1231.84 103.086 1231.96 102.401C1232.09 101.467 1231.59 100.658 1230.84 100.285C1229.97 99.849 1229.53 100.596 1229.1 101.156C1228.73 101.592 1228.41 102.09 1228.29 102.712C1228.48 102.899 1228.41 103.024 1228.17 103.086C1228.17 103.21 1228.1 103.335 1228.04 103.459C1228.35 103.522 1228.41 103.771 1228.35 104.02C1228.73 103.335 1229.1 102.65 1229.47 101.965C1229.66 101.716 1229.91 101.405 1230.22 101.53C1230.65 101.716 1230.53 102.09 1230.47 102.401C1230.22 103.584 1229.16 104.455 1228.17 104.269C1227.98 104.393 1227.85 104.518 1227.67 104.58C1227.42 105.638 1227.11 106.696 1226.86 107.817C1227.17 108.253 1226.86 108.564 1226.86 108.937ZM1228.29 104.02C1228.35 103.771 1228.29 103.522 1227.98 103.459C1227.85 103.833 1227.79 104.269 1227.67 104.642C1227.85 104.518 1227.98 104.393 1228.17 104.331C1228.23 104.206 1228.23 104.144 1228.29 104.02ZM1226.86 108.937C1226.92 108.564 1227.17 108.253 1226.92 107.879C1226.86 108.19 1226.42 108.564 1226.86 108.937ZM1228.04 103.024C1228.29 102.961 1228.35 102.837 1228.17 102.65C1228.17 102.775 1228.1 102.899 1228.04 103.024Z" fill="#FFD277"/>
<path d="M1364.25 352.7C1360.69 347.468 1257.82 253.424 1257.82 253.424L1282 211.252L1249.54 245.847L1244.67 242.171L1278.56 197.318L1238.16 235.982L1225.7 224.021L1262.64 175.143L1211.38 208.077L1204.8 201.749L1230.97 183.768L1200.62 197.365L1169.19 167.255L1162.45 159.595L1184.8 129.999L1154.47 153.629L1064 86.5625C1064 86.5625 1211.41 99.8053 1290.86 164.933C1370.3 230.061 1410.33 362.263 1410.33 362.263L1398.29 378.296L1364.25 352.7Z" fill="url(#paint1_linear)"/>
<path d="M1403.76 359.297C1403.76 359.297 1301.3 390.544 1220.67 307.042L1245.88 302.559L1206.29 287.174C1206.29 287.174 1172.41 231.114 1165.82 214.414C1165.82 214.414 1228.99 241.59 1233.5 244.9L1248.58 268.897L1242.69 248.055C1242.69 248.055 1324.64 263.656 1403.76 359.297Z" fill="url(#paint2_linear)"/>
<path d="M1408.4 359.31C1403.76 359.298 1261.94 328.446 1170.89 217.998L1165.82 214.414" stroke="url(#paint3_linear)" stroke-width="0.5" stroke-miterlimit="10"/>
<path d="M989.5 119.063C1022.36 119.063 1049 92.4097 1049 59.5314C1049 26.6531 1022.36 0 989.5 0C956.639 0 930 26.6531 930 59.5314C930 92.4097 956.639 119.063 989.5 119.063Z" fill="url(#paint4_linear)"/>
<path d="M989.5 106.63C1015.5 106.63 1036.57 85.5429 1036.57 59.5308C1036.57 33.5186 1015.5 12.4316 989.5 12.4316C963.502 12.4316 942.426 33.5186 942.426 59.5308C942.426 85.5429 963.502 106.63 989.5 106.63Z" fill="#E5B35A"/>
<path d="M981.615 54.3907C982.332 51.7608 981.256 49.9677 980.181 48.1745C978.508 45.5446 978.508 45.5446 981.376 44.5883C982.57 44.1101 983.765 43.5124 984.841 42.5561C985.08 42.317 985.318 41.9584 985.08 41.7193C984.841 41.3607 984.482 41.5998 984.243 41.7193C983.765 41.9584 983.407 42.317 982.929 42.5561C976.955 46.501 970.264 41.5998 969.547 36.34C969.308 34.6664 969.189 33.1124 969.786 31.4388C971.22 27.8526 975.163 26.2985 978.747 28.3307C980.061 29.048 980.659 29.1675 981.734 27.9721C983.765 25.5813 986.752 25.2227 989.261 26.5376C991.89 27.9721 993.204 30.8411 992.487 33.8296C988.783 48.6527 985.199 63.3562 981.376 78.0598C980.061 83.2001 977.433 85.4713 973.49 85.7104C969.428 85.9495 966.083 83.6782 964.888 80.092C964.29 78.0598 964.529 77.5816 966.56 77.1035C974.565 74.9517 977.552 66.1057 972.295 60.3677C970.981 58.9332 969.428 58.0964 967.516 57.6183C967.038 57.4987 966.322 57.2597 966.202 57.8574C965.963 58.5746 966.799 58.4551 967.277 58.6941C973.132 60.4873 975.641 67.3011 972.295 72.3218C970.025 75.669 966.68 76.5058 962.857 76.3862C959.75 76.2667 957.122 74.8322 955.688 71.8437C954.254 68.7356 954.613 65.7471 956.644 63.1172C957.361 62.1608 957.241 61.8022 956.405 61.085C951.148 56.4229 952.821 48.7722 959.511 46.74C960.826 46.3814 960.945 45.9033 960.467 44.7078C958.675 40.4044 961.901 35.8618 966.441 35.8618C967.636 35.8618 968.233 36.2204 968.592 37.4158C969.308 40.1653 970.862 42.317 973.371 43.7515C977.313 45.9032 980.181 48.8918 981.137 53.4343C981.017 53.6734 981.256 53.793 981.615 54.3907ZM1021.4 49.1309C1020.44 45.9033 1018.06 43.8711 1015.31 43.632C1013.28 43.5124 1012.68 43.9906 1012.92 46.0228C1013.52 51.8803 1013.16 57.6183 1011.72 63.3562C1009.69 71.3655 1004.91 76.6253 997.266 79.4943C992.846 81.1679 988.305 82.1242 983.646 82.961C981.734 83.3196 981.376 83.9173 982.451 85.5909C983.765 87.7426 985.557 89.2966 987.589 90.7311C993.324 94.7955 996.072 94.4369 1000.25 88.938C1002.52 86.069 1005.15 84.2759 1008.62 83.4391C1011.96 82.6023 1014.95 81.1678 1017.7 79.1356C1021.76 75.908 1022.6 71.0069 1019.37 67.7793C1018.65 67.062 1018.53 66.2252 1019.37 65.3884C1020.56 64.3126 1020.92 62.7585 1021.28 61.324C1021.88 57.2597 1022.6 53.1953 1021.4 49.1309ZM984.363 77.8207C984.96 78.4184 985.796 78.538 986.513 78.6575C993.085 79.6138 1003.24 74.4736 1006.23 68.4965C1009.45 62.0413 1009.21 55.4665 1006.7 49.0113C1006.7 48.8918 1006.47 48.8918 1006.23 48.8918C1005.99 49.8481 1005.75 50.924 1005.51 51.8803C1003.24 59.77 998.7 63.1172 991.412 62.7585C990.217 62.639 989.142 62.1608 987.947 62.3999C988.186 62.8781 988.186 63.2367 987.589 63.4758C987.111 65.508 986.513 67.5402 986.035 69.6919C986.394 70.0505 986.274 70.2896 985.796 70.4092C985.08 72.6804 984.482 74.9517 984.004 77.3425C984.124 77.4621 984.243 77.5816 984.363 77.8207ZM1000.49 30.1238C996.788 28.8089 995.952 29.4066 994.757 32.9928C994.16 34.7859 994.757 35.2641 996.31 35.3836C1000.97 35.8618 1003.96 38.4917 1006.11 42.5561C1006.82 43.8711 1007.54 45.186 1008.38 46.8596C1011.25 40.0457 1007.54 32.6342 1000.49 30.1238ZM1004.08 48.6527C1004.55 42.9147 1001.09 38.7308 995.355 37.894C993.921 37.6549 993.323 38.2526 993.204 39.448C992.965 41.1216 994.279 40.1653 994.877 40.2848C999.058 40.763 1001.93 44.2297 1000.97 48.055C1000.25 50.924 998.7 53.3148 996.549 55.4665C996.071 55.9447 995.474 56.5424 995.116 57.0206C994.638 57.6183 994.04 58.3355 994.638 59.1723C995.116 59.8895 995.952 59.4114 996.669 59.2918C1000.73 58.0964 1002.64 54.9884 1003.84 51.0435C1003.84 50.3263 1003.96 49.4895 1004.08 48.6527ZM988.903 59.2918C989.5 59.4114 989.859 59.0528 990.337 58.6941C992.965 56.1838 995.474 53.5539 997.386 50.4458C998.103 49.2504 998.461 48.055 998.7 46.74C998.939 44.9469 997.983 43.3929 996.549 42.6756C994.877 41.8389 994.04 43.2733 993.204 44.3492C992.487 45.186 991.89 46.1423 991.651 47.3377C992.009 47.6964 991.89 47.9354 991.412 48.055C991.412 48.2941 991.292 48.5332 991.173 48.7722C991.77 48.8918 991.89 49.3699 991.77 49.8481C992.487 48.5332 993.204 47.2182 993.921 45.9033C994.279 45.4251 994.757 44.8274 995.355 45.0665C996.191 45.4251 995.952 46.1423 995.833 46.74C995.355 49.0113 993.323 50.6849 991.412 50.3263C991.053 50.5654 990.814 50.8044 990.456 50.924C989.978 52.9562 989.381 54.9884 988.903 57.1401C989.5 57.9769 989.022 58.5746 988.903 59.2918ZM991.77 49.8481C991.89 49.3699 991.77 48.8918 991.173 48.7722C990.934 49.4895 990.814 50.3263 990.576 51.0435C990.934 50.8044 991.173 50.5653 991.531 50.4458C991.531 50.2067 991.651 50.0872 991.77 49.8481ZM988.903 59.2918C989.022 58.5746 989.5 57.9769 989.022 57.2597C988.903 57.9769 988.066 58.5746 988.903 59.2918ZM991.292 48.055C991.77 47.9354 991.89 47.6964 991.531 47.3377C991.412 47.5768 991.412 47.8159 991.292 48.055Z" fill="#664407"/>
<path d="M981.853 54.5098C982.57 51.8799 981.495 50.0868 980.42 48.2937C978.747 45.6638 978.747 45.6638 981.614 44.7074C982.809 44.2293 984.004 43.6316 985.079 42.6752C985.318 42.4361 985.557 42.0775 985.318 41.8384C985.079 41.4798 984.721 41.7189 984.482 41.8384C984.004 42.0775 983.646 42.4361 983.168 42.6752C977.194 46.6201 970.503 41.7189 969.786 36.4591C969.547 34.7855 969.428 33.2315 970.025 31.5579C971.459 27.9717 975.402 26.4177 978.986 28.4499C980.3 29.1671 980.898 29.2866 981.973 28.0912C984.004 25.7004 986.991 25.3418 989.5 26.6567C992.129 28.0912 993.443 30.9602 992.726 33.9487C989.022 48.7718 985.438 63.4754 981.614 78.1789C980.3 83.3192 977.672 85.5904 973.729 85.8295C969.667 86.0686 966.321 83.7973 965.127 80.2111C964.529 78.1789 964.768 77.7007 966.799 77.2226C974.804 75.0708 977.791 66.2248 972.534 60.4868C971.22 59.0523 969.667 58.2156 967.755 57.7374C967.277 57.6179 966.56 57.3788 966.441 57.9765C966.202 58.6937 967.038 58.5742 967.516 58.8133C973.37 60.6064 975.88 67.4202 972.534 72.4409C970.264 75.7881 966.919 76.6249 963.095 76.5053C959.989 76.3858 957.36 74.9513 955.927 71.9628C954.493 68.8547 954.851 65.8662 956.883 63.2363C957.599 62.28 957.48 61.9213 956.644 61.2041C951.387 56.542 953.059 48.8914 959.75 46.8592C961.064 46.5005 961.184 46.0224 960.706 44.827C958.914 40.5235 962.14 35.9809 966.68 35.9809C967.875 35.9809 968.472 36.3396 968.83 37.535C969.547 40.2844 971.1 42.4361 973.609 43.8706C977.552 46.0224 980.42 49.0109 981.376 53.5535C981.376 53.673 981.495 53.9121 981.853 54.5098ZM1021.64 49.1304C1020.68 45.9028 1018.29 43.8706 1015.55 43.6316C1013.52 43.512 1012.92 43.9902 1013.16 46.0224C1013.75 51.8799 1013.4 57.6179 1011.96 63.3558C1009.93 71.3651 1005.15 76.6249 997.505 79.4938C993.084 81.1674 988.544 82.1237 983.885 82.9605C981.973 83.3192 981.614 83.9169 982.69 85.5904C984.004 87.7422 985.796 89.2962 987.827 90.7307C993.562 94.7951 996.31 94.4365 1000.49 88.9376C1002.76 86.0686 1005.39 84.2755 1008.86 83.4387C1012.2 82.6019 1015.19 81.1674 1017.94 79.1352C1022 75.9076 1022.83 71.0064 1019.61 67.7788C1018.89 67.0616 1018.77 66.2248 1019.61 65.388C1020.8 64.3121 1021.16 62.7581 1021.52 61.3236C1022.24 57.2592 1022.95 53.1948 1021.64 49.1304ZM984.601 77.8203C985.199 78.418 986.035 78.5375 986.752 78.6571C993.323 79.6134 1003.48 74.4731 1006.47 68.4961C1009.69 62.0409 1009.45 55.4661 1006.94 49.0109C1006.94 48.8914 1006.7 48.8914 1006.47 48.8914C1006.23 49.8477 1005.99 50.9236 1005.75 51.8799C1003.48 59.7696 998.939 63.1167 991.651 62.7581C990.456 62.6386 989.381 62.1604 988.186 62.3995C988.425 62.8777 988.425 63.2363 987.827 63.4754C987.349 65.5076 986.752 67.5398 986.274 69.6915C986.633 70.0501 986.513 70.2892 986.035 70.4087C985.318 72.68 984.721 74.9513 984.243 77.3421C984.362 77.5812 984.482 77.7007 984.601 77.8203ZM1000.85 30.243C997.147 28.928 996.31 29.5257 995.115 33.112C994.518 34.9051 995.115 35.3832 996.669 35.5028C1001.33 35.9809 1004.32 38.6108 1006.47 42.6752C1007.18 43.9902 1007.9 45.3051 1008.74 46.9787C1011.48 40.0453 1007.9 32.7533 1000.85 30.243ZM1004.32 48.6523C1004.79 42.9143 1001.33 38.7304 995.593 37.8936C994.16 37.6545 993.562 38.2522 993.443 39.4476C993.204 41.1212 994.518 40.1649 995.115 40.2844C999.297 40.7626 1002.16 44.2293 1001.21 48.0546C1000.49 50.9236 998.939 53.3144 996.788 55.4661C996.31 55.9443 995.713 56.542 995.354 57.0201C994.877 57.6178 994.279 58.3351 994.877 59.1719C995.354 59.8891 996.191 59.411 996.908 59.2914C1000.97 58.096 1002.88 54.9879 1004.08 51.0431C1004.08 50.4454 1004.32 49.6086 1004.32 48.6523ZM989.261 59.411C989.858 59.5305 990.217 59.1719 990.695 58.8133C993.323 56.3029 995.832 53.673 997.744 50.5649C998.461 49.3695 998.819 48.1741 999.058 46.8592C999.297 45.066 998.341 43.512 996.908 42.7948C995.235 41.958 994.399 43.3925 993.562 44.4683C992.845 45.3051 992.248 46.2615 992.009 47.4569C992.367 47.8155 992.248 48.0546 991.77 48.1741C991.77 48.4132 991.651 48.6523 991.531 48.8914C992.129 49.0109 992.248 49.4891 992.129 49.9672C992.845 48.6523 993.562 47.3373 994.279 46.0224C994.638 45.5442 995.115 44.9465 995.713 45.1856C996.549 45.5442 996.31 46.2615 996.191 46.8592C995.713 49.1304 993.682 50.804 991.77 50.4454C991.412 50.6845 991.173 50.9236 990.814 51.0431C990.336 53.0753 989.739 55.1075 989.261 57.2592C989.858 58.096 989.261 58.6937 989.261 59.411ZM992.009 49.9672C992.129 49.4891 992.009 49.0109 991.412 48.8914C991.173 49.6086 991.053 50.4454 990.814 51.1626C991.173 50.9236 991.412 50.6845 991.77 50.5649C991.89 50.3259 991.89 50.2063 992.009 49.9672ZM989.261 59.411C989.381 58.6937 989.858 58.096 989.381 57.3788C989.261 57.9765 988.425 58.6937 989.261 59.411ZM991.531 48.0546C992.009 47.935 992.129 47.696 991.77 47.3373C991.77 47.5764 991.651 47.8155 991.531 48.0546Z" fill="#FFD277"/>
<path d="M1107 188.044C1130.2 188.044 1149 169.23 1149 146.022C1149 122.814 1130.2 104 1107 104C1083.8 104 1065 122.814 1065 146.022C1065 169.23 1083.8 188.044 1107 188.044Z" fill="url(#paint5_linear)"/>
<path d="M1107 179.268C1125.35 179.268 1140.23 164.383 1140.23 146.022C1140.23 127.66 1125.35 112.775 1107 112.775C1088.65 112.775 1073.77 127.66 1073.77 146.022C1073.77 164.383 1088.65 179.268 1107 179.268Z" fill="#E5B35A"/>
<path d="M1101.43 142.395C1101.94 140.538 1101.18 139.273 1100.42 138.007C1099.24 136.15 1099.24 136.15 1101.27 135.475C1102.11 135.138 1102.95 134.716 1103.71 134.041C1103.88 133.872 1104.05 133.619 1103.88 133.45C1103.71 133.197 1103.46 133.366 1103.29 133.45C1102.95 133.619 1102.7 133.872 1102.36 134.041C1098.14 136.825 1093.42 133.366 1092.92 129.653C1092.75 128.472 1092.66 127.375 1093.08 126.193C1094.1 123.662 1096.88 122.565 1099.41 123.999C1100.34 124.506 1100.76 124.59 1101.52 123.746C1102.95 122.059 1105.06 121.805 1106.83 122.734C1108.69 123.746 1109.61 125.771 1109.11 127.881C1106.49 138.344 1103.96 148.723 1101.27 159.102C1100.34 162.731 1098.48 164.334 1095.7 164.503C1092.83 164.671 1090.47 163.068 1089.63 160.537C1089.2 159.102 1089.37 158.765 1090.81 158.427C1096.46 156.908 1098.57 150.664 1094.86 146.614C1093.93 145.601 1092.83 145.011 1091.48 144.673C1091.14 144.589 1090.64 144.42 1090.55 144.842C1090.39 145.348 1090.98 145.264 1091.31 145.432C1095.45 146.698 1097.22 151.508 1094.86 155.052C1093.25 157.415 1090.89 158.005 1088.19 157.921C1086 157.837 1084.14 156.824 1083.13 154.714C1082.12 152.521 1082.37 150.411 1083.81 148.555C1084.31 147.879 1084.23 147.626 1083.64 147.12C1079.93 143.829 1081.11 138.429 1085.83 136.994C1086.76 136.741 1086.84 136.404 1086.51 135.56C1085.24 132.522 1087.52 129.315 1090.72 129.315C1091.57 129.315 1091.99 129.569 1092.24 130.412C1092.75 132.353 1093.84 133.872 1095.61 134.885C1098.4 136.404 1100.42 138.513 1101.1 141.72C1101.01 141.888 1101.18 141.973 1101.43 142.395ZM1129.52 138.682C1128.84 136.404 1127.16 134.969 1125.22 134.8C1123.78 134.716 1123.36 135.053 1123.53 136.488C1123.95 140.623 1123.7 144.673 1122.69 148.723C1121.25 154.377 1117.88 158.09 1112.48 160.115C1109.36 161.296 1106.16 161.971 1102.87 162.562C1101.52 162.815 1101.27 163.237 1102.02 164.418C1102.95 165.937 1104.22 167.034 1105.65 168.047C1109.7 170.916 1111.64 170.663 1114.59 166.781C1116.19 164.756 1118.05 163.49 1120.49 162.899C1122.86 162.309 1124.96 161.296 1126.9 159.862C1129.77 157.583 1130.36 154.124 1128.08 151.845C1127.58 151.339 1127.49 150.748 1128.08 150.158C1128.93 149.398 1129.18 148.301 1129.43 147.289C1129.86 144.42 1130.36 141.551 1129.52 138.682ZM1103.37 158.934C1103.8 159.355 1104.39 159.44 1104.89 159.524C1109.53 160.199 1116.7 156.571 1118.81 152.352C1121.08 147.795 1120.92 143.154 1119.14 138.597C1119.14 138.513 1118.98 138.513 1118.81 138.513C1118.64 139.188 1118.47 139.948 1118.3 140.623C1116.7 146.192 1113.49 148.555 1108.35 148.301C1107.51 148.217 1106.75 147.879 1105.9 148.048C1106.07 148.386 1106.07 148.639 1105.65 148.808C1105.31 150.242 1104.89 151.677 1104.55 153.196C1104.81 153.449 1104.72 153.617 1104.39 153.702C1103.88 155.305 1103.46 156.908 1103.12 158.596C1103.2 158.68 1103.29 158.765 1103.37 158.934ZM1114.76 125.265C1112.14 124.337 1111.55 124.759 1110.71 127.29C1110.29 128.556 1110.71 128.894 1111.81 128.978C1115.1 129.315 1117.2 131.172 1118.72 134.041C1119.23 134.969 1119.74 135.897 1120.33 137.079C1122.35 132.269 1119.74 127.037 1114.76 125.265ZM1117.29 138.344C1117.63 134.294 1115.18 131.341 1111.13 130.75C1110.12 130.581 1109.7 131.003 1109.61 131.847C1109.45 133.028 1110.37 132.353 1110.8 132.438C1113.75 132.775 1115.77 135.222 1115.1 137.922C1114.59 139.948 1113.49 141.635 1111.98 143.154C1111.64 143.492 1111.22 143.914 1110.96 144.251C1110.63 144.673 1110.2 145.179 1110.63 145.77C1110.96 146.276 1111.55 145.939 1112.06 145.854C1114.93 145.011 1116.28 142.817 1117.12 140.032C1117.12 139.526 1117.2 138.935 1117.29 138.344ZM1106.58 145.854C1107 145.939 1107.25 145.686 1107.59 145.432C1109.45 143.66 1111.22 141.804 1112.57 139.61C1113.07 138.766 1113.33 137.922 1113.49 136.994C1113.66 135.729 1112.99 134.632 1111.98 134.125C1110.8 133.535 1110.2 134.547 1109.61 135.307C1109.11 135.897 1108.69 136.572 1108.52 137.416C1108.77 137.669 1108.69 137.838 1108.35 137.922C1108.35 138.091 1108.27 138.26 1108.18 138.429C1108.6 138.513 1108.69 138.851 1108.6 139.188C1109.11 138.26 1109.61 137.332 1110.12 136.404C1110.37 136.066 1110.71 135.644 1111.13 135.813C1111.72 136.066 1111.55 136.572 1111.47 136.994C1111.13 138.597 1109.7 139.779 1108.35 139.526C1108.1 139.694 1107.93 139.863 1107.67 139.948C1107.34 141.382 1106.92 142.817 1106.58 144.335C1107 144.926 1106.66 145.348 1106.58 145.854ZM1108.6 139.188C1108.69 138.851 1108.6 138.513 1108.18 138.429C1108.01 138.935 1107.93 139.526 1107.76 140.032C1108.01 139.863 1108.18 139.694 1108.43 139.61C1108.43 139.441 1108.52 139.357 1108.6 139.188ZM1106.58 145.854C1106.66 145.348 1107 144.926 1106.66 144.42C1106.58 144.926 1105.99 145.348 1106.58 145.854ZM1108.27 137.922C1108.6 137.838 1108.69 137.669 1108.43 137.416C1108.35 137.585 1108.35 137.754 1108.27 137.922Z" fill="#664407"/>
<path d="M1101.6 142.479C1102.11 140.622 1101.35 139.357 1100.59 138.091C1099.41 136.234 1099.41 136.234 1101.43 135.559C1102.28 135.222 1103.12 134.8 1103.88 134.125C1104.05 133.956 1104.22 133.703 1104.05 133.534C1103.88 133.281 1103.63 133.45 1103.46 133.534C1103.12 133.703 1102.87 133.956 1102.53 134.125C1098.31 136.909 1093.59 133.45 1093.08 129.737C1092.92 128.556 1092.83 127.459 1093.25 126.277C1094.26 123.746 1097.05 122.649 1099.58 124.083C1100.51 124.59 1100.93 124.674 1101.69 123.83C1103.12 122.143 1105.23 121.889 1107 122.818C1108.86 123.83 1109.78 125.855 1109.28 127.965C1106.66 138.428 1104.13 148.807 1101.43 159.186C1100.51 162.815 1098.65 164.418 1095.87 164.587C1093 164.755 1090.64 163.152 1089.8 160.621C1089.37 159.186 1089.54 158.849 1090.98 158.511C1096.63 156.992 1098.73 150.748 1095.02 146.698C1094.1 145.685 1093 145.094 1091.65 144.757C1091.31 144.673 1090.81 144.504 1090.72 144.926C1090.55 145.432 1091.14 145.348 1091.48 145.516C1095.61 146.782 1097.39 151.592 1095.02 155.136C1093.42 157.499 1091.06 158.089 1088.36 158.005C1086.17 157.921 1084.31 156.908 1083.3 154.798C1082.29 152.604 1082.54 150.495 1083.98 148.639C1084.48 147.963 1084.4 147.71 1083.81 147.204C1080.1 143.913 1081.28 138.513 1086 137.078C1086.93 136.825 1087.01 136.488 1086.67 135.644C1085.41 132.606 1087.69 129.399 1090.89 129.399C1091.73 129.399 1092.16 129.653 1092.41 130.496C1092.92 132.437 1094.01 133.956 1095.78 134.969C1098.57 136.488 1100.59 138.597 1101.26 141.804C1101.26 141.888 1101.35 142.057 1101.6 142.479ZM1129.69 138.681C1129.01 136.403 1127.33 134.969 1125.39 134.8C1123.95 134.716 1123.53 135.053 1123.7 136.488C1124.12 140.622 1123.87 144.673 1122.86 148.723C1121.42 154.376 1118.05 158.089 1112.65 160.114C1109.53 161.296 1106.33 161.971 1103.04 162.562C1101.69 162.815 1101.43 163.237 1102.19 164.418C1103.12 165.937 1104.39 167.034 1105.82 168.046C1109.87 170.915 1111.81 170.662 1114.76 166.781C1116.36 164.755 1118.22 163.49 1120.66 162.899C1123.02 162.308 1125.13 161.296 1127.07 159.861C1129.94 157.583 1130.53 154.123 1128.25 151.845C1127.75 151.339 1127.66 150.748 1128.25 150.157C1129.1 149.398 1129.35 148.301 1129.6 147.288C1130.11 144.419 1130.61 141.55 1129.69 138.681ZM1103.54 158.933C1103.96 159.355 1104.55 159.439 1105.06 159.524C1109.7 160.199 1116.87 156.57 1118.98 152.351C1121.25 147.795 1121.08 143.154 1119.31 138.597C1119.31 138.513 1119.14 138.513 1118.98 138.513C1118.81 139.188 1118.64 139.947 1118.47 140.622C1116.87 146.191 1113.66 148.554 1108.52 148.301C1107.67 148.217 1106.92 147.879 1106.07 148.048C1106.24 148.385 1106.24 148.639 1105.82 148.807C1105.48 150.242 1105.06 151.676 1104.72 153.195C1104.98 153.448 1104.89 153.617 1104.55 153.701C1104.05 155.305 1103.63 156.908 1103.29 158.596C1103.37 158.764 1103.46 158.849 1103.54 158.933ZM1115.01 125.349C1112.4 124.421 1111.81 124.843 1110.96 127.374C1110.54 128.64 1110.96 128.978 1112.06 129.062C1115.35 129.399 1117.46 131.256 1118.98 134.125C1119.48 135.053 1119.99 135.981 1120.58 137.163C1122.52 132.268 1119.99 127.121 1115.01 125.349ZM1117.46 138.344C1117.8 134.294 1115.35 131.34 1111.3 130.75C1110.29 130.581 1109.87 131.003 1109.78 131.847C1109.61 133.028 1110.54 132.353 1110.96 132.437C1113.92 132.775 1115.94 135.222 1115.26 137.922C1114.76 139.947 1113.66 141.635 1112.14 143.154C1111.81 143.491 1111.39 143.913 1111.13 144.251C1110.8 144.673 1110.37 145.179 1110.8 145.77C1111.13 146.276 1111.72 145.938 1112.23 145.854C1115.1 145.01 1116.45 142.816 1117.29 140.032C1117.29 139.61 1117.46 139.019 1117.46 138.344ZM1106.83 145.938C1107.25 146.023 1107.51 145.77 1107.84 145.516C1109.7 143.744 1111.47 141.888 1112.82 139.694C1113.33 138.85 1113.58 138.006 1113.75 137.078C1113.92 135.812 1113.24 134.716 1112.23 134.209C1111.05 133.619 1110.46 134.631 1109.87 135.391C1109.36 135.981 1108.94 136.656 1108.77 137.5C1109.02 137.753 1108.94 137.922 1108.6 138.006C1108.6 138.175 1108.52 138.344 1108.43 138.513C1108.86 138.597 1108.94 138.935 1108.86 139.272C1109.36 138.344 1109.87 137.416 1110.37 136.488C1110.63 136.15 1110.96 135.728 1111.39 135.897C1111.98 136.15 1111.81 136.656 1111.72 137.078C1111.39 138.681 1109.95 139.863 1108.6 139.61C1108.35 139.778 1108.18 139.947 1107.93 140.032C1107.59 141.466 1107.17 142.901 1106.83 144.419C1107.25 145.01 1106.83 145.432 1106.83 145.938ZM1108.77 139.272C1108.86 138.935 1108.77 138.597 1108.35 138.513C1108.18 139.019 1108.1 139.61 1107.93 140.116C1108.18 139.947 1108.35 139.778 1108.6 139.694C1108.69 139.525 1108.69 139.441 1108.77 139.272ZM1106.83 145.938C1106.92 145.432 1107.25 145.01 1106.92 144.504C1106.83 144.926 1106.24 145.432 1106.83 145.938ZM1108.43 137.922C1108.77 137.838 1108.86 137.669 1108.6 137.416C1108.6 137.584 1108.52 137.753 1108.43 137.922Z" fill="#FFD277"/>
<path d="M1419.76 344.415C1419.76 344.415 1296.91 291.847 1286.72 155.311L1314.33 170.988L1288.75 126.518C1288.75 126.518 1301.23 50.8594 1308.21 30.7615C1308.21 30.7615 1346.92 104.076 1348.38 110.428L1343.58 143.401L1354.62 120.403C1354.66 120.59 1420.54 198.272 1419.76 344.415Z" fill="url(#paint6_linear)"/>
<path d="M1424.11 347.937C1419.76 344.415 1308.88 206.274 1310.26 37.9614L1308.25 30.9485" stroke="url(#paint7_linear)" stroke-width="0.3945" stroke-miterlimit="10"/>
<path d="M1401.06 327.005C1401.06 327.005 1383.94 256.682 1396.34 238.766C1408.74 220.849 1408.74 220.849 1408.74 220.849L1416.1 247.748L1412.75 214.416C1412.75 214.416 1427.89 198.8 1442.35 185.336C1456.85 171.962 1456.85 171.962 1456.85 171.962C1456.85 171.962 1455.3 230.609 1452.53 245.841C1449.81 260.938 1429.91 270.115 1429.91 270.115L1449.81 260.938C1449.81 260.938 1447.26 322.457 1438.63 337.431C1430.01 352.405 1410.04 354.426 1410.04 354.426L1401.06 327.005Z" fill="url(#paint8_linear)"/>
<path d="M1375.87 330.523C1375.87 330.523 1351.61 318.152 1330.02 325.825C1308.45 333.596 1296.4 344.898 1296.4 344.898C1296.4 344.898 1333.09 352.566 1339.79 346.287C1346.48 340.008 1375.87 330.523 1375.87 330.523Z" fill="#FFCD6A"/>
<path d="M1348.84 314.819C1348.84 314.819 1325.05 308.926 1302.86 313.347C1280.7 317.865 1272.2 320.983 1272.2 320.983C1272.2 320.983 1321.12 331.102 1335.52 327.255C1349.94 323.506 1348.84 314.819 1348.84 314.819Z" fill="#FFCD6A"/>
<path d="M1382.07 326.013C1381.98 329.02 1379.38 289.5 1404.17 283.101C1428.98 276.798 1428.98 276.798 1428.98 276.798C1428.98 276.798 1416.07 309.319 1405.01 315.847C1393.94 322.374 1387.57 339.181 1387.57 339.181L1382.07 326.013Z" fill="#FFCD6A"/>
<path d="M1372.86 330.438C1372.86 330.438 1378.52 316.588 1378.15 305.454C1377.88 294.296 1355.55 262.506 1355.55 262.506C1355.55 262.506 1355.26 293.161 1357.8 304.789C1360.35 316.417 1372.86 330.438 1372.86 330.438Z" fill="#FFCD6A"/>
<path d="M1344.59 309.271C1344.59 309.271 1358.11 295.137 1340.28 272.436C1322.45 249.735 1319.09 252.001 1319.09 252.001C1319.09 252.001 1334.92 297.129 1338.09 304.175C1341.26 311.222 1344.51 312.278 1344.51 312.278L1344.59 309.271Z" fill="#FFCD6A"/>
<path d="M1337 308.973C1336.75 306.256 1315.75 279.492 1276.8 274.337C1237.85 269.183 1234.84 269.098 1234.84 269.098C1234.84 269.098 1303.91 300.423 1312.97 303.346C1321.95 306.39 1337 308.973 1337 308.973Z" fill="#FFCD6A"/>
<path d="M1334.08 307.118C1334.08 307.118 1381.57 324.385 1403.78 354.453L1403.76 355.181C1403.76 355.181 1375.79 325.599 1333.27 308.861L1334.08 307.118Z" fill="#FFCD6A"/>
<defs>
<linearGradient id="paint0_linear" x1="1208.8" y1="83.9498" x2="1245.25" y2="134.109" gradientUnits="userSpaceOnUse">
<stop stop-color="#FFFFE3"/>
<stop offset="0.1817" stop-color="#FDCF74"/>
<stop offset="1" stop-color="#F6C266"/>
</linearGradient>
<linearGradient id="paint1_linear" x1="1393.42" y1="360.463" x2="1136.16" y2="79.6732" gradientUnits="userSpaceOnUse">
<stop stop-color="#ED588D"/>
<stop offset="1" stop-color="#F58279"/>
</linearGradient>
<linearGradient id="paint2_linear" x1="1176.61" y1="301.08" x2="1393.19" y2="274.091" gradientUnits="userSpaceOnUse">
<stop offset="0.177" stop-color="#2CCD90"/>
<stop offset="1" stop-color="#005E63"/>
</linearGradient>
<linearGradient id="paint3_linear" x1="1220.14" y1="321.197" x2="1354.02" y2="252.679" gradientUnits="userSpaceOnUse">
<stop stop-color="#D85F4A"/>
<stop offset="1" stop-color="#4F1D25"/>
</linearGradient>
<linearGradient id="paint4_linear" x1="954.587" y1="11.4257" x2="1024.58" y2="107.749" gradientUnits="userSpaceOnUse">
<stop stop-color="#FFFFE3"/>
<stop offset="0.1817" stop-color="#FDCF74"/>
<stop offset="1" stop-color="#F6C266"/>
</linearGradient>
<linearGradient id="paint5_linear" x1="1082.36" y1="112.065" x2="1131.76" y2="180.058" gradientUnits="userSpaceOnUse">
<stop stop-color="#FFFFE3"/>
<stop offset="0.1817" stop-color="#FDCF74"/>
<stop offset="1" stop-color="#F6C266"/>
</linearGradient>
<linearGradient id="paint6_linear" x1="1384.59" y1="322.062" x2="1317.3" y2="63.4651" gradientUnits="userSpaceOnUse">
<stop offset="0.2288" stop-color="#4888AA"/>
<stop offset="1" stop-color="#A5BAC2"/>
</linearGradient>
<linearGradient id="paint7_linear" x1="1274.76" y1="167.32" x2="1457.37" y2="211.694" gradientUnits="userSpaceOnUse">
<stop stop-color="#D85F4A"/>
<stop offset="1" stop-color="#4F1D25"/>
</linearGradient>
<linearGradient id="paint8_linear" x1="1378.41" y1="292.743" x2="1489.46" y2="235.907" gradientUnits="userSpaceOnUse">
<stop stop-color="#F6C266"/>
<stop offset="1" stop-color="#F58279"/>
</linearGradient>
</defs>
</svg>
