<svg width="83" height="82" viewBox="0 0 83 82" fill="none" xmlns="http://www.w3.org/2000/svg">
<circle cx="40.5" cy="34.5" r="34.5" fill="#5194A6"/>
<rect x="38.8589" y="17.4473" width="39" height="29" rx="1" transform="rotate(-9.5796 38.8589 17.4473)" fill="#EBF4FF"/>
<path d="M36.6744 30.1377C36.6744 30.1377 27.3714 16.7385 16.4781 24.3274C5.58488 31.9163 4.71022 42.944 5.42583 48.1218C6.14145 53.2997 6.49926 55.8689 5.22705 57.6475C3.95484 59.4657 0.0587231 62.8254 0.814095 70.2167C1.52971 77.5685 10.3954 84.7226 20.1357 80.9677C29.876 77.2127 30.7109 76.2641 30.7109 76.2641C30.7109 76.2641 38.2646 78.7938 42.0017 70.4538C45.7786 62.1139 43.7113 52.3906 43.2342 50.7305C42.7174 49.0705 48.2833 43.023 44.2281 36.027C40.2127 29.0309 36.6744 30.1377 36.6744 30.1377Z" fill="url(#paint0_linear)"/>
<path d="M45.5177 45.8448C44.9394 41.3649 41.9322 37.5792 37.8263 36.2541C32.5638 34.5506 26.029 34.6136 21.8075 36.2541C15.3305 38.7149 14.7522 52.4068 14.7522 52.4068C14.4631 53.3532 14.2318 54.3628 14.1161 55.4354C13.0752 64.395 19.1473 72.6606 27.7639 73.8594C35.6288 74.9321 42.8575 69.7582 44.8237 61.9974C46.4429 56.6342 46.096 50.2615 45.5177 45.8448Z" fill="#FFC197"/>
<path d="M38.4755 36.2761C38.4755 36.2761 37.3529 44.4637 28.8749 45.6754C20.3582 46.887 15.3643 44.3169 15.3643 44.3169C15.3643 44.3169 7.50572 41.3062 12.2286 37.194C16.9515 33.0818 28.5652 27.6845 33.2881 31.0624C38.011 34.4402 39.3272 33.4489 38.4755 36.2761Z" fill="#410F0B"/>
<path d="M33.3985 34.5521C33.3347 34.9438 40.1131 46.1457 46.2078 47.5977C52.3024 49.0496 43.8696 32.3146 41.5265 31.7848C39.1834 31.255 33.9575 26.4704 33.3985 34.5521Z" fill="#410F0B"/>
<path d="M13.8813 57.9635C11.4716 57.6578 9.71324 55.5789 10.0389 53.2554L10.104 52.644C10.4296 50.3817 12.6439 48.7308 15.1187 49.0365C17.5284 49.3422 19.2868 51.4211 18.9611 53.7446L18.896 54.356C18.5704 56.6183 16.291 58.2692 13.8813 57.9635Z" fill="#FFC197"/>
<path d="M29.7178 60C29.7178 60 32.8099 63.3706 34.7178 64.4077C34.7178 64.4077 32.9415 66.6116 31.3625 65.8337C29.7836 65.0559 29.7178 60 29.7178 60Z" fill="#BC7646"/>
<path d="M32.7178 49C32.7178 49 34.1884 52.4548 36.7178 52.8867C36.7178 52.8867 33.2472 54.0383 32.7178 49Z" fill="#BC7646"/>
<path d="M42.7178 54C42.7178 54 44.5426 54.9476 45.7157 54.4459C45.7809 54.4459 44.2819 55.951 42.7178 54Z" fill="#BC7646"/>
<path d="M42.1931 55C42.1931 55 43.0383 59.7032 42.5832 60.431C42.1281 61.1589 41.673 61.1589 40.8928 60.599C40.1127 60.0391 42.1931 55 42.1931 55Z" fill="#BC7646"/>
<path d="M58.2886 32.4227L58.5636 32.0052L58.197 31.7637L57.9101 32.0959L58.2886 32.4227ZM65.0289 36.8629L64.7539 37.2805L65.1426 37.5366L65.4258 37.1671L65.0289 36.8629ZM76.6831 22.2374C76.6469 21.9636 76.3956 21.771 76.1218 21.8072L71.6607 22.3973C71.3869 22.4335 71.1944 22.6847 71.2306 22.9585C71.2668 23.2323 71.5181 23.4248 71.7918 23.3886L75.7573 22.8642L76.2817 26.8296C76.318 27.1034 76.5692 27.296 76.843 27.2598C77.1167 27.2235 77.3093 26.9723 77.2731 26.6985L76.6831 22.2374ZM50.4665 42.2466L58.667 32.7495L57.9101 32.0959L49.7096 41.5931L50.4665 42.2466ZM58.0135 32.8403L64.7539 37.2805L65.304 36.4454L58.5636 32.0052L58.0135 32.8403ZM65.4258 37.1671L76.5843 22.6071L75.7905 21.9988L64.6321 36.5588L65.4258 37.1671Z" fill="#EC1455"/>
<path d="M48.2705 32.4758L47.594 32.59L47.1637 30.0406C46.9556 30.3134 46.6931 30.5335 46.3764 30.7008L46.2728 30.087C46.4396 29.9994 46.613 29.8579 46.7929 29.6625C46.9726 29.4654 47.0828 29.2529 47.1235 29.0248L47.6724 28.9322L48.2705 32.4758ZM50.8883 32.034L50.2119 32.1482L49.7816 29.5988C49.5734 29.8716 49.311 30.0917 48.9943 30.259L48.8907 29.6451C49.0574 29.5576 49.2308 29.4161 49.4108 29.2206C49.5904 29.0236 49.7006 28.8111 49.7414 28.583L50.2903 28.4904L50.8883 32.034Z" fill="#EC1455"/>
<path d="M46.7724 23.6013L46.096 23.7155L45.6657 21.1661C45.4575 21.4389 45.1951 21.659 44.8784 21.8263L44.7748 21.2125C44.9415 21.1249 45.1149 20.9834 45.2949 20.788C45.4745 20.5909 45.5847 20.3784 45.6255 20.1503L46.1744 20.0577L46.7724 23.6013ZM50.1124 22.3914L50.2184 23.0197L47.8472 23.4199C47.8328 23.1781 47.8719 22.9404 47.9645 22.7069C48.0569 22.4717 48.2628 22.1465 48.5822 21.7311C48.8392 21.3955 48.9937 21.1714 49.0456 21.0586C49.1151 20.9033 49.1384 20.7574 49.1154 20.621C49.0899 20.4702 49.0295 20.3615 48.9341 20.2951C48.84 20.2268 48.7216 20.2047 48.5787 20.2288C48.4375 20.2526 48.3323 20.3141 48.2632 20.4132C48.1941 20.5124 48.1698 20.6617 48.1903 20.8613L47.5049 20.9077C47.4822 20.5286 47.563 20.2401 47.7475 20.0422C47.932 19.8444 48.1832 19.7186 48.5009 19.665C48.8492 19.6062 49.1387 19.6539 49.3694 19.8081C49.6001 19.9623 49.739 20.179 49.7861 20.4583C49.8129 20.6172 49.8096 20.7737 49.7762 20.9279C49.7442 21.0802 49.6796 21.2455 49.5826 21.4236C49.5184 21.5417 49.396 21.7167 49.2156 21.9485C49.0352 22.1803 48.9215 22.3332 48.8746 22.4072C48.8293 22.4809 48.7941 22.5512 48.7691 22.6181L50.1124 22.3914Z" fill="#EC1455"/>
<path fill-rule="evenodd" clip-rule="evenodd" d="M71 59C76.5229 59 81 54.5228 81 49C81 43.4772 76.5229 39 71 39C65.4772 39 61 43.4772 61 49C61 54.5228 65.4772 59 71 59ZM71 53C73.2091 53 75 51.2092 75 49C75 46.7908 73.2091 45 71 45C68.7909 45 67 46.7908 67 49C67 51.2092 68.7909 53 71 53Z" fill="#DAE0E7"/>
<rect x="68" y="37" width="6" height="5" rx="1" fill="#DAE0E7"/>
<rect x="68" y="56" width="6" height="5" rx="1" fill="#DAE0E7"/>
<rect x="83" y="46" width="6" height="5" rx="1" transform="rotate(90 83 46)" fill="#DAE0E7"/>
<rect x="64" y="46" width="6" height="5" rx="1" transform="rotate(90 64 46)" fill="#DAE0E7"/>
<rect x="81.6064" y="55.364" width="6" height="5" rx="1" transform="rotate(135 81.6064 55.364)" fill="#DAE0E7"/>
<rect x="68.1714" y="41.929" width="6" height="5" rx="1" transform="rotate(135 68.1714 41.929)" fill="#DAE0E7"/>
<rect x="77.3638" y="38.3932" width="6" height="5" rx="1" transform="rotate(45 77.3638 38.3932)" fill="#DAE0E7"/>
<rect x="63.9287" y="51.8283" width="6" height="5" rx="1" transform="rotate(45 63.9287 51.8283)" fill="#DAE0E7"/>
<path fill-rule="evenodd" clip-rule="evenodd" d="M53.9998 63.8333C57.2215 63.8333 59.8332 61.2217 59.8332 58C59.8332 54.7783 57.2215 52.1667 53.9998 52.1667C50.7782 52.1667 48.1665 54.7783 48.1665 58C48.1665 61.2217 50.7782 63.8333 53.9998 63.8333ZM54 60.3333C55.2887 60.3333 56.3333 59.2887 56.3333 58C56.3333 56.7113 55.2887 55.6667 54 55.6667C52.7113 55.6667 51.6667 56.7113 51.6667 58C51.6667 59.2887 52.7113 60.3333 54 60.3333Z" fill="#B6CBE4"/>
<rect x="52.25" y="51" width="3.5" height="2.91667" rx="1" fill="#B6CBE4"/>
<rect x="52.25" y="62.0833" width="3.5" height="2.91667" rx="1" fill="#B6CBE4"/>
<rect x="61" y="56.25" width="3.5" height="2.91667" rx="1" transform="rotate(90 61 56.25)" fill="#B6CBE4"/>
<rect x="49.9165" y="56.25" width="3.5" height="2.91667" rx="1" transform="rotate(90 49.9165 56.25)" fill="#B6CBE4"/>
<rect x="60.187" y="61.7123" width="3.5" height="2.91667" rx="1" transform="rotate(135 60.187 61.7123)" fill="#B6CBE4"/>
<rect x="52.3501" y="53.8752" width="3.5" height="2.91667" rx="1" transform="rotate(135 52.3501 53.8752)" fill="#B6CBE4"/>
<rect x="57.7124" y="51.8127" width="3.5" height="2.91667" rx="1" transform="rotate(45 57.7124 51.8127)" fill="#B6CBE4"/>
<rect x="49.875" y="59.6498" width="3.5" height="2.91667" rx="1" transform="rotate(45 49.875 59.6498)" fill="#B6CBE4"/>
<defs>
<linearGradient id="paint0_linear" x1="25.9066" y1="50.9377" x2="-0.463955" y2="87.1843" gradientUnits="userSpaceOnUse">
<stop stop-color="#410F0B"/>
<stop offset="0.7628" stop-color="#4D190B"/>
</linearGradient>
</defs>
</svg>
