<svg width="230" height="156" viewBox="0 0 230 156" fill="none" xmlns="http://www.w3.org/2000/svg">
<path d="M108.702 112.6C108.702 112.6 125.502 42.2 144.702 31.9C163.902 21.6 163.902 21.6 163.902 21.6L158.202 48.9L170.402 17.7C170.402 17.7 191.002 10.7 210.002 5.29999C229.002 -1.23978e-05 229.002 0 229.002 0C229.002 0 200.902 51.5 191.502 63.8C182.202 76 160.302 75.1 160.302 75.1L182.202 76C182.202 76 151.902 129.6 137.402 139C122.902 148.4 104.202 141.1 104.202 141.1L108.702 112.6Z" fill="url(#paint0_linear)"/>
<path d="M94.0021 155C93.6021 152.1 150.002 42.2999 222.302 3.19995" stroke="url(#paint1_linear)" stroke-width="0.5" stroke-miterlimit="10"/>
<circle cx="92.5" cy="83.5" r="69.5" fill="#FFCD6A"/>
<rect y="44.4894" width="84.927" height="113.236" rx="6" transform="rotate(-11.8842 0 44.4894)" fill="#347FAA"/>
<rect x="4.73779" y="47.58" width="77" height="98" rx="6" transform="rotate(-11.8842 4.73779 47.58)" fill="#EBF4FF"/>
<rect x="11.0723" y="53.4001" width="67" height="38" rx="6" transform="rotate(-11.8842 11.0723 53.4001)" fill="#3D6A9E"/>
<rect x="21.9614" y="102.715" width="10" height="10" rx="2.5" transform="rotate(-11.8842 21.9614 102.715)" stroke="#5194A6"/>
<rect x="27.0888" y="127.079" width="10" height="10" rx="2.5" transform="rotate(-11.8842 27.0888 127.079)" stroke="#5194A6"/>
<rect x="66.4375" y="119.82" width="10" height="10" rx="2.5" transform="rotate(-11.8842 66.4375 119.82)" stroke="#5194A6"/>
<path d="M38.1025 102.849L36.332 102.9C36.3792 102.173 36.6022 101.595 37.001 101.166C37.3999 100.738 38.0608 100.426 38.984 100.232C39.8224 100.056 40.4678 100.025 40.9204 100.139C41.3719 100.249 41.7126 100.44 41.9424 100.713C42.1756 100.981 42.3782 101.523 42.5499 102.339L42.9916 104.537C43.123 105.162 43.2491 105.617 43.37 105.904C43.4943 106.185 43.6747 106.478 43.911 106.782L42.0514 107.173C41.976 107.059 41.8769 106.886 41.7539 106.656C41.6992 106.551 41.6614 106.482 41.6406 106.449C41.3852 106.829 41.091 107.135 40.7582 107.368C40.4254 107.601 40.0516 107.762 39.6368 107.849C38.9054 108.003 38.2862 107.926 37.779 107.618C37.2762 107.309 36.9611 106.852 36.8334 106.245C36.749 105.844 36.7698 105.467 36.8958 105.115C37.021 104.758 37.2379 104.46 37.5465 104.223C37.8587 103.98 38.3272 103.728 38.952 103.466C39.7959 103.116 40.3722 102.834 40.6811 102.62L40.6417 102.433C40.5657 102.072 40.4225 101.834 40.2122 101.72C40.001 101.602 39.6479 101.594 39.1529 101.699C38.8184 101.769 38.5716 101.891 38.4124 102.064C38.2523 102.233 38.149 102.494 38.1025 102.849ZM40.9387 103.845C40.7148 103.976 40.3537 104.152 39.8554 104.373C39.3571 104.594 39.0389 104.775 38.9009 104.916C38.6922 105.142 38.616 105.388 38.6723 105.656C38.7277 105.919 38.8737 106.126 39.1102 106.276C39.3468 106.427 39.6167 106.47 39.92 106.406C40.2589 106.335 40.5588 106.155 40.8196 105.868C41.0114 105.65 41.1171 105.411 41.1368 105.151C41.1521 104.98 41.1124 104.67 41.0176 104.219L40.9387 103.845ZM45.4476 109.469C45.6507 108.597 45.7835 107.934 45.8459 107.478C45.9084 107.023 45.9461 106.505 45.9591 105.925C45.972 105.344 45.9576 104.8 45.9159 104.292C45.8732 103.779 45.797 103.262 45.6872 102.74C45.4638 101.679 45.1389 100.7 44.7125 99.802C44.2852 98.9 43.6238 97.8377 42.7285 96.615L44.0062 96.3461C44.8814 97.1632 45.6171 98.0702 46.2134 99.067C46.8142 100.063 47.231 101.114 47.4637 102.22C47.6599 103.152 47.7229 104.182 47.6529 105.31C47.57 106.575 47.2674 107.871 46.7453 109.196L45.4476 109.469Z" fill="#5194A6"/>
<path d="M78.5475 100.515L76.4837 90.708L78.3634 90.3124L79.1067 93.8444C79.5476 93.0624 80.1649 92.5878 80.9587 92.4208C81.8239 92.2387 82.6058 92.4025 83.3045 92.9121C84.0023 93.4173 84.4745 94.2563 84.7214 95.4292C84.9766 96.6422 84.8834 97.6375 84.4416 98.415C84.0043 99.1917 83.3731 99.6668 82.5481 99.8404C82.1422 99.9258 81.7198 99.9099 81.2806 99.7928C80.845 99.6702 80.4427 99.4405 80.0738 99.1037L80.2934 100.147L78.5475 100.515ZM79.6339 96.416C79.7888 97.1518 80.0192 97.6715 80.3252 97.975C80.7559 98.4059 81.2411 98.5646 81.7807 98.4511C82.1954 98.3638 82.5106 98.1135 82.7264 97.7002C82.9456 97.2815 82.975 96.6908 82.8145 95.9282C82.6437 95.1166 82.3736 94.5634 82.0042 94.2685C81.6338 93.9692 81.219 93.8679 80.7597 93.9646C80.3092 94.0594 79.9717 94.3144 79.7471 94.7296C79.5215 95.1403 79.4837 95.7024 79.6339 96.416ZM87.0878 101.728C87.2909 100.856 87.4237 100.193 87.4862 99.7373C87.5487 99.2817 87.5864 98.7638 87.5993 98.1836C87.6123 97.6034 87.5979 97.0592 87.5561 96.5511C87.5135 96.0384 87.4372 95.5213 87.3274 94.9995C87.1041 93.9381 86.7792 92.9586 86.3528 92.061C85.9254 91.159 85.2641 90.0966 84.3688 88.874L85.6464 88.6051C86.5216 89.4222 87.2574 90.3292 87.8537 91.326C88.4545 92.322 88.8713 93.3729 89.104 94.4789C89.3001 95.411 89.3632 96.4409 89.2932 97.5687C89.2102 98.8342 88.9077 100.13 88.3856 101.455L87.0878 101.728Z" fill="#FF2E6D"/>
<path d="M48.1452 126.213L46.3626 126.937C46.2223 126.58 46.0209 126.332 45.7585 126.191C45.5006 126.05 45.1954 126.016 44.8431 126.091C44.3749 126.189 44.0345 126.431 43.8221 126.815C43.6132 127.195 43.5885 127.763 43.748 128.521C43.9254 129.364 44.1912 129.93 44.5453 130.219C44.9039 130.507 45.3218 130.6 45.799 130.5C46.1558 130.425 46.4268 130.263 46.612 130.014C46.7962 129.761 46.8831 129.378 46.8726 128.863L48.785 128.789C48.7716 129.676 48.5383 130.394 48.0853 130.941C47.6323 131.488 46.9486 131.858 46.0344 132.05C44.9953 132.269 44.0969 132.116 43.339 131.59C42.5856 131.064 42.0869 130.222 41.8429 129.062C41.5961 127.889 41.7141 126.912 42.197 126.13C42.6789 125.344 43.4483 124.84 44.5053 124.618C45.3704 124.436 46.0966 124.478 46.6838 124.746C47.2746 125.008 47.7617 125.497 48.1452 126.213ZM50.7147 133.908C50.9178 133.037 51.0506 132.373 51.113 131.917C51.1755 131.462 51.2132 130.944 51.2262 130.364C51.2391 129.783 51.2247 129.239 51.183 128.731C51.1403 128.219 51.0641 127.701 50.9543 127.18C50.7309 126.118 50.406 125.139 49.9796 124.241C49.5523 123.339 48.8909 122.277 47.9956 121.054L49.2733 120.785C50.1484 121.602 50.8842 122.509 51.4805 123.506C52.0813 124.502 52.4981 125.553 52.7308 126.659C52.927 127.591 52.99 128.621 52.92 129.749C52.8371 131.014 52.5345 132.31 52.0124 133.635L50.7147 133.908Z" fill="#5194A6"/>
<path d="M88.9826 123.866L87.2366 124.234L87.017 123.19C86.8126 123.657 86.533 124.032 86.1783 124.317C85.8272 124.595 85.4509 124.777 85.0495 124.861C84.2334 125.033 83.4643 124.853 82.7421 124.32C82.0235 123.782 81.5403 122.924 81.2925 121.747C81.0391 120.543 81.1299 119.569 81.5649 118.826C81.9989 118.078 82.6485 117.613 83.5137 117.431C84.3075 117.264 85.0637 117.449 85.7824 117.987L85.0391 114.455L86.9188 114.059L88.9826 123.866ZM83.1856 121.216C83.3452 121.974 83.5654 122.501 83.8463 122.795C84.2528 123.222 84.7281 123.378 85.2722 123.264C85.7048 123.173 86.0342 122.912 86.2605 122.483C86.4858 122.049 86.5216 121.466 86.3677 120.735C86.1959 119.919 85.9253 119.363 85.5559 119.069C85.1856 118.769 84.7707 118.668 84.3114 118.765C83.8654 118.858 83.5283 119.116 83.3002 119.536C83.0755 119.951 83.0373 120.511 83.1856 121.216ZM90.9272 126.468C91.1303 125.596 91.2631 124.932 91.3255 124.477C91.388 124.021 91.4257 123.503 91.4387 122.923C91.4516 122.343 91.4372 121.799 91.3955 121.291C91.3528 120.778 91.2766 120.261 91.1668 119.739C90.9434 118.678 90.6185 117.698 90.1921 116.801C89.7648 115.899 89.1034 114.836 88.2081 113.613L89.4858 113.345C90.361 114.162 91.0967 115.069 91.6931 116.066C92.2938 117.061 92.7106 118.112 92.9434 119.218C93.1395 120.15 93.2026 121.18 93.1325 122.308C93.0496 123.574 92.7471 124.869 92.2249 126.195L90.9272 126.468Z" fill="#5194A6"/>
<rect x="61.1328" y="94.6143" width="10" height="10" rx="2.5" transform="rotate(-11.8842 61.1328 94.6143)" stroke="#5194A6"/>
<path d="M65.0244 97.9837L67.9857 99.9153L73.0078 92.216" stroke="#FF2E6D"/>
<circle cx="33.3717" cy="67.1016" r="12" transform="rotate(-11.8842 33.3717 67.1016)" fill="#EC1455"/>
<rect x="41.9219" y="59.1709" width="25" height="21" transform="rotate(-11.8842 41.9219 59.1709)" fill="#FFD277"/>
<circle cx="64.1136" cy="140.341" r="3" transform="rotate(-11.8842 64.1136 140.341)" fill="#EBF4FF"/>
<defs>
<linearGradient id="paint0_linear" x1="104.149" y1="71.7811" x2="228.9" y2="71.7811" gradientUnits="userSpaceOnUse">
<stop stop-color="#ED588D"/>
<stop offset="1" stop-color="#F58279"/>
</linearGradient>
<linearGradient id="paint1_linear" x1="93.7373" y1="78.9856" x2="222.444" y2="78.9856" gradientUnits="userSpaceOnUse">
<stop stop-color="#D85F4A"/>
<stop offset="1" stop-color="#4F1D25"/>
</linearGradient>
</defs>
</svg>
