<svg width="267" height="239" viewBox="0 0 267 239" fill="none" xmlns="http://www.w3.org/2000/svg">
<path d="M109.083 192.683C110.583 189.729 159.094 134.339 159.094 134.339L141.9 113.656L162.997 129.877L165.365 127.662L142.547 106.146L168.415 124.032L174.238 117.024L149.371 93.578L180.734 107.818L183.81 104.111L167.69 96.2296L185.731 101.565L200.427 83.9201L203.468 79.5056L188.424 65.3077L207.352 75.9062L251.426 35.3944C251.426 35.3944 170.961 51.0484 132.82 89.892C94.6788 128.736 84.4184 200.42 84.4184 200.42L92.5302 208.115L109.083 192.683Z" fill="url(#paint0_linear)"/>
<path d="M87.123 190.24C87.123 190.24 118.655 126.025 196.168 124.828L186.845 139.167L212.417 126.886C212.417 126.886 255.214 135.954 266.36 140.367C266.36 140.367 224.278 158.761 220.61 159.444L202.024 155.848L214.876 162.487C214.876 162.487 169.866 195.318 87.123 190.24Z" fill="url(#paint1_linear)"/>
<path d="M85.0003 192.495C87.1231 190.24 166.896 135.179 262.302 141.199L266.36 140.367" stroke="url(#paint2_linear)" stroke-width="0.5" stroke-miterlimit="10"/>
<circle cx="92.5" cy="151.5" r="69.5" fill="#EF7B48"/>
<path d="M117.605 114.16L62.4337 107.98L109.793 111.441L144.012 117.119L117.605 114.16Z" fill="#74BEC9"/>
<rect x="62.2744" y="117.189" width="79.7831" height="57.5181" transform="rotate(6.34613 62.2744 117.189)" fill="#74BEC9"/>
<rect x="62.2744" y="117.189" width="53.8072" height="57.5181" transform="rotate(6.34613 62.2744 117.189)" fill="#5194A6"/>
<rect x="62.3779" y="107.866" width="81.6386" height="9.27711" transform="rotate(6.34613 62.3779 107.866)" fill="#5194A6"/>
<rect x="62.3779" y="107.866" width="54.7349" height="9.27711" transform="rotate(6.34613 62.3779 107.866)" fill="#478899"/>
<rect x="83.5845" y="110.225" width="8.3494" height="66.7952" transform="rotate(6.34613 83.5845 110.225)" fill="#EC1455"/>
<rect x="129.686" y="115.352" width="4.63855" height="66.7952" transform="rotate(6.34613 129.686 115.352)" fill="#ED588D"/>
<path fill-rule="evenodd" clip-rule="evenodd" d="M117.297 103.706L103.884 109.582L92.0889 100.903L91.0983 109.81L103.332 111.17L103.726 110.998L104.073 111.253L116.306 112.613L117.297 103.706Z" fill="#EC1455"/>
<rect x="1.17383" y="144.737" width="50" height="80" rx="3" transform="rotate(-26.0466 1.17383 144.737)" fill="#410F0B"/>
<rect x="6.86182" y="158.653" width="2" height="10" rx="1" transform="rotate(-26.0466 6.86182 158.653)" fill="#410F0B"/>
<rect x="50.4663" y="134.002" width="2" height="10" rx="1" transform="rotate(-26.0466 50.4663 134.002)" fill="#410F0B"/>
<rect x="55.7358" y="144.784" width="2" height="10" rx="1" transform="rotate(-26.0466 55.7358 144.784)" fill="#410F0B"/>
<rect x="7.42236" y="146.135" width="40" height="67" transform="rotate(-26.0466 7.42236 146.135)" fill="#FFCD6A"/>
<circle cx="56.338" cy="201.811" r="2.5" transform="rotate(-26.0466 56.338 201.811)" fill="#E5B35A"/>
<path d="M77.355 206.231L87.8066 203.819L80.5709 197.588" stroke="black" stroke-width="4" stroke-linejoin="round"/>
<path d="M103.082 206.231L92.6304 203.819L99.8661 197.588" stroke="black" stroke-width="4" stroke-linejoin="round"/>
<rect x="60.0698" y="186.935" width="4.01987" height="10.0497" fill="#C4C4C4"/>
<path d="M59.2654 189.493C59.0127 189.604 58.8979 189.899 59.0091 190.152C59.1204 190.404 59.4154 190.519 59.6682 190.408L59.2654 189.493ZM64.693 188.197C64.9458 188.086 65.0605 187.791 64.9493 187.538C64.8381 187.285 64.543 187.17 64.2903 187.282L64.693 188.197ZM59.2654 191.302C59.0127 191.413 58.8979 191.708 59.0091 191.961C59.1204 192.213 59.4154 192.328 59.6682 192.217L59.2654 191.302ZM64.693 190.006C64.9458 189.895 65.0605 189.6 64.9493 189.347C64.8381 189.094 64.543 188.979 64.2903 189.091L64.693 190.006ZM59.2654 193.111C59.0127 193.222 58.8979 193.517 59.0091 193.77C59.1204 194.022 59.4154 194.137 59.6682 194.026L59.2654 193.111ZM64.693 191.815C64.9458 191.704 65.0605 191.409 64.9493 191.156C64.8381 190.903 64.543 190.788 64.2903 190.9L64.693 191.815ZM59.2654 194.919C59.0127 195.031 58.8979 195.326 59.0091 195.578C59.1204 195.831 59.4154 195.946 59.6682 195.835L59.2654 194.919ZM64.693 193.624C64.9458 193.513 65.0605 193.218 64.9493 192.965C64.8381 192.712 64.543 192.597 64.2903 192.709L64.693 193.624ZM59.2654 196.929C59.0127 197.041 58.8979 197.336 59.0091 197.588C59.1204 197.841 59.4154 197.956 59.6682 197.845L59.2654 196.929ZM64.693 195.634C64.9458 195.523 65.0605 195.228 64.9493 194.975C64.8381 194.722 64.543 194.607 64.2903 194.718L64.693 195.634ZM59.2654 187.684C59.0127 187.795 58.8979 188.09 59.0091 188.343C59.1204 188.595 59.4154 188.71 59.6682 188.599L59.2654 187.684ZM64.693 186.388C64.9458 186.277 65.0605 185.982 64.9493 185.729C64.8381 185.476 64.543 185.362 64.2903 185.473L64.693 186.388ZM59.6682 190.408L64.693 188.197L64.2903 187.282L59.2654 189.493L59.6682 190.408ZM59.6682 192.217L64.693 190.006L64.2903 189.091L59.2654 191.302L59.6682 192.217ZM59.6682 194.026L64.693 191.815L64.2903 190.9L59.2654 193.111L59.6682 194.026ZM59.6682 195.835L64.693 193.624L64.2903 192.709L59.2654 194.919L59.6682 195.835ZM59.6682 197.845L64.693 195.634L64.2903 194.718L59.2654 196.929L59.6682 197.845ZM59.6682 188.599L64.693 186.388L64.2903 185.473L59.2654 187.684L59.6682 188.599Z" fill="#DAE0E7"/>
<rect x="113.936" y="186.935" width="4.01987" height="10.0497" fill="#C4C4C4"/>
<path d="M113.132 189.493C112.879 189.604 112.764 189.899 112.875 190.152C112.987 190.404 113.282 190.519 113.534 190.408L113.132 189.493ZM118.559 188.197C118.812 188.086 118.927 187.791 118.816 187.538C118.704 187.285 118.409 187.17 118.156 187.282L118.559 188.197ZM113.132 191.302C112.879 191.413 112.764 191.708 112.875 191.961C112.987 192.213 113.282 192.328 113.534 192.217L113.132 191.302ZM118.559 190.006C118.812 189.895 118.927 189.6 118.816 189.347C118.704 189.094 118.409 188.979 118.156 189.091L118.559 190.006ZM113.132 193.111C112.879 193.222 112.764 193.517 112.875 193.77C112.987 194.022 113.282 194.137 113.534 194.026L113.132 193.111ZM118.559 191.815C118.812 191.704 118.927 191.409 118.816 191.156C118.704 190.903 118.409 190.788 118.156 190.9L118.559 191.815ZM113.132 194.919C112.879 195.031 112.764 195.326 112.875 195.578C112.987 195.831 113.282 195.946 113.534 195.835L113.132 194.919ZM118.559 193.624C118.812 193.513 118.927 193.218 118.816 192.965C118.704 192.712 118.409 192.597 118.156 192.709L118.559 193.624ZM113.132 196.929C112.879 197.041 112.764 197.336 112.875 197.588C112.987 197.841 113.282 197.956 113.534 197.845L113.132 196.929ZM118.559 195.634C118.812 195.523 118.927 195.228 118.816 194.975C118.704 194.722 118.409 194.607 118.156 194.718L118.559 195.634ZM113.132 187.684C112.879 187.795 112.764 188.09 112.875 188.343C112.987 188.595 113.282 188.71 113.534 188.599L113.132 187.684ZM118.559 186.388C118.812 186.277 118.927 185.982 118.816 185.729C118.704 185.476 118.409 185.362 118.156 185.473L118.559 186.388ZM113.534 190.408L118.559 188.197L118.156 187.282L113.132 189.493L113.534 190.408ZM113.534 192.217L118.559 190.006L118.156 189.091L113.132 191.302L113.534 192.217ZM113.534 194.026L118.559 191.815L118.156 190.9L113.132 193.111L113.534 194.026ZM113.534 195.835L118.559 193.624L118.156 192.709L113.132 194.919L113.534 195.835ZM113.534 197.845L118.559 195.634L118.156 194.718L113.132 196.929L113.534 197.845ZM113.534 188.599L118.559 186.388L118.156 185.473L113.132 187.684L113.534 188.599Z" fill="#DAE0E7"/>
<rect x="86.1987" y="197.387" width="7.23576" height="7.23576" rx="3" fill="#276E97"/>
<path d="M62.2807 187.337C54.4017 187.337 52.968 194.841 53.236 198.593H52.834H52.03C50.824 198.593 48.4121 194.171 48.4121 191.96C48.4121 189.749 50.221 184.724 52.03 183.318C53.4771 182.192 66.3005 180.437 72.5313 179.7C75.1442 177.958 81.2142 174.112 84.5909 172.665C88.8118 170.856 116.951 173.268 118.358 173.67C119.765 174.072 122.378 176.082 124.991 178.695C127.604 181.308 128.005 186.131 128.407 187.337C128.809 188.543 130.618 192.161 130.618 194.171C130.618 195.779 126.867 197.253 124.991 197.789C124.455 194.573 121.815 188.141 115.544 188.141C109.273 188.141 106.365 195.109 105.695 198.593H71.3254C71.5933 194.841 70.1596 187.337 62.2807 187.337Z" fill="#CA0D46"/>
<path d="M87.4047 174.273C85.3144 174.434 78.762 178.762 75.7471 180.906H121.373C121.976 180.906 116.549 175.278 115.343 174.876C114.137 174.474 90.0176 174.072 87.4047 174.273Z" fill="#EBF4FF"/>
<circle cx="63.0844" cy="214.07" r="17.0844" fill="black"/>
<circle cx="63.0844" cy="214.07" r="17.0844" fill="black"/>
<circle cx="63.0844" cy="214.07" r="17.0844" fill="black"/>
<circle cx="63.0844" cy="214.07" r="17.0844" fill="black"/>
<circle cx="63.0844" cy="214.07" r="17.0844" fill="black"/>
<circle cx="116.951" cy="214.07" r="17.0844" fill="black"/>
<circle cx="116.951" cy="214.07" r="17.0844" fill="black"/>
<circle cx="116.951" cy="214.07" r="17.0844" fill="black"/>
<circle cx="116.951" cy="214.07" r="17.0844" fill="black"/>
<circle cx="116.951" cy="214.07" r="17.0844" fill="black"/>
<circle cx="63.0845" cy="214.069" r="8.24073" fill="#C4C4C4"/>
<circle cx="116.951" cy="214.069" r="8.24073" fill="#C4C4C4"/>
<circle cx="87.0025" cy="203.417" r="1.60795" fill="#053A78"/>
<circle cx="92.6304" cy="203.417" r="1.60795" fill="#053A78"/>
<defs>
<linearGradient id="paint0_linear" x1="93.6229" y1="198.477" x2="204.088" y2="31.5841" gradientUnits="userSpaceOnUse">
<stop stop-color="#ED588D"/>
<stop offset="1" stop-color="#F58279"/>
</linearGradient>
<linearGradient id="paint1_linear" x1="219.184" y1="106.069" x2="133.487" y2="223.98" gradientUnits="userSpaceOnUse">
<stop offset="0.177" stop-color="#2CCD90"/>
<stop offset="1" stop-color="#005E63"/>
</linearGradient>
<linearGradient id="paint2_linear" x1="189.508" y1="118.109" x2="161.807" y2="214.653" gradientUnits="userSpaceOnUse">
<stop stop-color="#D85F4A"/>
<stop offset="1" stop-color="#4F1D25"/>
</linearGradient>
</defs>
</svg>
