<svg width="260" height="187" viewBox="0 0 260 187" fill="none" xmlns="http://www.w3.org/2000/svg">
<path d="M131 99.4C131 99.4 163.3 97.1 175 110C186.7 122.9 192.5 134 192.5 134C192.5 134 156.9 115 144 107.2C131 99.4 131 99.4 131 99.4Z" fill="#FFCD6A"/>
<path d="M137.4 93.3C137.4 93.3 158 75.5 180.8 77.8C203.6 80.2 218 88.3 218 88.3C218 88.3 184.2 104.5 176.2 100C168.2 95.5 137.4 93.3 137.4 93.3Z" fill="#FFCD6A"/>
<path d="M159.9 71.6C159.9 71.6 181.6 60.2 204.2 59.2C226.8 58.3 235.8 59.3 235.8 59.3C235.8 59.3 190.7 80.8 175.8 80.5C160.9 80.3 159.9 71.6 159.9 71.6Z" fill="#FFCD6A"/>
<path d="M130.299 90.4C131.099 93.3 124.199 54.3001 98.5995 54.0001C72.9995 53.8001 72.9995 53.8 72.9995 53.8C72.9995 53.8 93.2995 82.3001 105.599 86.0001C117.899 89.7001 128.099 104.5 128.099 104.5L130.299 90.4Z" fill="#FFCD6A"/>
<path d="M140.3 92.5001C140.3 92.5001 131.5 80.4001 129.2 69.5001C126.8 58.6001 140.9 22.4 140.9 22.4C140.9 22.4 148.5 52.1001 148.8 64.0001C149.1 75.9001 140.3 92.5001 140.3 92.5001Z" fill="#FFCD6A"/>
<path d="M162.7 65.2C162.7 65.2 146.2 54.7 158.1 28.4C170 2.10002 173.8 3.50002 173.8 3.50002C173.8 3.50002 169.2 51.1 167.8 58.7C166.4 66.3 163.5 68.1 163.5 68.1L162.7 65.2Z" fill="#FFCD6A"/>
<path d="M170 63.1C169.6 60.4 183.6 29.4 220.2 15.1C256.8 0.800006 259.7 0 259.7 0C259.7 0 200.1 46.9 192 51.9C184 57 170 63.1 170 63.1Z" fill="#FFCD6A"/>
<path d="M172.4 60.6C172.4 60.6 130.4 88.7 116 123.2L116.2 123.9C116.2 123.9 136.3 88.5 173.6 62.1L172.4 60.6Z" fill="#FFCD6A"/>
<circle cx="103.5" cy="112.5" r="69.5" fill="#377093"/>
<path d="M63.8716 98.8718C75.5092 87.2342 75.5092 68.3659 63.8716 56.7283C52.234 45.0906 33.3657 45.0906 21.728 56.7283C10.0904 68.3659 10.0904 87.2342 21.728 98.8718C33.3657 110.509 52.234 110.509 63.8716 98.8718Z" fill="url(#paint0_linear)"/>
<path d="M59.4713 94.4713C68.6785 85.264 68.6785 70.3361 59.4713 61.1288C50.264 51.9215 35.336 51.9215 26.1288 61.1288C16.9215 70.3361 16.9215 85.264 26.1288 94.4713C35.336 103.679 50.264 103.679 59.4713 94.4713Z" fill="#E5B35A"/>
<path d="M38.1456 78.731C37.4686 77.5463 36.4531 77.2924 35.4376 77.0385C33.9143 76.7 33.9143 76.7 34.5913 75.346C34.8452 74.7536 35.0567 74.1189 35.0991 73.3996C35.0991 73.2303 35.0567 73.0188 34.8875 73.0188C34.6759 72.9765 34.6336 73.188 34.5913 73.315C34.5067 73.5688 34.5067 73.8227 34.422 74.0766C33.7027 77.5886 29.5984 78.2233 27.4828 76.6154C26.8057 76.1076 26.2134 75.5999 25.8325 74.7959C25.0709 73.0188 25.9172 71.0724 27.9059 70.5223C28.6252 70.3108 28.8791 70.1415 28.8368 69.3376C28.7098 67.772 29.6407 66.5872 30.9947 66.1641C32.4334 65.741 33.9143 66.291 34.7182 67.6027C38.6533 74.1612 42.5884 80.6351 46.4389 87.1936C47.7929 89.4785 47.666 91.2133 46.3543 92.6942C45.0003 94.2175 43.0115 94.5983 41.319 93.7521C40.3882 93.2443 40.3035 92.9904 40.8536 92.1019C42.9269 88.5053 40.8536 84.3163 36.9608 84.1471C35.9876 84.1047 35.1414 84.3586 34.2951 84.8664C34.0835 84.9933 33.745 85.1626 33.9143 85.4164C34.0835 85.7549 34.3374 85.4164 34.5913 85.3318C37.2993 83.8932 40.5997 85.4164 41.1921 88.3783C41.5729 90.367 40.6843 91.848 39.288 93.1597C38.1456 94.2175 36.7069 94.6406 35.1414 94.0906C33.5335 93.4982 32.6026 92.3134 32.391 90.6632C32.3064 90.0708 32.1372 89.9862 31.5871 90.0285C28.0751 90.2401 25.9595 86.9397 27.6097 83.8509C27.9482 83.2585 27.8213 83.0469 27.2289 82.793C25.0709 81.9045 24.6055 79.1541 26.2134 77.5463C26.6365 77.1231 26.975 77.0385 27.5251 77.3347C28.7521 78.054 30.0638 78.2656 31.4601 77.8848C33.6181 77.2501 35.6914 77.2924 37.6378 78.5618C37.7224 78.6464 37.8494 78.6887 38.1456 78.731ZM50.374 62.7791C48.893 61.9751 47.3275 62.1021 46.2696 62.9906C45.508 63.6677 45.4657 64.0485 46.2696 64.6832C48.5545 66.5449 50.4586 68.7029 51.9819 71.2416C54.0975 74.7959 54.2668 78.3502 52.5742 82.0737C51.6011 84.2317 50.3317 86.1781 48.9777 88.1245C48.4276 88.9284 48.5122 89.2669 49.4854 89.4785C50.7125 89.7747 51.8972 89.69 53.1243 89.4785C56.594 88.8861 57.4402 87.786 56.9748 84.3586C56.7632 82.5392 57.0594 80.9736 57.9903 79.4503C58.8788 77.9694 59.4289 76.4038 59.6828 74.7113C59.979 72.1302 58.5404 70.0992 56.2555 70.0992C55.7477 70.0992 55.4092 69.8453 55.4092 69.2529C55.4515 68.449 55.0284 67.772 54.6476 67.1373C53.4628 65.4448 52.2781 63.7523 50.374 62.7791ZM47.4121 86.0511C47.8352 86.0511 48.1737 85.7972 48.4699 85.5857C51.1356 83.597 52.9127 78.1809 51.8549 75.0075C50.7125 71.5801 48.3006 69.3376 45.1272 67.9412C45.0849 67.8989 45.0003 67.9836 44.9156 68.0682C45.1695 68.4913 45.4657 68.9568 45.7196 69.3799C47.7083 72.9765 47.2851 75.7691 44.5771 78.2233C44.1117 78.6041 43.5616 78.8156 43.2231 79.3234C43.477 79.408 43.6039 79.535 43.477 79.8311C44.0271 80.7197 44.5348 81.6506 45.1272 82.5815C45.3811 82.5815 45.4234 82.7084 45.2964 82.92C45.8465 83.9778 46.4389 84.9933 47.1159 86.0088C47.2428 86.0511 47.3275 86.0511 47.4121 86.0511ZM36.3261 63.4561C34.549 64.3023 34.4644 64.8101 35.3106 66.5026C35.7337 67.3489 36.1146 67.3065 36.7069 66.7988C38.5264 65.3178 40.5151 65.1909 42.7154 65.8679C43.4347 66.0795 44.154 66.291 45.0426 66.5872C43.5616 63.1599 39.7112 61.8482 36.3261 63.4561ZM44.0694 68.7452C42.2076 66.5449 39.4996 66.291 37.1724 68.0259C36.58 68.449 36.58 68.8721 36.9608 69.3376C37.4686 70.0146 37.5955 69.2106 37.8494 69.0414C39.4996 67.7297 41.7422 67.9412 42.7577 69.6338C43.5193 70.9031 43.8155 72.2995 43.8155 73.8227C43.8155 74.1612 43.8155 74.5844 43.8578 74.8805C43.9001 75.2614 43.9424 75.7268 44.4502 75.8114C44.8733 75.896 45.0003 75.4306 45.2118 75.1344C46.2273 73.2727 45.8042 71.4955 44.831 69.6761C44.5771 69.4222 44.3656 69.0414 44.0694 68.7452ZM42.5038 77.8424C42.7577 77.6732 42.7577 77.4193 42.8 77.1231C42.8423 75.3037 42.8 73.4842 42.3769 71.7071C42.2076 71.0301 41.9114 70.48 41.5306 69.9299C40.9805 69.2106 40.092 68.9991 39.3303 69.2529C38.4418 69.5491 38.6533 70.3531 38.738 71.0301C38.7803 71.5801 38.9072 72.1302 39.2457 72.638C39.4996 72.638 39.5419 72.7649 39.415 72.9765C39.4996 73.0611 39.5419 73.188 39.5842 73.315C39.8381 73.1457 40.0497 73.2727 40.1766 73.4842C39.965 72.7649 39.7535 72.0456 39.5419 71.3263C39.4996 71.0301 39.4573 70.6493 39.7535 70.5223C40.1766 70.3531 40.3458 70.6916 40.5151 70.9455C41.1498 71.9187 41.0228 73.2303 40.2189 73.7804C40.1766 73.992 40.1766 74.1612 40.092 74.3305C40.642 75.2191 41.1498 76.1499 41.7422 77.0808C42.2499 77.1654 42.2922 77.6309 42.5038 77.8424ZM40.1766 73.5688C40.0496 73.3573 39.8381 73.2303 39.5842 73.3996C39.7535 73.7381 40.0073 74.0766 40.1766 74.4151C40.2189 74.2035 40.2189 74.0343 40.3035 73.865C40.2189 73.7804 40.1766 73.6535 40.1766 73.5688ZM42.5038 77.8424C42.2922 77.5463 42.2499 77.1654 41.8268 77.0808C42.0384 77.377 41.9537 77.9694 42.5038 77.8424ZM39.3303 73.0611C39.4573 72.8495 39.415 72.7226 39.1611 72.7226C39.2457 72.8072 39.288 72.9342 39.3303 73.0611Z" fill="#664407"/>
<path d="M38.3145 78.6463C37.6375 77.4615 36.622 77.2077 35.6065 76.9538C34.0832 76.6153 34.0832 76.6153 34.7602 75.2613C35.0141 74.6689 35.2257 74.0342 35.268 73.3149C35.268 73.1456 35.2257 72.9341 35.0564 72.9341C34.8449 72.8918 34.8026 73.1033 34.7602 73.2303C34.6756 73.4841 34.6756 73.738 34.591 73.9919C33.8717 77.5038 29.7673 78.1385 27.6517 76.5307C26.9747 76.0229 26.3823 75.5151 26.0015 74.7112C25.2399 72.9341 26.0861 70.9877 28.0748 70.4376C28.7941 70.226 29.048 70.0568 29.0057 69.2528C28.8788 67.6873 29.8096 66.5025 31.1637 66.0794C32.6023 65.6563 34.0832 66.2063 34.8872 67.518C38.8223 74.0765 42.7574 80.5504 46.6078 87.1089C47.9618 89.3937 47.8349 91.1286 46.5232 92.6095C45.1692 94.1328 43.1805 94.5136 41.488 93.6673C40.5571 93.1596 40.4725 92.9057 41.0225 92.0171C43.0959 88.4205 41.0225 84.2316 37.1298 84.0623C36.1566 84.02 35.3103 84.2739 34.464 84.7817C34.2525 84.9086 33.914 85.0778 34.0832 85.3317C34.2525 85.6702 34.5064 85.3317 34.7603 85.2471C37.4683 83.8085 40.7687 85.3317 41.361 88.2936C41.7419 90.2823 40.8533 91.7633 39.457 93.075C38.3145 94.1328 36.8759 94.5559 35.3103 94.0058C33.7024 93.4135 32.7715 92.2287 32.56 90.5785C32.4754 89.9861 32.3061 89.9015 31.756 89.9438C28.2441 90.1554 26.1284 86.855 27.7786 83.7661C28.1171 83.1738 27.9902 82.9622 27.3978 82.7083C25.2399 81.8198 24.7744 79.0694 26.3823 77.4615C26.8054 77.0384 27.1439 76.9538 27.694 77.25C28.9211 77.9693 30.2328 78.1808 31.6291 77.8C33.7871 77.1653 35.8604 77.2076 37.8068 78.477C37.8491 78.604 37.976 78.5617 38.3145 78.6463ZM50.5429 62.6944C49.062 61.8904 47.4964 62.0174 46.4386 62.9059C45.6769 63.5829 45.6346 63.9637 46.4386 64.5984C48.7235 66.4602 50.6275 68.6182 52.1508 71.1569C54.2664 74.7112 54.4357 78.2655 52.7432 81.989C51.77 84.147 50.5006 86.0934 49.1466 88.0397C48.5965 88.8437 48.6812 89.1822 49.6544 89.3938C50.8814 89.6899 52.0662 89.6053 53.2933 89.3937C56.7629 88.8014 57.6092 87.7012 57.1437 84.2739C56.9322 82.4544 57.2284 80.8889 58.1592 79.3656C59.0478 77.8847 59.5979 76.3191 59.8517 74.6266C60.1479 72.0455 58.7093 70.0145 56.4244 70.0145C55.9167 70.0145 55.5782 69.7606 55.5782 69.1682C55.6205 68.3643 55.1973 67.6873 54.8165 67.0526C53.5894 65.4024 52.4047 63.7099 50.5429 62.6944ZM47.5387 86.0087C47.9618 86.0087 48.3003 85.7548 48.5965 85.5433C51.2622 83.5546 53.0394 78.1385 51.9816 74.9651C50.8391 71.5377 48.4273 69.2952 45.2538 67.8988C45.2115 67.8565 45.1269 67.9411 45.0423 68.0258C45.2961 68.4489 45.5923 68.9143 45.8462 69.3375C47.8349 72.9341 47.4118 75.7267 44.7038 78.1808C44.2383 78.5617 43.6882 78.7732 43.3497 79.281C43.6036 79.3656 43.7306 79.4925 43.6036 79.7887C44.1537 80.6773 44.6614 81.6082 45.2538 82.5391C45.5077 82.5391 45.55 82.666 45.4231 82.8776C45.9731 83.9354 46.5655 84.9509 47.2425 85.9664C47.3695 85.9241 47.4964 85.9664 47.5387 86.0087ZM36.4104 63.3714C34.6333 64.2176 34.5487 64.7254 35.3949 66.4179C35.8181 67.2641 36.1989 67.2218 36.7913 66.7141C38.6107 65.2331 40.5994 65.1062 42.7997 65.7832C43.519 65.9948 44.2383 66.2063 45.1269 66.5025C43.6882 63.1175 39.7955 61.7635 36.4104 63.3714ZM44.2383 68.6605C42.3765 66.4602 39.6685 66.2063 37.3413 67.9411C36.749 68.3643 36.7489 68.7874 37.1298 69.2529C37.6375 69.9299 37.7645 69.1259 38.0183 68.9566C39.6685 67.645 41.9111 67.8565 42.9266 69.549C43.6882 70.8184 43.9844 72.2147 43.9844 73.738C43.9844 74.0765 43.9844 74.4996 44.0267 74.7958C44.0691 75.1766 44.1114 75.6421 44.6191 75.7267C45.0423 75.8113 45.1692 75.3459 45.3808 75.0497C46.3963 73.1879 45.9731 71.4108 45 69.5913C44.7461 69.3375 44.4922 68.999 44.2383 68.6605ZM42.6304 77.8C42.8843 77.6308 42.8843 77.3769 42.9266 77.0807C42.9689 75.2613 42.9266 73.4418 42.5035 71.6647C42.3342 70.9877 42.038 70.4376 41.6572 69.8875C41.1072 69.1682 40.2186 68.9567 39.457 69.2105C38.5684 69.5067 38.78 70.3107 38.8646 70.9877C38.9069 71.5377 39.0338 72.0878 39.3723 72.5956C39.6262 72.5956 39.6685 72.7225 39.5416 72.9341C39.6262 73.0187 39.6685 73.1456 39.7108 73.2726C39.9647 73.1033 40.1763 73.2302 40.3032 73.4418C40.0917 72.7225 39.8801 72.0032 39.6685 71.2839C39.6262 70.9877 39.5839 70.6069 39.8801 70.4799C40.3032 70.3107 40.4725 70.6492 40.6417 70.903C41.2764 71.8762 41.1495 73.1879 40.3455 73.738C40.3032 73.9496 40.3032 74.1188 40.2186 74.2881C40.7687 75.1766 41.2764 76.1075 41.8688 77.0384C42.3766 77.123 42.4189 77.5038 42.6304 77.8ZM40.3032 73.4418C40.1763 73.2302 39.9647 73.1033 39.7108 73.2726C39.8801 73.6111 40.134 73.9496 40.3032 74.2881C40.3455 74.0765 40.3455 73.9073 40.4302 73.738C40.3878 73.6957 40.3455 73.5687 40.3032 73.4418ZM42.6304 77.8C42.4189 77.5038 42.3766 77.123 41.9534 77.0384C42.165 77.3346 42.0804 77.8423 42.6304 77.8ZM39.4993 72.9764C39.6262 72.7648 39.5839 72.6379 39.33 72.6379C39.3723 72.7648 39.457 72.8494 39.4993 72.9764Z" fill="#FFD277"/>
<path d="M86.2 186.4C115.029 186.4 138.4 163.029 138.4 134.2C138.4 105.371 115.029 82 86.2 82C57.3707 82 34 105.371 34 134.2C34 163.029 57.3707 186.4 86.2 186.4Z" fill="url(#paint1_linear)"/>
<path d="M86.1997 175.499C109.008 175.499 127.498 157.009 127.498 134.2C127.498 111.391 109.008 92.9011 86.1997 92.9011C63.391 92.9011 44.9009 111.391 44.9009 134.2C44.9009 157.009 63.391 175.499 86.1997 175.499Z" fill="#E5B35A"/>
<path d="M79.2814 129.588C79.9103 127.282 78.967 125.71 78.0236 124.137C76.5561 121.831 76.5561 121.831 79.0718 120.993C80.12 120.574 81.1682 120.049 82.1116 119.211C82.3212 119.001 82.5309 118.687 82.3212 118.477C82.1116 118.163 81.7971 118.372 81.5875 118.477C81.1682 118.687 80.8537 119.001 80.4344 119.211C75.1935 122.67 69.3236 118.372 68.6947 113.76C68.4851 112.293 68.3802 110.93 68.9043 109.463C70.1622 106.318 73.6212 104.956 76.7658 106.737C77.9188 107.366 78.4429 107.471 79.3863 106.423C81.1682 104.327 83.7887 104.012 85.9899 105.165C88.2959 106.423 89.4489 108.939 88.82 111.559C85.5706 124.557 82.426 137.449 79.0718 150.342C77.9188 154.849 75.6128 156.841 72.1537 157.051C68.5899 157.26 65.6549 155.269 64.6067 152.124C64.0826 150.342 64.2923 149.923 66.0742 149.504C73.0971 147.617 75.7176 139.86 71.1055 134.829C69.9525 133.571 68.5899 132.837 66.9128 132.418C66.4935 132.313 65.8646 132.104 65.7598 132.628C65.5501 133.257 66.2838 133.152 66.7031 133.362C71.8393 134.934 74.0405 140.909 71.1055 145.311C69.114 148.246 66.179 148.98 62.8248 148.875C60.0995 148.77 57.7935 147.512 56.5357 144.892C55.2778 142.166 55.5923 139.546 57.3742 137.24C58.0031 136.401 57.8983 136.087 57.1646 135.458C52.5525 131.37 54.02 124.662 59.8899 122.88C61.0429 122.565 61.1477 122.146 60.7284 121.098C59.1561 117.324 61.9863 113.341 65.9694 113.341C67.0176 113.341 67.5417 113.656 67.8561 114.704C68.4851 117.115 69.8477 119.001 72.0489 120.259C75.5079 122.146 78.0236 124.766 78.8622 128.749C78.8622 128.959 78.967 129.169 79.2814 129.588ZM114.186 124.976C113.348 122.146 111.251 120.364 108.84 120.154C107.059 120.05 106.534 120.469 106.744 122.251C107.268 127.387 106.954 132.418 105.696 137.449C103.914 144.472 99.7212 149.084 93.0128 151.6C89.1344 153.068 85.1513 153.906 81.0634 154.64C79.3863 154.954 79.0718 155.478 80.0152 156.946C81.1682 158.833 82.7405 160.195 84.5224 161.453C89.5537 165.017 91.9646 164.702 95.6332 159.881C97.6248 157.365 99.9308 155.793 102.971 155.059C105.906 154.325 108.526 153.068 110.937 151.286C114.501 148.456 115.234 144.158 112.404 141.328C111.775 140.699 111.671 139.965 112.404 139.231C113.453 138.288 113.767 136.925 114.081 135.668C114.71 132.104 115.339 128.54 114.186 124.976ZM81.6923 150.133C82.2164 150.657 82.9501 150.762 83.579 150.866C89.3441 151.705 98.2537 147.198 100.874 141.957C103.704 136.296 103.495 130.531 101.293 124.871C101.293 124.766 101.084 124.766 100.874 124.766C100.665 125.605 100.455 126.548 100.245 127.387C98.2537 134.305 94.2706 137.24 87.8766 136.925C86.8284 136.821 85.8851 136.401 84.8369 136.611C85.0465 137.03 85.0465 137.345 84.5224 137.554C84.1031 139.336 83.579 141.118 83.1598 143.005C83.4742 143.319 83.3694 143.529 82.9501 143.634C82.3212 145.625 81.7971 147.617 81.3778 149.713C81.4826 149.923 81.5875 150.028 81.6923 150.133ZM95.9477 108.415C92.6983 107.262 91.9646 107.786 90.9164 110.93C90.3923 112.503 90.9164 112.922 92.279 113.027C96.367 113.446 98.9875 115.752 100.874 119.316C101.503 120.469 102.132 121.622 102.866 123.089C105.277 117.01 102.132 110.616 95.9477 108.415ZM98.9875 124.557C99.4067 119.525 96.367 115.857 91.3356 115.123C90.0778 114.913 89.5537 115.437 89.4489 116.486C89.2393 117.953 90.3923 117.115 90.9164 117.219C94.585 117.639 97.1007 120.678 96.2622 124.033C95.6332 126.548 94.2706 128.645 92.3838 130.531C91.9646 130.951 91.4405 131.475 91.126 131.894C90.7067 132.418 90.1827 133.047 90.7068 133.781C91.126 134.41 91.8597 133.99 92.4887 133.886C96.0525 132.837 97.7296 130.112 98.7778 126.653C98.7778 126.024 98.9875 125.29 98.9875 124.557ZM85.7802 133.886C86.3043 133.99 86.6188 133.676 87.0381 133.362C89.3441 131.16 91.5453 128.854 93.2224 126.129C93.8513 125.081 94.1658 124.033 94.3754 122.88C94.5851 121.307 93.7465 119.945 92.4887 119.316C91.0212 118.582 90.2875 119.84 89.5537 120.783C88.9248 121.517 88.4007 122.356 88.1911 123.404C88.5055 123.718 88.4007 123.928 87.9814 124.033C87.9814 124.242 87.8766 124.452 87.7718 124.662C88.2959 124.766 88.4007 125.186 88.2959 125.605C88.9248 124.452 89.5537 123.299 90.1827 122.146C90.4971 121.727 90.9164 121.203 91.4405 121.412C92.1742 121.727 91.9646 122.356 91.8597 122.88C91.4405 124.871 89.6586 126.339 87.9814 126.024C87.667 126.234 87.4573 126.443 87.1429 126.548C86.7236 128.33 86.1995 130.112 85.7802 131.999C86.3043 132.733 85.7802 133.362 85.7802 133.886ZM88.1911 125.71C88.2959 125.29 88.1911 124.871 87.667 124.766C87.4573 125.395 87.3525 126.129 87.1429 126.758C87.4573 126.548 87.667 126.339 87.9814 126.234C87.9814 126.024 88.0862 125.815 88.1911 125.71ZM85.7802 133.886C85.8851 133.257 86.3043 132.733 85.8851 132.104C85.7802 132.733 84.9417 133.362 85.7802 133.886ZM87.7718 124.033C88.1911 123.928 88.2959 123.718 87.9814 123.404C87.9814 123.613 87.8766 123.823 87.7718 124.033Z" fill="#664407"/>
<path d="M79.5964 129.693C80.2253 127.387 79.2819 125.814 78.3385 124.242C76.8711 121.936 76.8711 121.936 79.3867 121.098C80.4349 120.678 81.4831 120.154 82.4265 119.316C82.6361 119.106 82.8458 118.792 82.6361 118.582C82.4265 118.267 82.112 118.477 81.9024 118.582C81.4831 118.792 81.1687 119.106 80.7494 119.316C75.5084 122.775 69.6386 118.477 69.0096 113.865C68.8 112.398 68.6952 111.035 69.2193 109.567C70.4771 106.423 73.9362 105.06 77.0807 106.842C78.2337 107.471 78.7578 107.576 79.7012 106.528C81.4831 104.431 84.1036 104.117 86.3048 105.27C88.6108 106.528 89.7639 109.043 89.135 111.664C85.8856 124.661 82.741 137.554 79.3867 150.447C78.2337 154.954 75.9277 156.946 72.4687 157.155C68.9048 157.365 65.9699 155.374 64.9217 152.229C64.3976 150.447 64.6072 150.028 66.3892 149.608C73.4121 147.722 76.0325 139.965 71.4205 134.934C70.2675 133.676 68.9048 132.942 67.2277 132.523C66.8084 132.418 66.1795 132.208 66.0747 132.733C65.8651 133.361 66.5988 133.257 67.0181 133.466C72.1542 135.039 74.3554 141.013 71.4205 145.416C69.4289 148.351 66.494 149.084 63.1398 148.98C60.4145 148.875 58.1084 147.617 56.8506 144.996C55.5928 142.271 55.9072 139.651 57.6892 137.345C58.3181 136.506 58.2133 136.192 57.4795 135.563C52.8675 131.475 54.3349 124.766 60.2048 122.984C61.3578 122.67 61.4626 122.251 61.0434 121.202C59.4711 117.429 62.3012 113.446 66.2843 113.446C67.3325 113.446 67.8566 113.76 68.1711 114.808C68.8 117.219 70.1627 119.106 72.3639 120.364C75.8229 122.251 78.3386 124.871 79.1771 128.854C79.0723 129.064 79.2819 129.169 79.5964 129.693ZM114.501 125.081C113.663 122.251 111.566 120.469 109.155 120.259C107.373 120.154 106.849 120.574 107.059 122.355C107.583 127.492 107.269 132.523 106.011 137.554C104.229 144.577 100.036 149.189 93.3277 151.705C89.4494 153.172 85.4663 154.011 81.3783 154.745C79.7012 155.059 79.3867 155.583 80.3301 157.051C81.4831 158.937 83.0554 160.3 84.8374 161.558C89.8687 165.122 92.2795 164.807 95.9482 159.986C97.9398 157.47 100.246 155.898 103.286 155.164C106.22 154.43 108.841 153.172 111.252 151.39C114.816 148.56 115.549 144.263 112.719 141.433C112.09 140.804 111.986 140.07 112.719 139.336C113.767 138.393 114.082 137.03 114.396 135.772C114.92 132.208 115.549 128.645 114.501 125.081ZM81.9024 150.237C82.4265 150.761 83.1602 150.866 83.7892 150.971C89.5542 151.81 98.4639 147.302 101.084 142.061C103.914 136.401 103.705 130.636 101.504 124.976C101.504 124.871 101.294 124.871 101.084 124.871C100.875 125.71 100.665 126.653 100.455 127.492C98.4639 134.41 94.4807 137.345 88.0868 137.03C87.0386 136.925 86.0952 136.506 85.047 136.716C85.2566 137.135 85.2566 137.449 84.7325 137.659C84.3133 139.441 83.7892 141.223 83.3699 143.11C83.6844 143.424 83.5795 143.634 83.1602 143.739C82.5313 145.73 82.0072 147.722 81.588 149.818C81.7976 149.923 81.9024 150.133 81.9024 150.237ZM96.1578 108.414C92.9084 107.261 92.1747 107.786 91.1265 110.93C90.6024 112.502 91.1265 112.922 92.4892 113.027C96.5771 113.446 99.1976 115.752 101.084 119.316C101.713 120.469 102.342 121.622 103.076 123.089C105.487 117.114 102.342 110.616 96.1578 108.414ZM99.3024 124.661C99.7217 119.63 96.6819 115.961 91.6506 115.228C90.3928 115.018 89.8687 115.542 89.7638 116.59C89.5542 118.058 90.7072 117.219 91.2313 117.324C94.9 117.743 97.4156 120.783 96.5771 124.137C95.9482 126.653 94.5855 128.749 92.6988 130.636C92.2795 131.055 91.7554 131.58 91.441 131.999C91.0217 132.523 90.4976 133.152 91.0217 133.886C91.441 134.514 92.1747 134.095 92.8036 133.99C96.3675 132.942 98.0446 130.217 99.0928 126.758C99.0928 126.129 99.1976 125.395 99.3024 124.661ZM85.9904 133.99C86.5145 134.095 86.8289 133.781 87.2482 133.466C89.5542 131.265 91.7554 128.959 93.4325 126.234C94.0614 125.186 94.3759 124.137 94.5855 122.984C94.7952 121.412 93.9566 120.049 92.6988 119.42C91.2313 118.687 90.4976 119.945 89.7638 120.888C89.1349 121.622 88.6108 122.46 88.4012 123.508C88.7157 123.823 88.6108 124.033 88.1916 124.137C88.1916 124.347 88.0868 124.557 87.9819 124.766C88.506 124.871 88.6109 125.29 88.506 125.71C89.1349 124.557 89.7639 123.404 90.3928 122.251C90.7072 121.831 91.1265 121.307 91.6506 121.517C92.3843 121.831 92.1747 122.46 92.0699 122.984C91.6506 124.976 89.8687 126.443 88.1916 126.129C87.8771 126.339 87.6675 126.548 87.353 126.653C86.9337 128.435 86.4097 130.217 85.9904 132.104C86.5145 132.837 86.0952 133.361 85.9904 133.99ZM88.506 125.71C88.6109 125.29 88.506 124.871 87.9819 124.766C87.7723 125.395 87.6675 126.129 87.4578 126.758C87.7723 126.548 87.9819 126.339 88.2964 126.234C88.2964 126.129 88.4012 125.919 88.506 125.71ZM85.9904 133.99C86.0952 133.361 86.5144 132.837 86.0952 132.208C85.9903 132.837 85.2566 133.361 85.9904 133.99ZM88.0868 124.137C88.506 124.033 88.6108 123.823 88.2964 123.508C88.1916 123.718 88.1916 123.928 88.0868 124.137Z" fill="#FFD277"/>
<defs>
<linearGradient id="paint0_linear" x1="13.3865" y1="73.113" x2="72.2649" y2="82.4488" gradientUnits="userSpaceOnUse">
<stop stop-color="#FFFFE3"/>
<stop offset="0.1817" stop-color="#FDCF74"/>
<stop offset="1" stop-color="#F6C266"/>
</linearGradient>
<linearGradient id="paint1_linear" x1="55.5736" y1="91.9625" x2="116.938" y2="176.454" gradientUnits="userSpaceOnUse">
<stop stop-color="#FFFFE3"/>
<stop offset="0.1817" stop-color="#FDCF74"/>
<stop offset="1" stop-color="#F6C266"/>
</linearGradient>
</defs>
</svg>
