<svg width="85" height="69" viewBox="0 0 85 69" fill="none" xmlns="http://www.w3.org/2000/svg">
<circle cx="41.5" cy="34.5" r="34.5" fill="#5194A6"/>
<rect x="49.2852" y="8.12362" width="20.5571" height="32.8914" rx="3" transform="rotate(17.5046 49.2852 8.12362)" fill="#EBF4FF"/>
<rect x="47.0381" y="13.8815" width="0.822285" height="4.11142" rx="0.411142" transform="rotate(17.5046 47.0381 13.8815)" fill="#EBF4FF"/>
<rect x="67.0142" y="18.8885" width="0.822285" height="4.11142" rx="0.411142" transform="rotate(17.5046 67.0142 18.8885)" fill="#EBF4FF"/>
<rect x="65.5303" y="23.5937" width="0.822285" height="4.11142" rx="0.411142" transform="rotate(17.5046 65.5303 23.5937)" fill="#EBF4FF"/>
<rect x="50.751" y="10.3104" width="16.4457" height="27.5465" transform="rotate(17.5046 50.751 10.3104)" fill="#3D6A9E"/>
<circle cx="49.5549" cy="40.7573" r="1.02786" transform="rotate(17.5046 49.5549 40.7573)" fill="#CAD7E6"/>
<path fill-rule="evenodd" clip-rule="evenodd" d="M73.6158 30.2339L68.5447 33.1617L63.4736 30.2339V33.8175H68.3955L68.5447 33.7314L68.6939 33.8175H73.6158V30.2339Z" fill="#EC1455"/>
<rect x="52.3447" y="37.2341" width="31.9029" height="22.9998" fill="#FFAD69"/>
<rect x="52.3447" y="37.2341" width="21.5159" height="22.9998" fill="#FA9F4D"/>
<rect x="51.9736" y="33.5245" width="32.6448" height="3.70964" fill="#FA9F4D"/>
<rect x="51.9736" y="33.5245" width="21.8869" height="3.70964" fill="#EF964D"/>
<rect x="60.5059" y="33.5245" width="3.33868" height="26.7094" fill="#EC1455"/>
<rect x="79.0542" y="33.5245" width="1.85482" height="26.7094" fill="#ED588D"/>
<path d="M18.4435 35C22.3781 35 25.9485 36.9657 28.3895 40.1189C31.559 40.7741 34 41.716 34 41.716L31.7412 52.2814C31.5955 53.6328 31.3405 54.9022 30.9033 56.1308C28.9724 61.9049 24.0905 66 18.407 66C11.0113 66 5 59.0793 5 50.5205C5 41.9617 11.0113 35 18.4435 35Z" fill="#FFC197"/>
<path d="M24.9431 48.24C24.9431 48.24 22.2435 49.0795 19.0864 46.9146C19.0407 46.8704 22.1978 51.156 24.9431 48.24Z" fill="#E0AA85"/>
<path d="M29 50C29 50 30.6487 50.8184 32.5143 50.2888C32.4709 50.2888 29.9545 52.4551 29 50Z" fill="#E0AA85"/>
<path d="M27.3429 51.6C27.3429 51.6 27.1197 59.6561 26.5247 59.7861C25.9297 59.916 25 59.0931 25 59.0931L27.3429 51.6Z" fill="#E0AA85"/>
<path d="M21.4283 60.8273C21.4283 60.8273 17.9171 59.5475 18.4352 57.4571C18.3776 57.4571 16.1328 61.8085 21.4283 60.8273Z" fill="#E0AA85"/>
<path d="M33 40.9777C33 40.9777 30.1462 43.5745 25.6679 43.5745C21.1895 43.5745 17.9405 43.018 15.7453 42.2761C13.55 41.5342 15.1745 40.1894 11.9255 42.2761C8.67655 44.3628 7.57893 49 7.57893 49C7.57893 49 6.56911 45.1511 4.28604 45.012C2.00297 44.8729 1.3444 50.4839 0.334578 45.012C-0.675241 39.5402 0.290672 31.4715 7.57893 28.5501C14.8672 25.5823 21.7603 24.9794 25.6679 27.9472C29.5754 30.915 31.1999 33.5118 31.1999 33.5118L33 40.9777Z" fill="url(#paint0_linear)"/>
<path d="M31.5314 42.1858C31.5314 42.1858 32.6144 52.002 35.0403 51.5872C37.4662 51.1724 40.0654 44.5362 38.5492 40.9876C37.033 37.439 33.1776 34.0287 31.5314 34.0287C29.8853 33.9826 31.5314 42.1858 31.5314 42.1858Z" fill="url(#paint1_linear)"/>
<path d="M4.5 53C6.433 53 8 51.2091 8 49C8 46.7909 6.433 45 4.5 45C2.567 45 1 46.7909 1 49C1 51.2091 2.567 53 4.5 53Z" fill="#FFC197"/>
<defs>
<linearGradient id="paint0_linear" x1="-0.0141169" y1="37.4771" x2="32.9937" y2="37.4771" gradientUnits="userSpaceOnUse">
<stop stop-color="#410F0B"/>
<stop offset="0.6172" stop-color="#410F0B"/>
<stop offset="0.8726" stop-color="#47140B"/>
<stop offset="1" stop-color="#4D190B"/>
</linearGradient>
<linearGradient id="paint1_linear" x1="30.786" y1="42.7789" x2="38.968" y2="42.7789" gradientUnits="userSpaceOnUse">
<stop stop-color="#410F0B"/>
<stop offset="0.6172" stop-color="#410F0B"/>
<stop offset="0.8726" stop-color="#47140B"/>
<stop offset="1" stop-color="#4D190B"/>
</linearGradient>
</defs>
</svg>
