<svg width="65" height="65" viewBox="0 0 65 65" fill="none" xmlns="http://www.w3.org/2000/svg">
<circle cx="32.5" cy="32.5" r="32.5" fill="#D52F52"/>
<path d="M38.8571 32.7143C38.8571 35.8616 36.2902 38.4286 33.1429 38.4286C29.9955 38.4286 27.4286 35.8616 27.4286 32.7143C27.4286 29.567 29.9955 27 33.1429 27C36.2902 27 38.8571 29.567 38.8571 32.7143ZM41.9375 32.7143C41.9375 27.8482 38.0089 23.9196 33.1429 23.9196C28.2768 23.9196 24.3482 27.8482 24.3482 32.7143C24.3482 37.5804 28.2768 41.5089 33.1429 41.5089C38.0089 41.5089 41.9375 37.5804 41.9375 32.7143ZM44.3482 23.5625C44.3482 22.4241 43.433 21.5089 42.2946 21.5089C41.1562 21.5089 40.2411 22.4241 40.2411 23.5625C40.2411 24.7009 41.1562 25.6161 42.2946 25.6161C43.433 25.6161 44.3482 24.7009 44.3482 23.5625ZM33.1429 18.6518C35.6429 18.6518 41 18.4509 43.2545 19.3437C44.0357 19.6562 44.6161 20.0357 45.2188 20.6384C45.8214 21.2411 46.2009 21.8214 46.5134 22.6027C47.4063 24.8571 47.2054 30.2143 47.2054 32.7143C47.2054 35.2143 47.4063 40.5714 46.5134 42.8259C46.2009 43.6071 45.8214 44.1875 45.2188 44.7902C44.6161 45.3929 44.0357 45.7723 43.2545 46.0848C41 46.9777 35.6429 46.7768 33.1429 46.7768C30.6429 46.7768 25.2857 46.9777 23.0313 46.0848C22.25 45.7723 21.6696 45.3929 21.067 44.7902C20.4643 44.1875 20.0848 43.6071 19.7723 42.8259C18.8795 40.5714 19.0804 35.2143 19.0804 32.7143C19.0804 30.2143 18.8795 24.8571 19.7723 22.6027C20.0848 21.8214 20.4643 21.2411 21.067 20.6384C21.6696 20.0357 22.25 19.6562 23.0313 19.3437C25.2857 18.4509 30.6429 18.6518 33.1429 18.6518ZM50.2857 32.7143C50.2857 30.3482 50.308 28.0045 50.1741 25.6384C50.0402 22.8929 49.4152 20.4598 47.4063 18.4509C45.3973 16.442 42.9643 15.817 40.2188 15.683C37.8527 15.5491 35.5089 15.5714 33.1429 15.5714C30.7768 15.5714 28.433 15.5491 26.067 15.683C23.3214 15.817 20.8884 16.442 18.8795 18.4509C16.8705 20.4598 16.2455 22.8929 16.1116 25.6384C15.9777 28.0045 16 30.3482 16 32.7143C16 35.0804 15.9777 37.4241 16.1116 39.7902C16.2455 42.5357 16.8705 44.9687 18.8795 46.9777C20.8884 48.9866 23.3214 49.6116 26.067 49.7455C28.433 49.8795 30.7768 49.8571 33.1429 49.8571C35.5089 49.8571 37.8527 49.8795 40.2188 49.7455C42.9643 49.6116 45.3973 48.9866 47.4063 46.9777C49.4152 44.9687 50.0402 42.5357 50.1741 39.7902C50.308 37.4241 50.2857 35.0804 50.2857 32.7143Z" fill="#EBF4FF"/>
</svg>
