<svg width="272" height="257" viewBox="0 0 272 257" fill="none" xmlns="http://www.w3.org/2000/svg">
<path d="M132.622 200.388C149.534 200.388 163.243 186.422 163.243 169.194C163.243 151.966 149.534 138 132.622 138C115.71 138 102 151.966 102 169.194C102 186.422 115.71 200.388 132.622 200.388Z" fill="url(#paint0_linear)"/>
<path d="M132.621 193.906C146.018 193.906 156.879 182.843 156.879 169.195C156.879 155.548 146.018 144.484 132.621 144.484C119.224 144.484 108.364 155.548 108.364 169.195C108.364 182.843 119.224 193.906 132.621 193.906Z" fill="#E5B35A"/>
<path d="M128.01 167.597C128.01 166.188 127.272 165.436 126.534 164.685C125.427 163.557 125.427 163.557 126.626 162.711C127.179 162.336 127.641 161.866 128.102 161.302C128.194 161.114 128.286 160.926 128.102 160.832C127.917 160.644 127.825 160.832 127.641 160.926C127.456 161.114 127.272 161.302 127.087 161.584C124.597 164.309 120.631 162.711 119.616 160.175C119.247 159.329 118.971 158.577 119.155 157.638C119.432 155.571 121.184 154.349 123.306 154.913C124.043 155.101 124.32 155.101 124.689 154.349C125.427 152.94 126.81 152.282 128.286 152.658C129.762 153.034 130.777 154.349 130.777 155.946C130.777 163.933 130.777 171.919 130.777 179.906C130.777 182.724 129.762 184.228 127.825 184.791C125.796 185.355 123.859 184.697 122.844 183.006C122.291 182.067 122.383 181.785 123.306 181.221C126.995 179.154 127.456 174.268 124.043 171.919C123.213 171.356 122.291 171.168 121.369 171.074C121.092 171.074 120.723 171.074 120.723 171.356C120.723 171.731 121.092 171.637 121.369 171.637C124.505 171.825 126.626 174.926 125.519 177.933C124.781 179.906 123.213 180.845 121.369 181.221C119.801 181.503 118.325 181.127 117.218 179.812C116.111 178.402 115.927 176.899 116.572 175.208C116.757 174.644 116.665 174.456 116.204 174.174C112.975 172.483 112.883 168.349 116.019 166.47C116.665 166.094 116.665 165.906 116.204 165.342C114.728 163.369 115.835 160.644 118.14 160.081C118.694 159.987 119.063 160.081 119.432 160.644C120.077 161.96 121.184 162.899 122.568 163.275C124.781 163.839 126.626 165.06 127.641 167.221C127.641 167.221 127.825 167.315 128.01 167.597ZM147.286 159.799C146.364 158.295 144.981 157.544 143.597 157.826C142.582 158.014 142.306 158.389 142.675 159.423C143.689 162.336 144.243 165.248 144.243 168.349C144.243 172.671 142.49 175.959 139.078 178.402C137.048 179.812 134.927 180.845 132.713 181.879C131.791 182.255 131.699 182.63 132.437 183.382C133.359 184.322 134.466 184.885 135.665 185.355C138.985 186.671 140.369 186.201 141.752 182.818C142.49 181.033 143.597 179.812 145.257 178.966C146.825 178.12 148.117 176.993 149.223 175.584C150.884 173.423 150.699 170.886 148.67 169.57C148.209 169.288 148.024 168.913 148.393 168.349C148.854 167.691 148.854 166.846 148.854 166C148.578 163.933 148.393 161.772 147.286 159.799ZM132.344 179.154C132.713 179.342 133.175 179.342 133.544 179.342C136.956 178.966 141.383 175.114 142.121 171.637C142.951 167.973 141.937 164.685 139.908 161.678C139.908 161.678 139.815 161.678 139.631 161.678C139.631 162.242 139.631 162.711 139.631 163.275C139.447 167.597 137.694 169.852 133.912 170.604C133.359 170.698 132.713 170.604 132.16 170.886C132.344 171.074 132.344 171.356 132.068 171.449C132.068 172.577 132.068 173.704 132.068 174.832C132.252 174.926 132.252 175.114 132.068 175.208C131.976 176.429 131.976 177.745 132.068 178.966C132.16 178.966 132.252 179.06 132.344 179.154ZM134.466 152.846C132.437 152.658 132.068 153.034 131.976 155.007C131.883 155.946 132.252 156.134 133.082 156.04C135.48 155.665 137.325 156.698 138.893 158.389C139.447 158.953 139.908 159.611 140.553 160.269C141.014 156.51 138.34 153.222 134.466 152.846ZM138.524 161.772C137.971 158.765 135.757 157.074 132.806 157.45C132.068 157.544 131.883 157.92 131.883 158.483C131.976 159.329 132.529 158.671 132.806 158.671C135.019 158.389 136.772 159.799 136.864 161.866C136.864 163.463 136.403 164.872 135.573 166.188C135.388 166.47 135.204 166.846 135.019 167.221C134.835 167.597 134.65 168.067 135.019 168.349C135.388 168.631 135.757 168.349 136.034 168.161C137.879 167.033 138.524 165.248 138.524 162.993C138.616 162.711 138.616 162.242 138.524 161.772ZM132.344 169.101C132.713 169.101 132.806 168.819 132.99 168.631C134.005 167.033 134.927 165.342 135.48 163.557C135.665 162.899 135.757 162.148 135.665 161.49C135.573 160.55 134.927 159.893 134.097 159.705C133.175 159.517 132.898 160.362 132.621 161.02C132.437 161.584 132.16 162.148 132.252 162.711C132.437 162.899 132.437 162.993 132.252 163.087C132.252 163.181 132.252 163.369 132.252 163.463C132.529 163.463 132.713 163.651 132.713 163.933C132.898 163.181 133.082 162.43 133.267 161.678C133.359 161.396 133.544 161.02 133.912 161.114C134.374 161.208 134.374 161.584 134.374 161.96C134.466 163.181 133.636 164.309 132.621 164.403C132.529 164.591 132.345 164.685 132.252 164.872C132.252 166 132.252 167.127 132.252 168.161C132.437 168.349 132.252 168.819 132.344 169.101ZM132.529 164.027C132.529 163.745 132.344 163.557 132.068 163.557C132.068 163.933 132.068 164.403 132.068 164.778C132.16 164.591 132.344 164.497 132.437 164.309C132.529 164.215 132.529 164.121 132.529 164.027ZM132.344 169.101C132.344 168.725 132.529 168.349 132.16 168.067C132.16 168.443 131.791 168.913 132.344 169.101ZM132.068 163.087C132.252 162.993 132.344 162.805 132.068 162.711C132.068 162.805 132.068 162.993 132.068 163.087Z" fill="#664407"/>
<path d="M128.194 167.597C128.194 166.188 127.456 165.436 126.718 164.685C125.612 163.557 125.612 163.557 126.811 162.711C127.364 162.336 127.825 161.866 128.286 161.302C128.379 161.114 128.471 160.926 128.286 160.832C128.102 160.644 128.01 160.832 127.825 160.926C127.641 161.114 127.456 161.302 127.272 161.584C124.781 164.309 120.815 162.711 119.801 160.175C119.432 159.329 119.155 158.577 119.34 157.638C119.616 155.571 121.369 154.349 123.49 154.913C124.228 155.101 124.505 155.101 124.874 154.349C125.612 152.94 126.995 152.282 128.471 152.658C129.947 153.034 130.961 154.349 130.961 155.946C130.961 163.933 130.961 171.919 130.961 179.906C130.961 182.724 129.947 184.228 128.01 184.791C125.98 185.355 124.044 184.697 123.029 183.006C122.476 182.067 122.568 181.785 123.49 181.221C127.18 179.154 127.641 174.268 124.228 171.919C123.398 171.356 122.476 171.168 121.553 171.074C121.277 171.074 120.908 171.074 120.908 171.356C120.908 171.731 121.277 171.637 121.553 171.637C124.689 171.825 126.811 174.926 125.704 177.933C124.966 179.906 123.398 180.845 121.553 181.221C119.985 181.503 118.51 181.127 117.403 179.812C116.296 178.402 116.111 176.899 116.757 175.208C116.942 174.644 116.849 174.456 116.388 174.174C113.16 172.483 113.068 168.349 116.204 166.47C116.849 166.094 116.849 165.906 116.388 165.342C114.912 163.369 116.019 160.644 118.325 160.081C118.878 159.987 119.247 160.081 119.616 160.644C120.262 161.96 121.369 162.899 122.752 163.275C124.966 163.839 126.811 165.06 127.825 167.221C127.825 167.221 127.917 167.315 128.194 167.597ZM147.379 159.799C146.456 158.295 145.073 157.544 143.689 157.826C142.675 158.014 142.398 158.389 142.767 159.423C143.782 162.336 144.335 165.248 144.335 168.349C144.335 172.671 142.583 175.959 139.17 178.402C137.141 179.812 135.019 180.845 132.806 181.879C131.883 182.255 131.791 182.63 132.529 183.382C133.451 184.322 134.558 184.885 135.757 185.355C139.078 186.671 140.461 186.201 141.845 182.818C142.583 181.033 143.689 179.812 145.35 178.966C146.918 178.12 148.209 176.993 149.316 175.584C150.976 173.423 150.791 170.886 148.762 169.57C148.301 169.288 148.117 168.913 148.486 168.349C148.947 167.691 148.947 166.846 148.947 166C148.67 163.933 148.578 161.772 147.379 159.799ZM132.437 179.154C132.806 179.342 133.267 179.342 133.636 179.342C137.049 178.966 141.476 175.114 142.214 171.637C143.044 167.973 142.029 164.685 140 161.678C140 161.678 139.908 161.678 139.723 161.678C139.723 162.242 139.723 162.711 139.723 163.275C139.539 167.597 137.786 169.852 134.005 170.604C133.451 170.698 132.806 170.604 132.252 170.886C132.437 171.074 132.437 171.356 132.16 171.449C132.16 172.577 132.16 173.704 132.16 174.832C132.345 174.926 132.345 175.114 132.16 175.208C132.068 176.429 132.068 177.745 132.16 178.966C132.345 178.966 132.437 179.06 132.437 179.154ZM134.65 152.846C132.621 152.658 132.252 153.034 132.16 155.007C132.068 155.946 132.437 156.134 133.267 156.04C135.665 155.665 137.51 156.698 139.078 158.389C139.631 158.953 140.092 159.611 140.738 160.269C141.199 156.51 138.524 153.222 134.65 152.846ZM138.709 161.772C138.155 158.765 135.942 157.074 132.99 157.45C132.252 157.544 132.068 157.92 132.068 158.483C132.16 159.329 132.714 158.671 132.99 158.671C135.204 158.389 136.956 159.799 137.049 161.866C137.049 163.463 136.587 164.872 135.757 166.188C135.573 166.47 135.388 166.846 135.204 167.221C135.019 167.597 134.835 168.067 135.204 168.349C135.573 168.631 135.942 168.349 136.218 168.161C138.063 167.033 138.709 165.248 138.709 162.993C138.801 162.711 138.801 162.242 138.709 161.772ZM132.437 169.101C132.806 169.101 132.898 168.819 133.082 168.631C134.097 167.033 135.019 165.342 135.573 163.557C135.757 162.899 135.849 162.148 135.757 161.49C135.665 160.55 135.019 159.893 134.189 159.705C133.267 159.517 132.99 160.362 132.714 161.02C132.529 161.584 132.252 162.148 132.345 162.711C132.529 162.899 132.529 162.993 132.345 163.087C132.345 163.181 132.345 163.369 132.345 163.463C132.621 163.463 132.806 163.651 132.806 163.933C132.99 163.181 133.175 162.43 133.359 161.678C133.451 161.396 133.636 161.02 134.005 161.114C134.466 161.208 134.466 161.584 134.466 161.96C134.558 163.181 133.728 164.309 132.714 164.403C132.621 164.591 132.437 164.685 132.345 164.872C132.345 166 132.345 167.127 132.345 168.161C132.621 168.349 132.437 168.819 132.437 169.101ZM132.714 164.027C132.714 163.745 132.529 163.557 132.252 163.557C132.252 163.933 132.252 164.403 132.252 164.778C132.345 164.591 132.529 164.497 132.621 164.309C132.621 164.215 132.714 164.121 132.714 164.027ZM132.437 169.101C132.437 168.725 132.621 168.349 132.252 168.067C132.345 168.443 131.976 168.913 132.437 169.101ZM132.252 163.087C132.437 162.993 132.529 162.805 132.252 162.711C132.252 162.805 132.252 162.993 132.252 163.087Z" fill="#FFD277"/>
<path d="M180.728 227.932C187.758 227.932 193.457 222.127 193.457 214.966C193.457 207.805 187.758 202 180.728 202C173.699 202 168 207.805 168 214.966C168 222.127 173.699 227.932 180.728 227.932Z" fill="url(#paint1_linear)"/>
<path d="M180.728 225.208C186.281 225.208 190.782 220.623 190.782 214.967C190.782 209.311 186.281 204.726 180.728 204.726C175.176 204.726 170.675 209.311 170.675 214.967C170.675 220.623 175.176 225.208 180.728 225.208Z" fill="#E5B35A"/>
<path d="M178.792 214.309C178.792 213.745 178.515 213.369 178.146 213.088C177.685 212.618 177.685 212.618 178.238 212.242C178.515 212.054 178.7 211.866 178.884 211.678C178.884 211.584 178.976 211.584 178.884 211.49C178.792 211.396 178.792 211.49 178.7 211.49C178.607 211.584 178.515 211.678 178.515 211.772C177.501 212.9 175.84 212.242 175.379 211.208C175.287 210.833 175.102 210.551 175.195 210.175C175.287 209.329 176.025 208.859 176.855 209.047C177.132 209.141 177.316 209.141 177.408 208.765C177.685 208.202 178.331 207.92 178.884 208.108C179.53 208.296 179.899 208.765 179.899 209.423C179.899 212.712 179.899 216 179.899 219.289C179.899 220.416 179.438 221.074 178.7 221.356C177.87 221.638 177.039 221.356 176.67 220.604C176.394 220.228 176.486 220.134 176.855 219.852C178.423 219.007 178.607 216.94 177.132 216C176.763 215.812 176.394 215.718 176.025 215.624C175.933 215.624 175.748 215.624 175.748 215.718C175.748 215.906 175.933 215.812 176.025 215.812C177.316 215.906 178.238 217.222 177.777 218.443C177.501 219.289 176.855 219.665 176.025 219.759C175.379 219.852 174.734 219.759 174.272 219.195C173.811 218.631 173.719 217.973 173.996 217.316C174.088 217.128 174.088 217.034 173.811 216.846C172.52 216.094 172.428 214.403 173.719 213.651C173.996 213.463 173.996 213.369 173.811 213.181C173.258 212.336 173.627 211.208 174.641 211.02C174.918 210.927 175.01 211.02 175.195 211.208C175.471 211.772 175.933 212.148 176.486 212.242C177.408 212.524 178.146 212.994 178.607 213.839C178.7 214.121 178.7 214.215 178.792 214.309ZM186.816 211.114C186.447 210.457 185.894 210.175 185.248 210.269C184.787 210.363 184.695 210.457 184.879 210.927C185.34 212.148 185.525 213.369 185.525 214.591C185.525 216.376 184.787 217.691 183.404 218.725C182.573 219.289 181.651 219.759 180.729 220.134C180.36 220.322 180.36 220.51 180.637 220.792C181.005 221.168 181.467 221.45 181.928 221.638C183.311 222.201 183.865 222.013 184.418 220.604C184.695 219.852 185.156 219.383 185.894 219.007C186.54 218.631 187.093 218.161 187.554 217.597C188.2 216.658 188.107 215.624 187.277 215.155C187.093 215.061 187.001 214.873 187.185 214.685C187.37 214.403 187.37 214.027 187.37 213.745C187.277 212.712 187.277 211.866 186.816 211.114ZM180.637 219.101C180.821 219.195 181.005 219.195 181.098 219.195C182.481 219.101 184.326 217.41 184.695 216C185.064 214.497 184.603 213.088 183.773 211.866H183.68C183.68 212.054 183.68 212.336 183.68 212.524C183.588 214.309 182.85 215.249 181.282 215.53C181.005 215.624 180.821 215.53 180.544 215.624C180.637 215.718 180.637 215.812 180.544 215.906C180.544 216.376 180.544 216.846 180.544 217.316C180.637 217.41 180.637 217.41 180.544 217.504C180.452 217.973 180.452 218.443 180.637 219.101C180.544 219.007 180.544 219.007 180.637 219.101ZM181.467 208.202C180.637 208.108 180.452 208.296 180.452 209.141C180.452 209.517 180.544 209.611 180.913 209.517C181.928 209.329 182.666 209.799 183.311 210.457C183.496 210.739 183.772 210.926 183.957 211.208C184.234 209.705 183.127 208.296 181.467 208.202ZM183.219 211.866C183.035 210.645 182.112 209.987 180.821 210.081C180.544 210.081 180.452 210.269 180.452 210.551C180.452 210.927 180.729 210.645 180.821 210.645C181.743 210.551 182.481 211.114 182.481 211.96C182.481 212.618 182.297 213.181 181.928 213.745C181.836 213.839 181.743 214.027 181.743 214.121C181.651 214.309 181.559 214.497 181.743 214.591C181.928 214.685 182.02 214.591 182.205 214.497C182.942 214.027 183.219 213.275 183.219 212.336C183.219 212.242 183.219 212.054 183.219 211.866ZM180.637 214.967C180.729 214.967 180.821 214.873 180.913 214.779C181.374 214.121 181.743 213.463 181.928 212.712C182.02 212.43 182.02 212.148 182.02 211.866C181.928 211.49 181.743 211.208 181.374 211.114C181.005 211.02 180.913 211.396 180.729 211.678C180.637 211.866 180.544 212.148 180.544 212.336C180.637 212.43 180.637 212.43 180.544 212.524C180.544 212.618 180.544 212.618 180.544 212.712C180.637 212.712 180.729 212.806 180.729 212.9C180.821 212.618 180.913 212.242 181.005 211.96C181.005 211.866 181.098 211.678 181.282 211.678C181.467 211.678 181.467 211.866 181.467 212.054C181.467 212.524 181.19 212.994 180.729 213.088C180.637 213.181 180.637 213.181 180.544 213.275C180.544 213.745 180.544 214.215 180.544 214.685C180.637 214.591 180.544 214.779 180.637 214.967ZM180.729 212.806C180.729 212.712 180.637 212.618 180.544 212.618C180.544 212.806 180.544 212.994 180.544 213.181C180.637 213.088 180.637 213.088 180.729 212.994C180.637 212.9 180.729 212.806 180.729 212.806ZM180.637 214.967C180.637 214.779 180.729 214.685 180.544 214.497C180.544 214.685 180.36 214.779 180.637 214.967ZM180.544 212.43C180.637 212.336 180.637 212.336 180.544 212.242C180.544 212.336 180.544 212.336 180.544 212.43Z" fill="#664407"/>
<path d="M178.884 214.309C178.884 213.745 178.607 213.369 178.238 213.088C177.777 212.618 177.777 212.618 178.33 212.242C178.607 212.054 178.791 211.866 178.976 211.678C178.976 211.584 179.068 211.584 178.976 211.49C178.884 211.396 178.884 211.49 178.791 211.49C178.699 211.584 178.607 211.678 178.607 211.772C177.592 212.9 175.932 212.242 175.471 211.208C175.379 210.833 175.194 210.551 175.287 210.175C175.379 209.329 176.117 208.859 176.947 209.047C177.223 209.141 177.408 209.141 177.5 208.765C177.777 208.202 178.422 207.92 178.976 208.108C179.622 208.296 179.99 208.765 179.99 209.423C179.99 212.712 179.99 216 179.99 219.289C179.99 220.416 179.529 221.074 178.791 221.356C177.961 221.638 177.131 221.356 176.762 220.604C176.486 220.228 176.578 220.134 176.947 219.852C178.515 219.007 178.699 216.94 177.223 216C176.855 215.812 176.486 215.718 176.117 215.624C176.024 215.624 175.84 215.624 175.84 215.718C175.84 215.906 176.024 215.812 176.117 215.812C177.408 215.906 178.33 217.222 177.869 218.443C177.592 219.289 176.947 219.665 176.117 219.759C175.471 219.852 174.825 219.759 174.364 219.195C173.903 218.631 173.811 217.973 174.087 217.316C174.18 217.128 174.18 217.034 173.903 216.846C172.612 216.094 172.52 214.403 173.811 213.651C174.087 213.463 174.087 213.369 173.903 213.181C173.35 212.336 173.719 211.208 174.733 211.02C175.01 210.927 175.102 211.02 175.287 211.208C175.563 211.772 176.024 212.148 176.578 212.242C177.5 212.524 178.238 212.994 178.699 213.839C178.699 214.121 178.791 214.215 178.884 214.309ZM186.816 211.114C186.447 210.457 185.893 210.175 185.248 210.269C184.787 210.363 184.694 210.457 184.879 210.927C185.34 212.148 185.525 213.369 185.525 214.591C185.525 216.376 184.787 217.691 183.403 218.725C182.573 219.289 181.651 219.759 180.728 220.134C180.359 220.322 180.359 220.51 180.636 220.792C181.005 221.168 181.466 221.45 181.927 221.638C183.311 222.201 183.864 222.013 184.418 220.604C184.694 219.852 185.156 219.383 185.893 219.007C186.539 218.631 187.092 218.161 187.554 217.597C188.199 216.658 188.107 215.624 187.277 215.155C187.092 215.061 187 214.873 187.185 214.685C187.369 214.403 187.369 214.027 187.369 213.745C187.369 212.712 187.277 211.866 186.816 211.114ZM180.636 219.101C180.821 219.195 181.005 219.195 181.097 219.195C182.481 219.101 184.325 217.41 184.694 216C185.063 214.497 184.602 213.088 183.772 211.866H183.68C183.68 212.054 183.68 212.336 183.68 212.524C183.588 214.309 182.85 215.249 181.282 215.53C181.005 215.624 180.821 215.53 180.544 215.624C180.636 215.718 180.636 215.812 180.544 215.906C180.544 216.376 180.544 216.846 180.544 217.316C180.636 217.41 180.636 217.41 180.544 217.504C180.544 217.973 180.544 218.443 180.636 219.101C180.636 219.007 180.636 219.007 180.636 219.101ZM181.558 208.202C180.728 208.108 180.544 208.296 180.544 209.141C180.544 209.517 180.636 209.611 181.005 209.517C182.02 209.329 182.757 209.799 183.403 210.457C183.588 210.739 183.864 210.926 184.049 211.208C184.233 209.705 183.126 208.296 181.558 208.202ZM183.219 211.866C183.034 210.645 182.112 209.987 180.821 210.081C180.544 210.081 180.452 210.269 180.452 210.551C180.452 210.927 180.728 210.645 180.821 210.645C181.743 210.551 182.481 211.114 182.481 211.96C182.481 212.618 182.296 213.181 181.927 213.745C181.835 213.839 181.743 214.027 181.743 214.121C181.651 214.309 181.558 214.497 181.743 214.591C181.927 214.685 182.02 214.591 182.204 214.497C182.942 214.027 183.219 213.275 183.219 212.336C183.311 212.242 183.311 212.054 183.219 211.866ZM180.636 214.967C180.728 214.967 180.821 214.873 180.913 214.779C181.374 214.121 181.743 213.463 181.927 212.712C182.02 212.43 182.02 212.148 182.02 211.866C181.927 211.49 181.743 211.208 181.374 211.114C181.005 211.02 180.913 211.396 180.728 211.678C180.636 211.866 180.544 212.148 180.544 212.336C180.636 212.43 180.636 212.43 180.544 212.524C180.544 212.618 180.544 212.618 180.544 212.712C180.636 212.712 180.728 212.806 180.728 212.9C180.821 212.618 180.913 212.242 181.005 211.96C181.005 211.866 181.097 211.678 181.282 211.678C181.466 211.678 181.466 211.866 181.466 212.054C181.466 212.524 181.189 212.994 180.728 213.088C180.636 213.181 180.636 213.181 180.544 213.275C180.544 213.745 180.544 214.215 180.544 214.685C180.728 214.591 180.636 214.779 180.636 214.967ZM180.728 212.806C180.728 212.712 180.636 212.618 180.544 212.618C180.544 212.806 180.544 212.994 180.544 213.181C180.636 213.088 180.636 213.088 180.728 212.994C180.728 212.9 180.728 212.806 180.728 212.806ZM180.636 214.967C180.636 214.779 180.728 214.685 180.544 214.497C180.636 214.685 180.452 214.779 180.636 214.967ZM180.544 212.43C180.636 212.336 180.636 212.336 180.544 212.242C180.544 212.336 180.544 212.336 180.544 212.43Z" fill="#FFD277"/>
<path d="M225.932 163.582C251.3 163.582 271.865 142.633 271.865 116.791C271.865 90.949 251.3 70 225.932 70C200.565 70 180 90.949 180 116.791C180 142.633 200.565 163.582 225.932 163.582Z" fill="url(#paint2_linear)"/>
<path d="M225.932 153.811C246.003 153.811 262.273 137.237 262.273 116.792C262.273 96.3466 246.003 79.7725 225.932 79.7725C205.862 79.7725 189.592 96.3466 189.592 116.792C189.592 137.237 205.862 153.811 225.932 153.811Z" fill="#E5B35A"/>
<path d="M219.845 112.656C220.399 110.589 219.569 109.18 218.739 107.77C217.447 105.703 217.447 105.703 219.661 104.951C220.583 104.576 221.506 104.106 222.336 103.354C222.52 103.166 222.705 102.884 222.52 102.696C222.336 102.415 222.059 102.602 221.874 102.696C221.506 102.884 221.229 103.166 220.86 103.354C216.248 106.455 211.083 102.602 210.53 98.4684C210.345 97.153 210.253 95.9315 210.714 94.6161C211.821 91.7974 214.865 90.5759 217.632 92.1732C218.646 92.737 219.107 92.8309 219.938 91.8913C221.506 90.0122 223.811 89.7303 225.748 90.7639C227.777 91.8913 228.792 94.1463 228.239 96.4953C225.379 108.146 222.612 119.703 219.661 131.26C218.646 135.3 216.617 137.085 213.573 137.273C210.437 137.461 207.855 135.676 206.933 132.857C206.471 131.26 206.656 130.884 208.224 130.508C214.404 128.817 216.709 121.864 212.651 117.354C211.636 116.226 210.437 115.569 208.962 115.193C208.593 115.099 208.039 114.911 207.947 115.381C207.763 115.944 208.408 115.851 208.777 116.038C213.297 117.448 215.234 122.803 212.651 126.75C210.899 129.38 208.316 130.038 205.365 129.944C202.966 129.85 200.937 128.723 199.831 126.374C198.724 123.931 199 121.582 200.568 119.515C201.122 118.763 201.03 118.481 200.384 117.918C196.326 114.253 197.617 108.24 202.782 106.643C203.797 106.361 203.889 105.985 203.52 105.045C202.136 101.663 204.627 98.0925 208.132 98.0925C209.054 98.0925 209.515 98.3744 209.792 99.314C210.345 101.475 211.544 103.166 213.481 104.294C216.525 105.985 218.738 108.334 219.476 111.904C219.476 112.092 219.569 112.28 219.845 112.656ZM250.559 108.522C249.821 105.985 247.977 104.388 245.855 104.2C244.287 104.106 243.826 104.482 244.011 106.079C244.472 110.683 244.195 115.193 243.088 119.703C241.52 125.998 237.831 130.132 231.928 132.387C228.515 133.702 225.01 134.454 221.413 135.112C219.938 135.394 219.661 135.863 220.491 137.179C221.506 138.87 222.889 140.092 224.457 141.219C228.884 144.414 231.006 144.132 234.234 139.81C235.986 137.555 238.015 136.145 240.69 135.488C243.273 134.83 245.579 133.702 247.7 132.105C250.836 129.568 251.482 125.716 248.991 123.179C248.438 122.615 248.346 121.958 248.991 121.3C249.914 120.454 250.19 119.233 250.467 118.105C251.02 114.911 251.574 111.716 250.559 108.522ZM221.967 131.072C222.428 131.541 223.073 131.635 223.627 131.729C228.7 132.481 236.54 128.441 238.845 123.743C241.336 118.669 241.151 113.502 239.214 108.428C239.214 108.334 239.03 108.334 238.845 108.334C238.661 109.086 238.477 109.931 238.292 110.683C236.54 116.884 233.035 119.515 227.408 119.233C226.486 119.139 225.656 118.763 224.734 118.951C224.918 119.327 224.918 119.609 224.457 119.797C224.088 121.394 223.627 122.991 223.258 124.683C223.535 124.964 223.442 125.152 223.073 125.246C222.52 127.031 222.059 128.817 221.69 130.696C221.782 130.884 221.874 130.978 221.967 131.072ZM234.511 93.6765C231.651 92.643 231.006 93.1128 230.083 95.9315C229.622 97.3409 230.083 97.7167 231.282 97.8107C234.879 98.1865 237.185 100.254 238.845 103.448C239.399 104.482 239.952 105.515 240.598 106.831C242.719 101.381 239.952 95.6496 234.511 93.6765ZM237.185 108.146C237.554 103.636 234.879 100.348 230.452 99.6898C229.345 99.5019 228.884 99.9717 228.792 100.911C228.608 102.227 229.622 101.475 230.083 101.569C233.311 101.945 235.525 104.67 234.787 107.676C234.234 109.931 233.035 111.81 231.375 113.502C231.006 113.877 230.544 114.347 230.268 114.723C229.899 115.193 229.438 115.757 229.899 116.414C230.268 116.978 230.913 116.602 231.467 116.508C234.603 115.569 236.078 113.126 237.001 110.025C237.001 109.461 237.185 108.804 237.185 108.146ZM225.564 116.508C226.025 116.602 226.302 116.32 226.671 116.038C228.7 114.065 230.637 111.998 232.112 109.555C232.666 108.616 232.943 107.676 233.127 106.643C233.311 105.233 232.574 104.012 231.467 103.448C230.175 102.79 229.53 103.918 228.884 104.764C228.331 105.421 227.87 106.173 227.685 107.112C227.962 107.394 227.87 107.582 227.501 107.676C227.501 107.864 227.408 108.052 227.316 108.24C227.777 108.334 227.87 108.71 227.777 109.086C228.331 108.052 228.884 107.019 229.438 105.985C229.714 105.609 230.083 105.139 230.544 105.327C231.19 105.609 231.006 106.173 230.913 106.643C230.544 108.428 228.976 109.743 227.501 109.461C227.224 109.649 227.04 109.837 226.763 109.931C226.394 111.528 225.933 113.126 225.564 114.817C226.025 115.475 225.564 116.038 225.564 116.508ZM227.685 109.18C227.777 108.804 227.685 108.428 227.224 108.334C227.04 108.898 226.947 109.555 226.763 110.119C227.04 109.931 227.224 109.743 227.501 109.649C227.501 109.461 227.593 109.273 227.685 109.18ZM225.564 116.508C225.656 115.944 226.025 115.475 225.656 114.911C225.564 115.475 224.826 116.038 225.564 116.508ZM227.316 107.676C227.685 107.582 227.777 107.394 227.501 107.112C227.501 107.3 227.408 107.488 227.316 107.676Z" fill="#664407"/>
<path d="M220.122 112.752C220.676 110.685 219.845 109.275 219.015 107.866C217.724 105.799 217.724 105.799 219.938 105.047C220.86 104.671 221.782 104.202 222.612 103.45C222.797 103.262 222.981 102.98 222.797 102.792C222.612 102.51 222.336 102.698 222.151 102.792C221.782 102.98 221.506 103.262 221.137 103.45C216.525 106.55 211.36 102.698 210.807 98.5641C210.622 97.2487 210.53 96.0272 210.991 94.7118C212.098 91.8931 215.142 90.6716 217.909 92.2689C218.923 92.8327 219.384 92.9266 220.214 91.987C221.782 90.1079 224.088 89.826 226.025 90.8596C228.054 91.987 229.069 94.242 228.515 96.591C225.656 108.242 222.889 119.798 219.938 131.355C218.923 135.395 216.894 137.181 213.85 137.369C210.714 137.556 208.132 135.771 207.209 132.953C206.748 131.355 206.933 130.979 208.501 130.604C214.68 128.912 216.986 121.959 212.928 117.45C211.913 116.322 210.714 115.664 209.239 115.289C208.87 115.195 208.316 115.007 208.224 115.476C208.04 116.04 208.685 115.946 209.054 116.134C213.574 117.543 215.51 122.899 212.928 126.845C211.175 129.476 208.593 130.134 205.641 130.04C203.243 129.946 201.214 128.818 200.107 126.469C199.001 124.027 199.277 121.678 200.845 119.611C201.399 118.859 201.306 118.577 200.661 118.013C196.603 114.349 197.894 108.336 203.059 106.738C204.073 106.457 204.166 106.081 203.797 105.141C202.413 101.759 204.904 98.1882 208.408 98.1882C209.331 98.1882 209.792 98.4701 210.069 99.4097C210.622 101.571 211.821 103.262 213.758 104.389C216.802 106.081 219.015 108.43 219.753 112C219.661 112.188 219.845 112.282 220.122 112.752ZM250.836 108.618C250.098 106.081 248.254 104.483 246.132 104.295C244.564 104.202 244.103 104.577 244.287 106.175C244.749 110.779 244.472 115.289 243.365 119.798C241.797 126.094 238.108 130.228 232.205 132.483C228.792 133.798 225.287 134.55 221.69 135.208C220.214 135.489 219.938 135.959 220.768 137.275C221.782 138.966 223.166 140.187 224.734 141.315C229.161 144.509 231.282 144.227 234.511 139.905C236.263 137.65 238.292 136.241 240.967 135.583C243.55 134.926 245.855 133.798 247.977 132.201C251.113 129.664 251.758 125.812 249.268 123.275C248.715 122.711 248.622 122.053 249.268 121.396C250.19 120.55 250.467 119.329 250.744 118.201C251.205 115.007 251.758 111.812 250.836 108.618ZM222.151 131.167C222.612 131.637 223.258 131.731 223.812 131.825C228.884 132.577 236.724 128.537 239.03 123.839C241.52 118.765 241.336 113.597 239.399 108.524C239.399 108.43 239.215 108.43 239.03 108.43C238.846 109.181 238.661 110.027 238.477 110.779C236.724 116.98 233.219 119.611 227.593 119.329C226.671 119.235 225.841 118.859 224.918 119.047C225.103 119.423 225.103 119.705 224.642 119.892C224.273 121.49 223.812 123.087 223.443 124.778C223.719 125.06 223.627 125.248 223.258 125.342C222.705 127.127 222.244 128.912 221.875 130.792C222.059 130.885 222.151 131.073 222.151 131.167ZM234.695 93.6783C231.836 92.6447 231.19 93.1145 230.268 95.9333C229.807 97.3426 230.268 97.7185 231.467 97.8124C235.064 98.1882 237.37 100.255 239.03 103.45C239.584 104.483 240.137 105.517 240.783 106.832C242.904 101.477 240.137 95.6514 234.695 93.6783ZM237.462 108.242C237.831 103.732 235.156 100.443 230.729 99.7855C229.622 99.5976 229.161 100.067 229.069 101.007C228.884 102.322 229.899 101.571 230.36 101.665C233.588 102.04 235.802 104.765 235.064 107.772C234.511 110.027 233.312 111.906 231.651 113.597C231.282 113.973 230.821 114.443 230.545 114.819C230.176 115.289 229.714 115.852 230.176 116.51C230.545 117.074 231.19 116.698 231.744 116.604C234.88 115.664 236.355 113.221 237.278 110.121C237.278 109.557 237.37 108.899 237.462 108.242ZM225.748 116.604C226.21 116.698 226.486 116.416 226.855 116.134C228.884 114.161 230.821 112.094 232.297 109.651C232.85 108.711 233.127 107.772 233.312 106.738C233.496 105.329 232.758 104.108 231.651 103.544C230.36 102.886 229.714 104.014 229.069 104.859C228.515 105.517 228.054 106.269 227.87 107.208C228.147 107.49 228.054 107.678 227.685 107.772C227.685 107.96 227.593 108.148 227.501 108.336C227.962 108.43 228.054 108.805 227.962 109.181C228.515 108.148 229.069 107.114 229.622 106.081C229.899 105.705 230.268 105.235 230.729 105.423C231.375 105.705 231.19 106.269 231.098 106.738C230.729 108.524 229.161 109.839 227.685 109.557C227.409 109.745 227.224 109.933 226.947 110.027C226.579 111.624 226.117 113.221 225.748 114.913C226.21 115.57 225.841 116.04 225.748 116.604ZM227.962 109.181C228.054 108.805 227.962 108.43 227.501 108.336C227.316 108.899 227.224 109.557 227.04 110.121C227.316 109.933 227.501 109.745 227.778 109.651C227.778 109.557 227.87 109.369 227.962 109.181ZM225.748 116.604C225.841 116.04 226.21 115.57 225.841 115.007C225.748 115.57 225.103 116.04 225.748 116.604ZM227.593 107.772C227.962 107.678 228.054 107.49 227.778 107.208C227.685 107.396 227.685 107.584 227.593 107.772Z" fill="#FFD277"/>
<path d="M45.9325 93.5817C71.3003 93.5817 91.865 72.6327 91.865 46.7909C91.865 20.949 71.3003 0 45.9325 0C20.5647 0 0 20.949 0 46.7909C0 72.6327 20.5647 93.5817 45.9325 93.5817Z" fill="url(#paint3_linear)"/>
<path d="M45.9325 83.81C66.0026 83.81 82.2726 67.2359 82.2726 46.7908C82.2726 26.3456 66.0026 9.77148 45.9325 9.77148C25.8623 9.77148 9.59229 26.3456 9.59229 46.7908C9.59229 67.2359 25.8623 83.81 45.9325 83.81Z" fill="#E5B35A"/>
<path d="M39.8443 42.7507C40.3977 40.6836 39.5676 39.2743 38.7375 37.8649C37.4462 35.7978 37.4462 35.7978 39.6599 35.0462C40.5822 34.6703 41.5045 34.2005 42.3347 33.4489C42.5191 33.261 42.7036 32.9791 42.5191 32.7912C42.3347 32.5093 42.058 32.6972 41.8735 32.7912C41.5045 32.9791 41.2278 33.261 40.8589 33.4489C36.2472 36.5495 31.0821 32.6972 30.5287 28.5631C30.3442 27.2477 30.252 26.0262 30.7132 24.7108C31.82 21.8921 34.8637 20.6707 37.6307 22.2679C38.6453 22.8317 39.1065 22.9256 39.9366 21.9861C41.5045 20.1069 43.8104 19.825 45.7473 20.8586C47.7765 21.9861 48.791 24.241 48.2376 26.59C45.3784 38.2407 42.6113 49.7975 39.6599 61.3543C38.6453 65.3945 36.6161 67.1796 33.5724 67.3676C30.4365 67.5555 27.8539 65.7703 26.9316 62.9516C26.4704 61.3543 26.6549 60.9784 28.2229 60.6026C34.4025 58.9114 36.7084 51.9585 32.6501 47.4486C31.6355 46.3211 30.4365 45.6634 28.9607 45.2875C28.5918 45.1936 28.0384 45.0057 27.9462 45.4755C27.7617 46.0392 28.4073 45.9452 28.7763 46.1332C33.2957 47.5425 35.2326 52.8981 32.6501 56.8443C30.8976 59.4751 28.3151 60.1328 25.3636 60.0389C22.9655 59.9449 20.9364 58.8174 19.8296 56.4685C18.7228 54.0256 18.9995 51.6766 20.5674 49.6096C21.1208 48.8579 21.0286 48.576 20.383 48.0123C16.3247 44.348 17.6159 38.3347 22.781 36.7374C23.7956 36.4555 23.8879 36.0797 23.5189 35.1401C22.1354 31.7577 24.6257 28.1873 28.1306 28.1873C29.053 28.1873 29.5141 28.4691 29.7908 29.4087C30.3442 31.5697 31.5433 33.261 33.4802 34.3885C36.5239 36.0797 38.7375 38.4286 39.4754 41.999C39.3832 42.093 39.5676 42.2809 39.8443 42.7507ZM70.5582 38.6166C69.8204 36.0797 67.9757 34.4824 65.8543 34.2945C64.2863 34.2005 63.8252 34.5764 64.0096 36.1737C64.4708 40.7776 64.1941 45.2875 63.0873 49.7975C61.5193 56.0927 57.83 60.2268 51.927 62.4818C48.5143 63.7972 45.0094 64.5488 41.4123 65.2065C39.9366 65.4884 39.6599 65.9582 40.49 67.2736C41.5045 68.9648 42.888 70.1863 44.456 71.3138C48.8833 74.5083 51.0046 74.2265 54.2328 69.9044C55.9853 67.6494 58.0144 66.2401 60.6892 65.5824C63.2718 64.9247 65.5776 63.7972 67.699 62.1999C70.8349 59.663 71.4806 55.8108 68.9903 53.2739C68.4369 52.7102 68.3446 52.0525 68.9903 51.3948C69.9126 50.5492 70.1893 49.3277 70.466 48.2002C70.9272 44.9117 71.4806 41.8111 70.5582 38.6166ZM41.9657 61.1664C42.4269 61.6361 43.0725 61.7301 43.6259 61.8241C48.6988 62.5757 56.5387 58.5355 58.8445 53.8377C61.3348 48.764 61.1504 43.5963 59.2135 38.5226C59.2135 38.4286 59.029 38.4286 58.8445 38.4286C58.6601 39.1803 58.4756 40.0259 58.2911 40.7776C56.5387 46.9788 53.0338 49.6096 47.4075 49.3277C46.4852 49.2338 45.6551 48.8579 44.7327 49.0458C44.9172 49.4217 44.9172 49.7035 44.456 49.8915C44.0871 51.4887 43.6259 53.086 43.257 54.7772C43.5337 55.0591 43.4415 55.247 43.0725 55.341C42.5191 57.1262 42.0579 58.9114 41.689 60.7905C41.7812 60.8845 41.8735 60.9784 41.9657 61.1664ZM54.4173 23.6773C51.5581 22.6438 50.9124 23.1136 49.9901 25.9323C49.5289 27.3416 49.9901 27.7175 51.1891 27.8114C54.7862 28.1873 57.0921 30.2543 58.7523 33.4489C59.3057 34.4824 59.8591 35.516 60.5047 36.8314C62.7183 31.3818 59.8591 25.6504 54.4173 23.6773ZM57.1843 38.2407C57.5533 33.7308 54.8785 30.4422 50.4512 29.7845C49.3444 29.5966 48.8833 30.0664 48.791 31.006C48.6066 32.3214 49.6211 31.5697 50.0823 31.6637C53.3105 32.0395 55.5241 34.7643 54.7862 37.7709C54.2328 40.0259 53.0338 41.9051 51.3736 43.5963C51.0046 43.9721 50.5435 44.4419 50.2668 44.8178C49.8978 45.2875 49.4367 45.8513 49.8978 46.509C50.2668 47.0727 50.9124 46.6969 51.4658 46.6029C54.6018 45.6634 56.0775 43.2205 56.9998 40.1199C56.9998 39.5561 57.0921 38.8984 57.1843 38.2407ZM45.4706 46.6029C45.9318 46.6969 46.2085 46.415 46.5774 46.1332C48.6066 44.16 50.5435 42.093 52.0192 39.6501C52.5726 38.7105 52.8493 37.7709 53.0338 36.7374C53.2183 35.328 52.4804 34.1066 51.3736 33.5428C50.0823 32.8851 49.4367 34.0126 48.791 34.8582C48.2376 35.516 47.7765 36.2676 47.592 37.2072C47.8687 37.4891 47.7765 37.677 47.4075 37.7709C47.4075 37.9588 47.3153 38.1468 47.223 38.3347C47.6842 38.4286 47.7764 38.8045 47.6842 39.1803C48.2376 38.1468 48.791 37.1132 49.3444 36.0797C49.6211 35.7039 49.9901 35.2341 50.4512 35.422C51.0969 35.7039 50.9124 36.2676 50.8202 36.7374C50.4512 38.5226 48.8833 39.838 47.4075 39.5561C47.1308 39.744 46.9463 39.932 46.6696 40.0259C46.3007 41.6232 45.8395 43.2205 45.4706 44.9117C45.9318 45.5694 45.5628 46.0392 45.4706 46.6029ZM47.6842 39.1803C47.7764 38.8045 47.6842 38.4286 47.223 38.3347C47.0386 38.8984 46.9463 39.5561 46.7619 40.1199C47.0386 39.932 47.223 39.744 47.4997 39.6501C47.4997 39.4622 47.592 39.3682 47.6842 39.1803ZM45.4706 46.6029C45.5628 46.0392 45.9318 45.5694 45.5628 45.0057C45.4706 45.5694 44.825 46.0392 45.4706 46.6029ZM47.3153 37.7709C47.6842 37.677 47.7764 37.4891 47.4997 37.2072C47.4075 37.3011 47.4075 37.583 47.3153 37.7709Z" fill="#664407"/>
<path d="M40.0294 42.7507C40.5828 40.6836 39.7527 39.2743 38.9226 37.8649C37.6313 35.7978 37.6313 35.7978 39.8449 35.0462C40.7673 34.6703 41.6896 34.2005 42.5197 33.4489C42.7042 33.261 42.8886 32.9791 42.7042 32.7912C42.5197 32.5093 42.243 32.6972 42.0585 32.7912C41.6896 32.9791 41.4129 33.261 41.044 33.4489C36.4323 36.5495 31.2672 32.6972 30.7138 28.5631C30.5293 27.2477 30.4371 26.0262 30.8982 24.7108C32.005 21.8921 35.0488 20.6707 37.8158 22.2679C38.8303 22.8317 39.2915 22.9256 40.1216 21.9861C41.6896 20.1069 43.9954 19.825 45.9324 20.8586C47.9615 21.9861 48.9761 24.241 48.4227 26.59C45.5634 38.2407 42.7964 49.7975 39.8449 61.3543C38.8303 65.3945 36.8012 67.1796 33.7575 67.3676C30.6215 67.5555 28.039 65.7703 27.1166 62.9516C26.6555 61.3543 26.8399 60.9784 28.4079 60.6026C34.5876 58.9114 36.8934 51.9585 32.8351 47.4486C31.8206 46.3211 30.6215 45.6634 29.1458 45.2875C28.7769 45.1936 28.2234 45.0057 28.1312 45.4755C27.9467 46.0392 28.5924 45.9452 28.9613 46.1332C33.4808 47.5425 35.4177 52.8981 32.8351 56.8443C31.0827 59.4751 28.5001 60.1328 25.5487 60.0389C23.1506 59.9449 21.1214 58.8174 20.0146 56.4685C18.9078 54.0256 19.1845 51.6766 20.7525 49.6096C21.3059 48.8579 21.2137 48.576 20.568 48.0123C16.5097 44.348 17.801 38.3347 22.9661 36.7374C23.9807 36.4555 24.0729 36.0797 23.704 35.1401C22.3205 31.7577 24.8108 28.1873 28.3157 28.1873C29.238 28.1873 29.6992 28.4691 29.9759 29.4087C30.5293 31.5697 31.7283 33.261 33.6652 34.3885C36.709 36.0797 38.9226 38.4286 39.6604 41.999C39.6604 42.1869 39.7527 42.3749 40.0294 42.7507ZM70.7433 38.6166C70.0054 36.0797 68.1607 34.4824 66.0394 34.2945C64.4714 34.2005 64.0102 34.5764 64.1947 36.1737C64.6558 40.7776 64.3791 45.2875 63.2723 49.7975C61.7044 56.0927 58.015 60.2268 52.112 62.4818C48.6994 63.7972 45.1945 64.5488 41.5974 65.2065C40.1216 65.4884 39.8449 65.9582 40.675 67.2736C41.6896 68.9648 43.0731 70.1863 44.6411 71.3138C49.0683 74.5083 51.1897 74.2265 54.4179 69.9044C56.1703 67.6494 58.1995 66.2401 60.8743 65.5824C63.4568 64.9247 65.7626 63.7972 67.884 62.1999C71.02 59.663 71.6656 55.8108 69.1753 53.2739C68.6219 52.7102 68.5297 52.0525 69.1753 51.3948C70.0977 50.5492 70.3743 49.3277 70.6511 48.2002C71.2045 45.0057 71.7579 41.8111 70.7433 38.6166ZM42.1508 61.1664C42.6119 61.6361 43.2576 61.7301 43.811 61.8241C48.8838 62.5757 56.7237 58.5355 59.0296 53.8377C61.5199 48.764 61.3354 43.5963 59.3985 38.5226C59.3985 38.4286 59.2141 38.4286 59.0296 38.4286C58.8451 39.1803 58.6607 40.0259 58.4762 40.7776C56.7237 46.9788 53.2188 49.6096 47.5926 49.3277C46.6702 49.2338 45.8401 48.8579 44.9178 49.0458C45.1023 49.4217 45.1023 49.7035 44.6411 49.8915C44.2722 51.4887 43.811 53.086 43.442 54.7772C43.7188 55.0591 43.6265 55.247 43.2576 55.341C42.7042 57.1262 42.243 58.9114 41.8741 60.7905C41.9663 60.9784 42.0585 61.0724 42.1508 61.1664ZM54.6946 23.7713C51.8353 22.7377 51.1897 23.2075 50.2674 26.0262C49.8062 27.4356 50.2674 27.8114 51.4664 27.9054C55.0635 28.2812 57.3694 30.3483 59.0296 33.5428C59.583 34.5764 60.1364 35.6099 60.782 36.9253C62.9034 31.4758 60.1364 25.7444 54.6946 23.7713ZM57.3694 38.2407C57.7383 33.7308 55.0635 30.4422 50.6363 29.7845C49.5295 29.5966 49.0683 30.0664 48.9761 31.006C48.7916 32.3214 49.8062 31.5697 50.2674 31.6637C53.4956 32.0395 55.7091 34.7643 54.9713 37.7709C54.4179 40.0259 53.2188 41.9051 51.5586 43.5963C51.1897 43.9721 50.7285 44.4419 50.4518 44.8178C50.0829 45.2875 49.6217 45.8513 50.0829 46.509C50.4518 47.0727 51.0975 46.6969 51.6509 46.6029C54.7868 45.6634 56.2626 43.2205 57.1849 40.1199C57.1849 39.5561 57.3694 38.8984 57.3694 38.2407ZM45.7479 46.6969C46.2091 46.7909 46.4858 46.509 46.8547 46.2271C48.8838 44.254 50.8208 42.1869 52.2965 39.744C52.8499 38.8045 53.1266 37.8649 53.3111 36.8314C53.4955 35.422 52.7577 34.2005 51.6509 33.6368C50.3596 32.9791 49.7139 34.1066 49.0683 34.9522C48.5149 35.6099 48.0537 36.3616 47.8693 37.3011C48.146 37.583 48.0537 37.7709 47.6848 37.8649C47.6848 38.0528 47.5926 38.2407 47.5003 38.4286C47.9615 38.5226 48.0537 38.8984 47.9615 39.2743C48.5149 38.2407 49.0683 37.2072 49.6217 36.1737C49.8984 35.7978 50.2674 35.328 50.7285 35.516C51.3742 35.7978 51.1897 36.3616 51.0975 36.8314C50.7285 38.6166 49.1605 39.932 47.6848 39.6501C47.4081 39.838 47.2236 40.0259 46.9469 40.1199C46.578 41.7172 46.1168 43.3144 45.7479 45.0057C46.2091 45.5694 45.7479 46.1332 45.7479 46.6969ZM47.8693 39.2743C47.9615 38.8984 47.8693 38.5226 47.4081 38.4286C47.2236 38.9924 47.1314 39.6501 46.9469 40.2138C47.2236 40.0259 47.4081 39.838 47.6848 39.744C47.777 39.5561 47.777 39.3682 47.8693 39.2743ZM45.7479 46.6029C45.8401 46.0392 46.2091 45.5694 45.8401 45.0057C45.7479 45.5694 45.1023 46.1332 45.7479 46.6029ZM47.5926 37.7709C47.9615 37.677 48.0537 37.4891 47.777 37.2072C47.6848 37.3951 47.5926 37.583 47.5926 37.7709Z" fill="#FFD277"/>
<path d="M152.228 96.2875C164.505 96.2875 174.457 86.1496 174.457 73.6438C174.457 61.138 164.505 51 152.228 51C139.952 51 130 61.138 130 73.6438C130 86.1496 139.952 96.2875 152.228 96.2875Z" fill="url(#paint4_linear)"/>
<path d="M152.229 91.591C161.958 91.591 169.846 83.5564 169.846 73.6451C169.846 63.7339 161.958 55.6992 152.229 55.6992C142.5 55.6992 134.612 63.7339 134.612 73.6451C134.612 83.5564 142.5 91.591 152.229 91.591Z" fill="#E5B35A"/>
<path d="M148.747 75.2448L150.302 75.7725L149.305 74.4679C148.533 73.4559 147.614 73.339 146.87 73.2444L146.86 73.2431C146.769 73.2276 146.689 73.2147 146.619 73.2033C146.518 73.1868 146.437 73.1735 146.368 73.1606C146.397 73.0593 146.44 72.928 146.499 72.747C146.506 72.727 146.513 72.7064 146.52 72.6852C146.722 72.1658 146.833 71.6157 146.731 70.9599C146.719 70.8122 146.661 70.6752 146.606 70.5831C146.572 70.5247 146.521 70.4517 146.447 70.3871C146.38 70.3273 146.243 70.2311 146.049 70.2311C145.968 70.2311 145.853 70.2402 145.736 70.2933C145.601 70.3542 145.5 70.4565 145.439 70.5813C145.386 70.6882 145.374 70.7909 145.369 70.8489C145.364 70.9052 145.364 70.9647 145.364 71.0053L145.364 71.013C145.364 71.2135 145.357 71.2872 145.323 71.3564L145.284 71.437L145.275 71.5262C145.157 72.6877 144.483 73.4096 143.644 73.7574C142.781 74.1149 141.763 74.0672 141.028 73.6729L141.028 73.6728L141.018 73.6681C140.536 73.4226 140.149 73.1058 139.836 72.6328C139.261 71.5905 139.688 70.4239 140.796 69.9727C141.037 69.8742 141.327 69.7331 141.51 69.4546C141.703 69.1598 141.708 68.8207 141.654 68.4894C141.504 67.5721 141.951 66.786 142.718 66.5021L142.736 66.4953L142.754 66.487C143.562 66.1129 144.492 66.3424 144.991 67.0681L144.996 67.0755L145.002 67.0827L155.239 80.8944L155.241 80.8968C155.809 81.6528 156.076 82.2926 156.123 82.8468C156.169 83.3859 156.011 83.9004 155.611 84.4295C154.809 85.4918 153.649 85.8712 152.49 85.4817C152.318 85.4156 152.217 85.367 152.157 85.3284C152.157 85.3281 152.156 85.3277 152.156 85.3274C152.156 85.3249 152.157 85.3223 152.157 85.3196C152.176 85.2449 152.22 85.1308 152.308 84.9511L152.313 84.9424L152.317 84.9334C153.73 81.7452 151.63 78.2948 148.338 78.4994C147.488 78.5036 146.75 78.8261 146.135 79.3359C146.007 79.4092 145.869 79.5176 145.766 79.6636C145.642 79.8414 145.54 80.1321 145.692 80.4411L145.728 80.5135L145.784 80.5711C145.891 80.6799 146.03 80.7646 146.197 80.792C146.36 80.8189 146.502 80.7831 146.606 80.7378C146.75 80.675 146.864 80.5724 146.923 80.514C148.57 79.4302 150.65 80.2286 151.196 82.0552L151.196 82.0553L151.2 82.0676C151.584 83.2412 151.146 84.3719 150.295 85.3285C149.548 86.086 148.706 86.4463 147.731 86.2172C146.722 85.98 146.034 85.2835 145.799 84.2445L145.799 84.2445L145.797 84.2358C145.736 83.9879 145.621 83.7337 145.373 83.5655C145.141 83.4078 144.875 83.3852 144.665 83.3852H144.62L144.576 83.3933C143.461 83.5961 142.542 83.1908 142.003 82.5069C141.463 81.8217 141.273 80.8168 141.714 79.7549L141.715 79.7549L141.718 79.7459C141.812 79.507 141.92 79.1544 141.759 78.8261C141.594 78.4891 141.249 78.3776 141.004 78.3258C139.734 77.954 139.271 76.3374 140.16 75.2811L140.17 75.2687L140.18 75.2557C140.289 75.107 140.348 75.0855 140.353 75.084C140.354 75.0838 140.354 75.0837 140.354 75.0836C140.355 75.0835 140.355 75.0835 140.356 75.0834C140.357 75.0834 140.36 75.0832 140.368 75.0842C140.383 75.0864 140.417 75.0945 140.472 75.1229C141.541 75.667 142.703 75.6554 143.824 75.2402L143.834 75.2365L143.844 75.2324C145.314 74.6159 146.723 74.5483 148.036 75.2168L148.223 75.3126L148.423 75.2448C148.553 75.2008 148.58 75.2008 148.585 75.2008H148.585H148.585C148.591 75.2008 148.618 75.2008 148.747 75.2448ZM146.365 70.9317C146.366 70.9312 146.366 70.9308 146.366 70.9304L146.365 70.9317ZM151.697 72.7591C151.274 72.3013 150.902 71.7817 150.515 71.2309V71.2304V71.2301V71.2294V71.2293V71.2284V71.2284V71.2276V71.2275V71.2267V71.2265V71.2258V71.2255V71.225V71.2245V71.2241V71.2236V71.2233V71.2226V71.2224V71.2216V71.2216V71.2207V71.2206V71.2199V71.2197V71.219V71.2187V71.2182V71.2177V71.2173V71.2168V71.2165V71.2158V71.2156V71.2149V71.2148V71.2139V71.2131V71.2129V71.2122V71.212V71.2114V71.211V71.2105V71.2101V71.2097V71.2091V71.2088V71.2082V71.208V71.2072V71.2072V71.2063V71.2063V71.2055V71.2053V71.2046V71.2044V71.2038V71.2035V71.2029V71.2025V71.2021V71.2016V71.2013V71.2006V71.2004V71.1997V71.1996V71.1988V71.1987V71.1979V71.1978V71.1971V71.1969V71.1962V71.196V71.1954V71.195V71.1946V71.1941V71.1937V71.1932V71.1929V71.1923V71.1921V71.1913V71.1912V71.1904V71.1904V71.1896V71.1895V71.1887V71.1886V71.1879V71.1877V71.1871V71.1867V71.1862V71.1858V71.1854V71.1849V71.1846V71.184V71.1837V71.1831V71.1829V71.1822V71.1821V71.1812V71.1812V71.1804V71.1803V71.1796V71.1794V71.1787V71.1785V71.1779V71.1776V71.1771V71.1767V71.1763V71.1758V71.1754V71.1749V71.1746V71.174V71.1738V71.1731V71.1729V71.1722V71.1721V71.1713V71.1713V71.1705V71.1704V71.1696V71.1695V71.1688V71.1686V71.168V71.1677V71.1672V71.1668V71.1663V71.1659V71.1655V71.165V71.1647V71.1642V71.1638V71.1633V71.163V71.1624V71.1622V71.1615V71.1614V71.1606V71.1605V71.1597V71.1589V71.1588V71.1581V71.158V71.1572V71.1571V71.1564V71.1562V71.1556V71.1553V71.1548V71.1544V71.1539V71.1536V71.1531V71.1527V71.1523V71.1518V71.1515V71.1509V71.1506V71.1501V71.1498V71.1492V71.149V71.1483V71.1482V71.1474V71.1473V71.1466V71.1465V71.1457V71.1457V71.1448V71.1448V71.144V71.144V71.1432V71.1431V71.1424V71.1422V71.1415V71.1414V71.1407V71.1405V71.1399V71.1396V71.1391V71.1388V71.1382V71.1379V71.1374V71.137V71.1366V71.1362V71.1357V71.1353V71.1349V71.1345V71.1341V71.1336V71.1333V71.1327V71.1324V71.1319V71.1316V71.131V71.1308V71.1302V71.13V71.1293V71.1291V71.1285V71.1283V71.1276V71.1275V71.1268V71.1266V71.1259V71.1258V71.1251V71.125V71.1242V71.1241V71.1238C150.805 70.7821 150.93 70.3354 150.93 69.909C150.93 69.4003 150.755 68.8613 150.397 68.4361L150.385 68.4214L150.372 68.4078C150.345 68.3801 150.331 68.3648 150.313 68.3456C150.296 68.3268 150.276 68.3044 150.237 68.2634C150.183 68.2066 150.105 68.1284 150.008 68.0625C149.989 68.0496 149.968 68.0366 149.946 68.0239C150.08 68.0772 150.2 68.1571 150.304 68.2627L150.329 68.2881L150.357 68.3097C150.619 68.5102 150.852 68.8788 151.022 69.3082C151.412 70.4242 151.597 71.5483 151.697 72.7591ZM149.012 68.1259C148.993 68.1457 148.975 68.1658 148.957 68.1864C148.957 68.177 148.957 68.1678 148.958 68.1589C148.96 68.1088 148.971 68.0907 148.977 68.0824C148.983 68.0738 149.006 68.0439 149.081 68.0072C149.147 67.9894 149.211 67.9754 149.274 67.9653C149.208 67.9903 149.146 68.0234 149.088 68.0625L149.047 68.0904L149.012 68.1259ZM155.461 70.6409C155.497 69.4609 155.085 68.2617 154.278 67.0239C156.036 67.8568 157.385 69.0957 158.226 71.0243C158.678 72.072 158.737 73.6029 158.437 75.1081C158.136 76.616 157.5 77.9791 156.687 78.7248L156.677 78.7337L156.668 78.7431C156.572 78.8412 156.483 78.9302 156.393 78.997C156.386 79.0021 156.379 79.0069 156.373 79.0113C156.342 79.0032 156.311 78.9979 156.282 78.9951C155.854 78.4689 155.435 77.893 155.069 77.3147C155.078 77.1825 155.052 77.0346 154.949 76.8942C154.854 76.7664 154.733 76.6971 154.618 76.6603C154.159 76.1023 153.762 75.5421 153.359 74.9675C153.346 74.8896 153.323 74.8097 153.288 74.7323C153.304 74.7185 153.321 74.7042 153.34 74.6891C153.356 74.6761 153.373 74.6624 153.391 74.648C153.538 74.5291 153.744 74.3633 153.907 74.1484C154.877 73.0569 155.422 71.8974 155.461 70.6409ZM146.328 73.3426C146.328 73.3427 146.328 73.341 146.328 73.3373C146.328 73.3407 146.328 73.3425 146.328 73.3426ZM152.149 85.3699C152.149 85.3699 152.149 85.3696 152.149 85.369C152.149 85.3696 152.149 85.3699 152.149 85.3699ZM156.473 62.1768L156.477 62.1783C157.801 62.6838 158.741 63.7902 159.659 65.0989L159.667 65.11L159.675 65.1206C160.072 65.6262 160.306 65.9561 160.306 66.3151C160.306 66.6513 160.411 66.9739 160.7 67.1803C160.95 67.3585 161.249 67.3789 161.452 67.3789H161.48L161.508 67.3757C162.17 67.3008 162.726 67.5388 163.129 67.9964C163.541 68.4635 163.811 69.1838 163.811 70.0734C163.811 71.3219 163.548 72.5605 163.032 73.6114L163.029 73.6184L163.026 73.6254C162.424 74.9541 162.327 76.2852 162.623 77.693L162.624 77.6966C162.898 78.9523 162.852 79.623 162.582 80.0658C162.307 80.5145 161.717 80.8714 160.477 81.2455L160.469 81.248L160.461 81.2507C159.706 81.507 158.859 81.5955 158.004 81.5093C157.913 81.4975 157.847 81.4838 157.8 81.4709C157.822 81.4105 157.86 81.3277 157.922 81.2171L157.926 81.2102L157.93 81.2031L157.939 81.1852C158.763 79.6 159.609 77.9724 160.175 76.2422L160.176 76.2376C161.145 73.179 160.754 70.3823 158.813 67.7128C157.492 65.8872 155.889 64.3479 154.006 63.0965C153.89 62.9966 153.818 62.9234 153.775 62.8673C153.758 62.8452 153.749 62.8298 153.744 62.8202C153.746 62.8141 153.75 62.8056 153.756 62.7943C153.785 62.7409 153.846 62.6566 153.969 62.5313C154.538 61.9519 155.42 61.7639 156.473 62.1768ZM153.74 62.8326C153.74 62.8326 153.74 62.832 153.74 62.8308L153.74 62.8326ZM146.417 65.4145L146.405 65.4281L146.393 65.4426C146.36 65.4856 146.331 65.5182 146.308 65.5427C146.278 65.508 146.24 65.4589 146.195 65.3909C146.018 65.0975 145.909 64.883 145.851 64.716C145.794 64.5528 145.798 64.4694 145.809 64.4221C145.82 64.3749 145.854 64.2994 145.977 64.1805C146.104 64.0576 146.299 63.9153 146.591 63.7321C148.356 62.6258 150.411 62.8794 151.684 64.1201C151.524 64.0911 151.368 64.0645 151.213 64.0383L151.205 64.037C149.454 63.7396 147.775 63.9253 146.417 65.4145ZM153.19 70.6372V70.6168L153.188 70.5964C153.09 69.3966 152.697 68.172 151.981 67.2342C151.243 66.2579 150.13 65.9373 149.088 66.1925C149.366 66.1056 149.646 66.0635 149.923 66.0635C150.673 66.0635 151.451 66.3748 152.154 67.0467C152.247 67.1419 152.326 67.2251 152.387 67.3171C152.445 67.4065 152.466 67.4763 152.466 67.5366V67.7041L152.567 67.8379C153.416 68.9615 153.779 70.0643 153.274 71.3093C153.264 71.1916 153.246 71.0824 153.231 70.9929L153.229 70.9792C153.205 70.8311 153.19 70.7306 153.19 70.6372Z" fill="#664407" stroke="black"/>
<path d="M149 74.6775C148.355 73.8319 147.617 73.738 146.879 73.644C145.772 73.4561 145.772 73.5501 146.141 72.4226C146.326 71.9528 146.418 71.483 146.326 70.9192C146.326 70.8253 146.233 70.6374 146.141 70.6374C145.957 70.6374 145.957 70.7313 145.957 70.9192C145.957 71.1072 145.957 71.2951 145.864 71.483C145.588 74.2078 142.636 74.9594 140.884 74.0198C140.33 73.738 139.869 73.3621 139.5 72.7984C138.762 71.483 139.316 69.9797 140.699 69.4159C141.16 69.228 141.345 69.0401 141.253 68.4763C141.068 67.3489 141.622 66.3153 142.636 65.9395C143.651 65.4697 144.85 65.7516 145.495 66.6912C148.908 71.2951 152.321 75.899 155.733 80.5029C156.932 82.1002 157.025 83.4156 156.102 84.6371C155.18 85.8585 153.797 86.3283 152.413 85.8585C151.675 85.5766 151.583 85.3887 151.952 84.6371C153.243 81.7244 151.306 78.7177 148.447 78.9056C147.709 78.9056 147.063 79.1875 146.51 79.6573C146.326 79.7513 146.141 79.9392 146.233 80.1271C146.418 80.315 146.602 80.1271 146.695 80.0331C148.631 78.7177 151.122 79.6573 151.767 81.8183C152.229 83.2277 151.675 84.5431 150.753 85.5766C149.923 86.4222 148.908 86.892 147.709 86.6102C146.51 86.3283 145.68 85.4827 145.403 84.2612C145.311 83.8854 145.127 83.7914 144.758 83.7914C142.175 84.2612 140.33 81.9123 141.345 79.4694C141.529 78.9996 141.437 78.8117 140.976 78.7177C139.316 78.2479 138.762 76.1809 139.869 74.8655C140.146 74.4896 140.423 74.3957 140.792 74.5836C141.714 75.0534 142.728 75.0534 143.743 74.6775C145.311 74.0198 146.879 73.9259 148.355 74.6775C148.631 74.6775 148.724 74.5836 149 74.6775ZM156.748 61.6175C155.549 61.1477 154.442 61.3356 153.704 62.0872C153.151 62.651 153.243 62.9329 153.797 63.4026C155.641 64.6241 157.209 66.1274 158.5 67.9126C160.345 70.4495 160.714 73.0803 159.792 75.993C159.238 77.6842 158.408 79.2815 157.578 80.8787C157.209 81.5365 157.301 81.8183 158.039 81.9123C158.962 82.0062 159.884 81.9123 160.714 81.6304C163.204 80.8787 163.758 80.0331 163.204 77.4963C162.928 76.1809 163.02 74.9594 163.573 73.738C164.127 72.6105 164.403 71.2951 164.403 69.9797C164.403 68.0066 163.204 66.5972 161.544 66.7851C161.175 66.7851 160.899 66.6912 160.899 66.2214C160.899 65.6576 160.53 65.1878 160.161 64.718C159.238 63.4026 158.224 62.1812 156.748 61.6175ZM156.379 79.4694C156.656 79.4694 156.932 79.1875 157.117 78.9996C158.962 77.3084 159.792 73.0803 158.777 70.7313C157.67 68.1945 155.733 66.7851 153.243 65.9395C153.243 65.9395 153.151 66.0335 153.059 66.0335C153.243 66.3153 153.52 66.6912 153.797 66.973C155.549 69.5099 155.457 71.6709 153.612 73.738C153.335 74.1138 152.874 74.3017 152.69 74.6775C152.874 74.6775 152.966 74.8655 152.966 75.0534C153.428 75.7111 153.889 76.3688 154.442 77.0265C154.627 77.0265 154.719 77.1204 154.627 77.3084C155.088 78.06 155.641 78.8117 156.195 79.4694C156.287 79.4694 156.379 79.4694 156.379 79.4694ZM146.418 63.3087C145.219 64.0603 145.127 64.4362 145.864 65.6576C146.233 66.2214 146.51 66.2214 146.879 65.7516C148.078 64.4362 149.554 64.2483 151.214 64.5301C151.767 64.6241 152.321 64.7181 152.966 64.906C151.767 62.4631 148.816 61.8054 146.418 63.3087ZM152.597 66.5972C151.029 65.0939 149 65.0939 147.432 66.5972C147.063 66.973 147.063 67.2549 147.34 67.6307C147.801 68.1005 147.801 67.4428 147.986 67.3489C149.093 66.2214 150.753 66.2214 151.675 67.4428C152.321 68.2884 152.69 69.4159 152.782 70.5434C152.782 70.8253 152.874 71.1072 152.874 71.389C152.966 71.6709 153.059 72.0467 153.335 72.0467C153.704 72.0467 153.704 71.6709 153.797 71.483C154.442 69.9797 153.981 68.6643 153.059 67.4428C153.059 67.067 152.782 66.8791 152.597 66.5972ZM152.136 73.644C152.321 73.4561 152.321 73.2682 152.321 73.0803C152.229 71.6709 152.044 70.3555 151.583 69.0401C151.398 68.5703 151.122 68.1005 150.753 67.8186C150.292 67.3489 149.646 67.2549 149 67.4428C148.355 67.7247 148.539 68.2884 148.724 68.8522C148.816 69.228 148.908 69.6978 149.185 69.9797C149.369 69.9797 149.369 70.0736 149.369 70.2615C149.462 70.3555 149.462 70.4495 149.554 70.5434C149.738 70.4495 149.923 70.4495 150.015 70.6374C149.83 70.0736 149.554 69.6038 149.369 69.0401C149.277 68.8522 149.277 68.5703 149.462 68.3824C149.738 68.1945 149.923 68.4764 150.107 68.6643C150.661 69.322 150.661 70.3555 150.107 70.8253C150.107 71.0132 150.107 71.1072 150.107 71.2951C150.568 71.9528 151.029 72.6105 151.583 73.1742C151.86 73.1742 151.952 73.4561 152.136 73.644ZM150.015 70.5434C149.83 70.3555 149.738 70.3555 149.554 70.4495C149.738 70.7313 149.923 70.9192 150.107 71.2011C150.107 71.0132 150.107 70.9192 150.107 70.7313C150.107 70.7313 150.107 70.6374 150.015 70.5434ZM152.136 73.644C151.952 73.4561 151.86 73.1742 151.583 73.1742C151.767 73.3621 151.767 73.738 152.136 73.644ZM149.369 70.2615C149.462 70.0736 149.369 69.9797 149.185 69.9797C149.277 70.0736 149.369 70.1676 149.369 70.2615Z" fill="#FFD277"/>
<path d="M129.165 256.919C132.018 256.919 134.33 252.46 134.33 246.96C134.33 241.459 132.018 237 129.165 237C126.313 237 124 241.459 124 246.96C124 252.46 126.313 256.919 129.165 256.919Z" fill="url(#paint5_linear)"/>
<path d="M129.718 254.852C131.654 254.852 133.223 251.319 133.223 246.96C133.223 242.601 131.654 239.067 129.718 239.067C127.783 239.067 126.213 242.601 126.213 246.96C126.213 251.319 127.783 254.852 129.718 254.852Z" fill="#E5B35A"/>
<defs>
<linearGradient id="paint0_linear" x1="109.157" y1="149.134" x2="156.833" y2="188.404" gradientUnits="userSpaceOnUse">
<stop stop-color="#FFFFE3"/>
<stop offset="0.1817" stop-color="#FDCF74"/>
<stop offset="1" stop-color="#F6C266"/>
</linearGradient>
<linearGradient id="paint1_linear" x1="171.015" y1="206.648" x2="190.745" y2="222.9" gradientUnits="userSpaceOnUse">
<stop stop-color="#FFFFE3"/>
<stop offset="0.1817" stop-color="#FDCF74"/>
<stop offset="1" stop-color="#F6C266"/>
</linearGradient>
<linearGradient id="paint2_linear" x1="198.983" y1="78.9301" x2="254.296" y2="153.693" gradientUnits="userSpaceOnUse">
<stop stop-color="#FFFFE3"/>
<stop offset="0.1817" stop-color="#FDCF74"/>
<stop offset="1" stop-color="#F6C266"/>
</linearGradient>
<linearGradient id="paint3_linear" x1="18.9473" y1="8.95558" x2="74.2605" y2="83.718" gradientUnits="userSpaceOnUse">
<stop stop-color="#FFFFE3"/>
<stop offset="0.1817" stop-color="#FDCF74"/>
<stop offset="1" stop-color="#F6C266"/>
</linearGradient>
<linearGradient id="paint4_linear" x1="130.054" y1="72.4676" x2="174.453" y2="74.7138" gradientUnits="userSpaceOnUse">
<stop stop-color="#FFFFE3"/>
<stop offset="0.1817" stop-color="#FDCF74"/>
<stop offset="1" stop-color="#F6C266"/>
</linearGradient>
<linearGradient id="paint5_linear" x1="124.76" y1="239.075" x2="133.895" y2="254.606" gradientUnits="userSpaceOnUse">
<stop stop-color="#FFD277"/>
<stop offset="1" stop-color="#F6C266"/>
</linearGradient>
</defs>
</svg>
