<svg width="1440" height="619" viewBox="0 0 1440 619" fill="none" xmlns="http://www.w3.org/2000/svg">
<path d="M477 517C292.6 517 84.1667 452 3 419.5L-54 0C44.5 2.66667 292.9 22.1 498.5 78.5C755.5 149 832 319.5 1024.5 447C1178.5 549 1411.67 576.167 1509 577C1479.33 581.5 1373.9 590.5 1189.5 590.5C959 590.5 707.5 517 477 517Z" fill="url(#paint0_linear)"/>
<path d="M859.369 583.724C859.369 583.724 823.191 484.256 923.574 379.549L928.647 404.748L930.477 371.232C930.477 371.232 984.036 322.413 1034.52 299.459C1034.52 299.459 1001.5 372.147 997.426 377.719L968.734 399.343L993.684 388.032C993.684 388.115 974.223 477.52 859.369 583.724Z" fill="url(#paint1_linear)"/>
<path d="M859.369 588.547C859.369 583.724 897.792 427.869 1030.36 305.696L1034.6 299.542" stroke="url(#paint2_linear)" stroke-width="0.8376" stroke-miterlimit="10"/>
<path d="M789.01 325.323C787.846 328.068 795.663 366.74 800.903 374.309C806.143 381.877 825.853 407.825 825.853 407.825C825.853 407.825 813.378 372.812 809.636 365.576C805.893 358.341 789.01 325.323 789.01 325.323Z" fill="#FFCD6A"/>
<path d="M780.028 372.063C778.614 363.83 790.923 388.281 801.568 393.021C812.214 397.762 824.439 420.051 824.439 420.051C824.439 420.051 818.368 420.051 809.22 414.229C799.988 408.49 781.858 383.041 780.028 372.063Z" fill="#FFCD6A"/>
<path d="M826.186 382.21C825.271 379.798 815.124 366.74 810.384 347.03C805.643 327.319 807.14 315.593 807.14 315.593C807.14 315.593 825.853 358.424 826.685 366.574C827.516 374.725 826.186 382.21 826.186 382.21Z" fill="#FFCD6A"/>
<path d="M828.431 365.243C827.516 358.257 824.273 343.204 830.427 332.808C836.581 322.412 841.322 314.678 841.322 314.678C841.322 314.678 838.827 330.313 837.663 339.378C836.498 348.444 828.431 365.243 828.431 365.243Z" fill="#FFCD6A"/>
<path d="M827.516 379.797C827.516 379.797 825.686 378.217 832.256 372.395C838.827 366.574 843.484 362.997 852.216 360.087C860.949 357.176 877 355.679 877 355.679L853.713 371.647L827.516 379.797Z" fill="#FFCD6A"/>
<path d="M824.522 395.35C824.522 395.35 837.496 385.702 847.393 381.96C857.29 378.134 864.775 375.806 873.507 374.309C882.24 372.812 885.982 374.891 885.982 374.891C885.982 374.891 865.856 388.364 862.696 390.942C859.535 393.52 855.46 390.277 848.474 392.605C841.405 394.934 824.522 395.35 824.522 395.35Z" fill="#FFCD6A"/>
<path d="M824.938 414.229C823.524 412.898 830.26 404.332 837.662 402.17C845.064 400.007 853.464 394.518 860.533 393.354C867.602 392.273 879.163 389.528 879.163 389.528C879.163 389.528 869.099 394.019 860.949 400.423C852.799 406.827 850.137 410.154 841.322 411.651C832.506 413.148 824.938 414.229 824.938 414.229Z" fill="#FFCD6A"/>
<path d="M825.354 430.03C828.598 425.04 826.934 425.706 837.081 420.466C847.227 415.227 855.128 410.32 861.033 407.575C866.937 404.831 876.668 401.587 877.999 398.76C879.329 395.932 876.419 404.914 876.419 404.914L862.613 419.468L842.32 431.444L825.354 430.03Z" fill="#FFCD6A"/>
<path d="M822.776 432.775C819.698 430.695 809.718 422.462 802.067 419.967C794.416 417.472 783.937 411.401 775.703 409.488C767.553 407.492 762.479 408.49 762.479 408.49C762.479 408.49 793.085 434.355 805.227 436.268C817.37 438.097 822.776 432.775 822.776 432.775Z" fill="#FFCD6A"/>
<path d="M827.433 449.99C827.932 447.495 835.251 439.761 857.207 431.777C879.163 423.709 894.798 417.389 894.798 417.389L855.544 452.319C855.544 452.319 824.605 464.544 827.433 449.99Z" fill="#FFCD6A"/>
<path d="M824.938 448.161C825.603 446.581 824.938 443.254 795.497 444.003C766.056 444.751 763.81 449.741 763.81 449.741C763.81 449.741 803.314 464.046 812.795 458.723C822.276 453.317 821.362 456.977 824.938 448.161Z" fill="#FFCD6A"/>
<path d="M828.264 358.673C828.264 358.673 817.702 417.056 825.021 448.161C832.34 479.265 843.9 515.692 843.9 515.692L846.062 521.348C846.062 521.348 830.926 460.553 829.096 452.485C827.266 444.418 823.025 426.704 826.767 388.447C830.51 350.19 831.342 352.352 831.342 352.352L828.264 358.673Z" fill="#FFCD6A"/>
<path d="M856.125 589.379C856.125 589.379 938.793 466.791 999.172 432.526L995.762 459.971L1007.24 427.785C1007.24 427.785 1044.17 409.572 1070.86 406.245C1070.86 406.245 1039.34 468.537 1021.54 486.584C1003.75 504.632 988.194 521.598 988.194 521.598L966.903 510.37L983.121 525.091C983.121 525.091 888.144 586.884 856.125 589.379Z" fill="url(#paint3_linear)"/>
<path d="M868.683 585.054C868.683 585.054 858.953 513.863 825.353 480.014C791.837 446.248 774.372 446.248 774.372 446.248C774.372 446.248 811.88 576.903 868.683 585.054Z" fill="url(#paint4_linear)"/>
<path d="M721.728 566.425C721.728 566.425 641.471 467.456 634.153 392.19C626.834 316.924 626.834 316.841 626.834 316.841L682.722 387.949L676.901 419.469L686.465 397.43C686.465 397.43 716.821 439.678 721.644 454.815C726.468 469.951 730.71 566.425 730.71 566.425H721.728Z" fill="#DA6C33"/>
<path d="M709.336 564.428C708.005 561.351 663.677 502.219 663.677 502.219L680.477 482.675L660.101 497.562L657.939 495.233L680.061 475.19L655.111 491.324L649.788 483.923L673.823 462.05L643.8 474.192L640.972 470.283L656.358 463.463L639.143 467.539L625.753 448.743L622.925 444.086L637.563 430.862L619.349 440.177L578.847 396.348C578.847 396.348 654.446 417.722 689.376 459.388C724.306 501.055 732.123 573.909 732.123 573.909L724.223 581.062L709.336 564.428Z" fill="url(#paint5_linear)"/>
<path d="M348.64 554.448C348.64 554.448 319.365 501.804 303.647 441.84L328.514 444.086L302.067 434.438C302.067 434.438 284.934 346.697 296.578 310.021C296.578 310.021 356.874 391.275 365.024 419.967C373.174 448.66 373.507 463.796 373.507 463.796L364.442 484.172L376.418 469.119C376.418 469.119 383.154 524.508 381.158 539.894C379.246 555.28 372.093 578.068 372.093 578.068C372.093 578.068 354.794 566.258 348.64 554.448Z" fill="#D52F52"/>
<path d="M296.578 310.104C296.578 310.104 310.55 381.627 328.514 411.151C346.478 440.676 377.333 578.068 377.333 578.068" stroke="#F58279" stroke-miterlimit="10"/>
<path d="M299.738 447.496C301.734 448.328 317.453 472.862 318.534 479.599C319.615 486.335 322.443 510.121 322.443 510.121C322.443 510.121 311.132 485.171 309.386 479.432C307.639 473.694 299.738 447.496 299.738 447.496Z" fill="#FFCD6A"/>
<path d="M328.431 467.706C324.938 462.633 331.009 481.844 327.766 489.828C324.522 497.813 329.512 515.86 329.512 515.86C329.512 515.86 332.673 512.783 334.585 504.965C336.498 497.23 333.088 474.443 328.431 467.706Z" fill="#FFCD6A"/>
<path d="M309.136 496.731C308.387 494.984 307.057 482.842 299.488 470.034C291.92 457.143 285.101 451.737 285.101 451.737C285.101 451.737 297.077 484.089 300.819 488.747C304.562 493.404 309.136 496.731 309.136 496.731Z" fill="#FFCD6A"/>
<path d="M299.322 488.83C296.245 484.672 290.257 475.024 281.608 472.612C272.959 470.2 266.555 468.537 266.555 468.537C266.555 468.537 275.869 475.523 281.109 479.765C286.348 484.089 299.322 488.83 299.322 488.83Z" fill="#FFCD6A"/>
<path d="M307.223 496.149C307.223 496.149 307.39 494.319 300.903 494.652C294.416 494.984 290.091 495.4 284.02 498.311C277.948 501.222 268.634 508.707 268.634 508.707L289.176 505.214L307.223 496.149Z" fill="#FFCD6A"/>
<path d="M316.788 502.802C316.788 502.802 304.978 504.299 297.825 507.376C290.59 510.453 285.434 513.031 280.028 516.691C274.622 520.35 273.707 523.427 273.707 523.427C273.707 523.427 291.255 520.267 294.249 520.017C297.243 519.768 297.742 516.025 302.649 513.613C307.639 511.285 316.788 502.802 316.788 502.802Z" fill="#FFCD6A"/>
<path d="M326.186 513.032C326.269 511.618 318.285 510.537 313.295 513.198C308.305 515.86 300.986 517.19 296.661 520.268C292.337 523.345 284.852 527.753 284.852 527.753C284.852 527.753 292.503 525.008 300.071 524.176C307.639 523.345 310.8 523.761 316.289 520.101C321.695 516.359 326.186 513.032 326.186 513.032Z" fill="#FFCD6A"/>
<path d="M334.087 521.598C329.845 520.6 331.009 520.101 322.942 522.512C314.875 524.924 308.138 526.338 303.647 527.918C299.156 529.498 292.254 532.742 290.174 531.91C288.012 531.079 294.166 534.405 294.166 534.405L308.97 535.071L325.853 530.995L334.087 521.598Z" fill="#FFCD6A"/>
<path d="M336.831 521.764C337.413 519.103 338.494 509.622 341.239 504.383C343.983 499.143 346.478 490.577 349.805 485.337C353.132 480.098 356.375 478.019 356.375 478.019C356.375 478.019 353.381 507.377 347.892 514.612C342.403 521.764 336.831 521.764 336.831 521.764Z" fill="#FFCD6A"/>
<path d="M343.235 533.241C341.738 532.16 333.837 531.828 318.119 538.814C302.4 545.8 290.84 550.457 290.84 550.457L329.513 548.877C329.513 548.877 352.134 539.562 343.235 533.241Z" fill="#FFCD6A"/>
<path d="M343.567 531.079C342.403 530.58 341.072 528.501 357.04 513.78C373.009 499.059 376.834 500.556 376.834 500.556C376.834 500.556 363.195 528.417 355.46 530.413C347.726 532.409 349.971 533.906 343.567 531.079Z" fill="#FFCD6A"/>
<path d="M295.995 485.254C295.995 485.254 331.507 510.786 343.567 530.996C355.626 551.205 368.101 576.488 368.101 576.488L369.847 580.647C369.847 580.647 346.727 540.643 343.567 535.487C340.406 530.247 333.587 518.687 312.046 500.39C290.423 482.01 291.088 483.591 291.088 483.591L295.995 485.254Z" fill="#FFCD6A"/>
<path d="M368.6 565.426C368.6 565.426 356.374 491.408 359.202 454.066C362.03 416.724 368.6 399.342 368.6 399.342L371.76 403.916L370.014 396.514L383.237 362.665C383.237 362.665 399.371 412.233 402.116 425.789C404.861 439.345 405.027 452.07 405.027 452.07L394.049 457.309H405.027C405.027 457.309 401.118 557.525 386.065 575.905C371.012 594.285 368.6 565.426 368.6 565.426Z" fill="#DA6C33"/>
<path opacity="0.5" d="M383.237 364.828C383.237 364.828 387.811 525.673 376.833 581.062" stroke="#FFCD6A" stroke-width="0.9951" stroke-miterlimit="10"/>
<path d="M423.989 599.608C518.977 599.608 595.979 594.172 595.979 587.466C595.979 580.76 518.977 575.323 423.989 575.323C329.002 575.323 252 580.76 252 587.466C252 594.172 329.002 599.608 423.989 599.608Z" fill="#E1DECF"/>
<path d="M806.474 599.608C901.461 599.608 978.464 594.172 978.464 587.466C978.464 580.76 901.461 575.323 806.474 575.323C711.487 575.323 634.485 580.76 634.485 587.466C634.485 594.172 711.487 599.608 806.474 599.608Z" fill="#E1DECF"/>
<path d="M866.604 618.654C912.766 618.654 950.187 613.218 950.187 606.512C950.187 599.806 912.766 594.369 866.604 594.369C820.443 594.369 783.021 599.806 783.021 606.512C783.021 613.218 820.443 618.654 866.604 618.654Z" fill="#E1DECF"/>
<path d="M406.191 481.095C406.191 481.095 411.847 543.471 372.176 551.954C372.176 551.954 366.022 558.524 367.436 562.848C368.849 567.09 396.71 565.676 411.847 543.471C422.659 527.586 431.724 507.127 434.385 490.992C435.466 484.588 435.549 478.933 434.385 474.525C430.31 458.89 406.191 481.095 406.191 481.095Z" fill="#FFC197"/>
<path d="M473.723 572.246C471.727 570.915 443.783 494.734 434.385 490.992C424.987 487.249 457.007 470.283 459.418 477.768C461.83 485.253 484.036 545.3 484.951 570.333C485.034 570.333 480.792 576.903 473.723 572.246Z" fill="#FFC197"/>
<path d="M454.095 347.446C454.095 347.446 480.875 355.098 502.582 337.632C524.288 320.167 505.825 338.464 505.825 338.464C505.825 338.464 485.117 370.151 456.424 361.002C427.648 351.937 454.095 347.446 454.095 347.446Z" fill="#F2B78F"/>
<path d="M451.934 346.365C452.349 346.282 467.818 349.11 467.818 349.11C467.818 349.11 470.48 365.909 467.818 365.743C465.157 365.577 456.591 363.497 456.591 363.497C456.591 363.497 445.53 347.696 451.934 346.365Z" fill="#ED6E77"/>
<path d="M434.468 337.633C433.47 337.882 422.243 345.534 421.827 361.419C421.411 377.303 419.665 395.018 413.51 410.986C407.356 426.954 395.629 486.918 398.707 491.242C401.784 495.567 453.763 499.226 465.739 485.67C465.739 485.67 452.266 417.14 452.017 412.816C451.767 408.491 463.66 384.289 460.832 363.664C458.005 343.039 452.017 344.951 452.017 344.951L434.468 337.633Z" fill="url(#paint6_linear)"/>
<path d="M438.377 316.508C438.377 316.508 435.633 335.553 434.468 337.632C433.304 339.711 452.349 347.363 451.933 345.034C451.601 342.705 442.286 336.967 443.201 333.224C444.033 329.565 446.195 317.922 446.195 317.922L438.377 316.508Z" fill="#F2BC97"/>
<path d="M464.575 260.203C459.335 260.203 454.844 263.53 453.181 268.187C452.183 268.104 451.185 268.021 450.104 268.021C435.383 268.021 423.407 279.997 423.407 294.717C423.407 309.438 435.383 321.414 450.104 321.414C464.242 321.414 475.719 310.436 476.717 296.63C476.717 296.547 476.717 296.464 476.717 296.381C476.717 296.214 476.717 296.048 476.717 295.965C476.717 295.799 476.717 295.549 476.717 295.383V272.512C476.8 265.692 471.311 260.203 464.575 260.203Z" fill="#FFC197"/>
<path d="M462.995 250.391C462.995 250.391 436.299 242.074 423.491 256.878C410.683 271.681 413.677 292.723 413.677 292.723C413.677 292.723 391.222 297.546 395.63 322.33C400.038 347.114 441.455 335.803 434.968 312.184C428.481 288.564 431.475 280.747 431.475 280.747L461.082 265.693L462.995 250.391Z" fill="url(#paint7_linear)"/>
<path d="M455.843 258.706C455.843 258.706 469.815 280.912 476.801 281.161C483.787 281.411 479.629 258.29 471.977 254.298C464.326 250.39 461.249 249.891 461.249 249.891L455.843 258.706Z" fill="#410F0B"/>
<path d="M460.832 261.783C460.832 261.783 460.417 288.23 445.613 295.05C430.809 301.87 438.377 294.218 438.377 294.218L438.627 298.876C438.627 298.876 442.453 302.951 438.544 306.194C434.552 309.438 430.976 310.519 430.976 310.519L421.827 287.482L425.32 275.672L440.706 268.187L460.832 261.783Z" fill="#410F0B"/>
<path d="M476.8 286.235C476.8 286.235 480.293 293.471 479.212 294.802C478.131 296.132 476.717 296.548 476.717 296.548L476.8 286.235Z" fill="#E29865"/>
<path d="M464.991 300.955C464.991 300.955 469.066 303.367 470.647 302.702C470.73 302.702 467.237 306.86 464.991 300.955Z" fill="#E29865"/>
<path d="M465.656 288.314C465.656 288.314 468.318 285.986 469.731 286.734C471.062 287.4 467.819 284.489 465.656 288.314Z" fill="#E29865"/>
<path d="M429.479 290.144C429.479 290.144 434.136 283.241 434.385 283.491C434.635 283.74 432.306 291.309 431.391 291.558C430.56 291.808 429.479 291.059 429.479 290.144Z" fill="#FFCD6A"/>
<path d="M434.385 293.138C434.385 293.138 439.042 286.236 439.292 286.485C439.541 286.735 437.212 294.303 436.298 294.552C435.466 294.802 434.385 294.053 434.385 293.138Z" fill="#FFCD6A"/>
<path d="M490.855 310.603C491.188 310.437 535.267 285.902 535.683 288.314C536.182 290.726 536.182 338.131 533.77 340.46C531.441 342.789 493.849 367.24 493.184 364.745C492.519 362.333 488.61 311.851 490.855 310.603Z" fill="#A3BCC1"/>
<path d="M492.852 312.017C493.184 311.85 533.271 289.562 533.687 291.724C534.103 293.886 534.103 337.05 531.94 339.212C529.778 341.375 495.596 363.58 495.014 361.335C494.432 359.089 490.773 313.181 492.852 312.017Z" fill="#3A5A74"/>
<path d="M440.29 303.949C443.551 303.949 446.194 301.306 446.194 298.045C446.194 294.783 443.551 292.14 440.29 292.14C437.028 292.14 434.385 294.783 434.385 298.045C434.385 301.306 437.028 303.949 440.29 303.949Z" fill="#FFC197"/>
<path d="M431.89 361.75C433.636 373.81 448.107 400.589 470.063 392.19C492.02 383.79 497.259 356.428 498.257 355.18C499.338 353.85 505.326 350.19 507.489 348.86C509.568 347.529 511.397 343.62 510.15 342.788C508.819 342.04 501.251 341.707 497.259 342.788C493.267 343.87 490.439 348.277 490.439 350.689C490.439 353.101 481.624 373.56 468.151 376.471C454.678 379.382 449.188 355.929 446.194 353.933C440.789 350.273 429.561 345.533 431.89 361.75Z" fill="#FFC197"/>
<path d="M434.469 374.559C434.469 374.559 455.842 365.909 454.013 362.749C452.183 359.589 442.785 344.868 436.548 347.862C430.31 350.856 427.566 359.339 434.469 374.559Z" fill="#EF6C8B"/>
<path d="M372.176 551.87C372.176 551.87 358.537 547.712 357.04 552.785C355.46 557.858 359.701 582.059 360.783 583.806C361.864 585.552 372.925 585.968 373.507 584.721C374.089 583.473 368.018 577.485 367.27 575.489C366.521 573.493 368.018 564.262 368.517 563.181C368.933 562.016 369.432 552.618 372.176 551.87Z" fill="#3F0C0B"/>
<path d="M473.724 572.247C473.724 572.247 468.734 586.053 473.724 585.554C478.714 584.971 504.246 587.217 504.662 585.554C505.078 583.89 492.02 572.912 485.034 570.417C478.048 567.756 473.724 572.247 473.724 572.247Z" fill="#3F0C0B"/>
<path d="M534.435 319.086C534.435 319.086 538.926 320.999 538.511 323.743C538.095 326.488 538.511 331.81 534.435 332.892C530.443 334.056 534.435 319.086 534.435 319.086Z" fill="#F2B78F"/>
<path d="M503.746 326.073L507.322 315.011C507.405 314.762 507.489 314.595 507.655 314.429L508.902 313.182L509.651 339.629C509.651 339.961 509.485 340.294 509.318 340.544L507.988 341.791C507.821 341.957 507.655 341.791 507.655 341.625L507.405 320.417C507.405 320.168 507.073 320.084 506.99 320.334L505.077 325.906C505.077 325.989 504.994 326.073 504.827 326.073H503.746Z" fill="#FFCD6A"/>
<path d="M512.729 320.583L516.305 309.522C516.388 309.273 516.471 309.106 516.637 308.94L517.885 307.692L518.633 334.139C518.633 334.472 518.467 334.805 518.301 335.054L516.97 336.302C516.804 336.468 516.637 336.302 516.637 336.135L516.388 314.928C516.388 314.678 516.055 314.595 515.972 314.845L514.059 320.417C514.059 320.5 513.976 320.583 513.81 320.583H512.729Z" fill="#FFCD6A"/>
<path d="M521.793 318.503L527.366 314.428C527.615 314.262 527.948 314.428 527.948 314.678V316.092C527.948 316.175 527.865 316.341 527.781 316.424L522.209 320.084C521.96 320.25 521.71 320.084 521.71 319.751V318.753C521.627 318.67 521.71 318.503 521.793 318.503Z" fill="#FFCD6A"/>
<path d="M524.206 313.763C524.039 313.929 523.956 314.179 523.956 314.428L524.206 321.83L525.37 320.749C525.536 320.582 525.703 320.25 525.619 320L525.037 313.264L524.206 313.763Z" fill="#FFCD6A"/>
<path d="M806.475 575.822C806.475 575.822 810.55 588.048 820.53 592.788C830.51 597.529 856.292 611.251 856.292 604.681C856.292 598.111 846.561 579.98 831.342 574.575C816.122 569.169 815.29 568.254 815.29 568.254L806.475 575.822Z" fill="#3F0C0B"/>
<path d="M745.18 557.775C745.18 557.775 754.661 574.159 751.667 579.232C748.59 584.306 680.809 584.638 680.559 582.227C679.977 576.737 712.994 562.183 725.303 561.767C737.612 561.435 745.18 557.775 745.18 557.775Z" fill="#3F0C0B"/>
<path d="M728.88 326.986C728.88 326.986 713.827 374.308 713.078 449.824C712.33 525.34 723.391 561.767 725.304 561.767C727.217 561.767 745.43 561.767 745.43 556.777C745.43 551.787 755.743 428.367 755.743 428.367L741.272 332.974L728.88 326.986Z" fill="url(#paint8_linear)"/>
<path d="M774.289 332.975C774.289 332.975 796.827 361.834 801.651 411.318C806.475 460.802 824.439 569.502 822.526 571.913C820.613 574.325 809.469 578.733 806.558 575.822C803.647 572.911 759.901 457.559 752.499 432.692C748.674 419.635 729.462 334.638 741.355 332.975C753.165 331.311 774.289 332.975 774.289 332.975Z" fill="url(#paint9_linear)"/>
<path d="M723.557 223.278C723.557 223.278 719.399 223.444 711.248 250.141C703.098 276.838 697.942 294.469 694.615 297.38C691.372 300.291 699.855 310.104 699.855 310.104C699.855 310.104 719.565 296.465 723.557 278.335C727.549 260.287 753.414 209.722 723.557 223.278Z" fill="#F6C266"/>
<path d="M734.286 219.535C747.01 216.791 777.782 214.628 787.429 231.012C797.576 248.394 788.594 315.76 777.117 330.064C765.64 344.369 735.616 338.797 731.541 332.975C727.466 327.153 703.68 252.303 717.236 231.595C722.31 223.943 721.811 222.197 734.286 219.535Z" fill="#FFCD6A"/>
<path d="M745.596 204.481C745.596 204.481 741.521 221.448 743.351 224.358C745.181 227.186 752.749 228.101 754.578 224.358C756.408 220.616 756.907 203.068 756.491 201.654C755.992 200.24 745.596 204.481 745.596 204.481Z" fill="#F2B78F"/>
<path d="M711.498 134.538C710.916 136.867 710.833 171.381 718.234 185.104C725.636 198.827 765.64 171.298 766.554 168.886C767.469 166.475 769.715 142.522 769.715 142.522L751.834 124.143L711.498 134.538Z" fill="#F2B78F"/>
<path d="M772.792 152.752C771.544 153.5 770.297 163.896 769.632 165.975C768.966 168.054 771.212 187.599 771.212 187.599C771.212 187.599 782.855 177.618 784.602 157.159C786.348 136.7 773.54 147.179 773.54 147.179L772.792 152.752Z" fill="#F2B78F"/>
<path d="M738.277 158.823C738.277 158.823 743.85 157.243 745.014 156.328C746.095 155.496 740.939 165.31 738.277 158.823Z" fill="#E29865"/>
<path d="M721.894 163.48C721.894 163.48 716.155 164.229 714.741 163.896C713.327 163.564 721.977 170.55 721.894 163.48Z" fill="#E29865"/>
<path d="M729.379 164.312C729.379 164.312 727.798 177.786 729.379 178.201C730.959 178.617 734.285 177.536 734.285 176.372C734.285 175.374 729.379 164.312 729.379 164.312Z" fill="#E29865"/>
<path d="M777.949 121.731C766.971 109.505 745.597 112.166 745.597 112.166C742.27 109.256 733.288 102.02 725.304 101.105C715.157 100.024 705.926 107.343 703.93 119.901C701.934 132.459 713.328 142.273 727.466 142.522C738.86 142.689 747.759 133.873 750.753 130.38C752.416 139.528 765.307 150.091 765.307 150.091C765.39 150.34 765.557 150.673 765.723 150.922L761.565 167.556C761.565 167.556 749.006 179.449 740.108 180.53C731.126 181.611 718.65 180.613 717.486 182.692C717.153 183.357 717.07 207.642 730.211 208.308C743.434 208.973 763.145 206.977 770.963 192.173C778.78 177.369 770.963 168.637 770.963 165.976C770.963 164.395 772.21 159.488 773.291 155.829C779.778 157.742 787.596 157.243 787.596 157.243C787.596 157.243 788.927 133.956 777.949 121.731Z" fill="url(#paint10_linear)"/>
<path d="M743.351 187.017C742.685 186.684 749.505 185.021 750.42 183.025C751.335 181.029 749.921 189.844 743.351 187.017Z" fill="#E29865"/>
<path d="M783.188 171.382C787.552 171.382 791.089 167.844 791.089 163.481C791.089 159.117 787.552 155.58 783.188 155.58C778.824 155.58 775.287 159.117 775.287 163.481C775.287 167.844 778.824 171.382 783.188 171.382Z" fill="#F2B78F"/>
<path d="M651.617 295.883C651.617 295.883 648.374 322.912 651.617 326.073C654.861 329.233 685.466 343.87 687.878 342.456C690.29 341.126 691.205 301.621 687.878 299.875C684.551 298.045 653.364 287.234 651.95 289.396C650.536 291.558 651.617 295.883 651.617 295.883Z" fill="#F27599"/>
<path d="M717.402 306.362C717.07 308.857 713.078 337.134 713.078 337.134L687.878 342.457C687.878 342.457 684.385 300.208 687.878 299.875C691.371 299.542 716.987 295.55 717.402 299.875C717.818 304.2 717.402 306.362 717.402 306.362Z" fill="#EF6C8B"/>
<path d="M650.12 284.655C648.79 284.571 650.869 298.793 650.12 299.874C649.372 300.955 686.797 316.092 687.213 314.179C687.629 312.266 687.795 298.876 687.213 297.878C686.631 296.88 651.118 284.655 650.12 284.655Z" fill="#ED6E77"/>
<path d="M717.652 308.192C717.236 308.192 687.296 314.096 687.296 314.096V297.796C687.296 297.796 716.654 295.134 717.652 296.299C718.65 297.546 717.652 308.192 717.652 308.192Z" fill="#E06C7A"/>
<path d="M650.121 284.655C650.121 284.655 685.217 285.071 687.629 285.487C690.041 285.903 720.397 296.049 717.569 296.299C714.741 296.631 689.292 297.546 687.213 297.796C685.134 298.045 650.121 284.655 650.121 284.655Z" fill="#F47A89"/>
<path d="M698.856 289.063C698.856 289.063 665.672 287.981 663.676 289.063C661.597 290.144 660.1 331.062 660.682 331.395C661.265 331.727 669.165 337.133 668.666 335.303C668.167 333.474 668.583 294.136 670.08 293.387C671.577 292.639 705.343 291.225 705.343 291.225L698.856 289.063Z" fill="#F6C266"/>
<path d="M667.003 284.904C667.003 284.904 700.769 294.552 701.268 297.13C701.767 299.708 698.524 340.21 699.439 340.044C700.353 339.878 704.844 338.88 704.844 338.88C704.844 337.466 706.924 297.629 706.175 296.298C705.427 294.968 670.663 284.322 670.164 284.572C669.665 284.821 667.003 284.904 667.003 284.904Z" fill="#FFD277"/>
<path d="M769.05 238.497C769.05 238.497 771.711 226.854 778.863 229.265C782.606 230.513 792.586 225.772 793.833 242.156C795.081 258.54 787.346 307.442 774.622 316.591C761.897 325.739 721.062 341.042 721.062 341.042L717.403 333.89C717.403 333.89 760.567 302.452 763.893 292.639C767.22 282.825 769.05 238.497 769.05 238.497Z" fill="#FFD277"/>
<path d="M685.051 334.14C686.714 334.473 694.532 334.389 696.943 334.14C699.355 333.89 702.765 334.057 702.765 334.057C702.765 334.057 692.619 331.063 695.862 330.231C699.106 329.399 713.66 330.314 717.403 333.89C721.145 337.383 721.062 341.043 721.062 341.043C721.062 341.043 706.508 352.104 696.278 348.029C686.049 343.954 680.061 333.059 685.051 334.14Z" fill="#F2B78F"/>
<path d="M648.041 310.104C648.041 310.104 653.53 311.351 653.863 312.349C654.195 313.347 658.603 321.83 654.944 321.83C651.285 321.83 649.122 325.822 648.956 322.745C648.789 319.668 648.041 310.104 648.041 310.104Z" fill="#F2B78F"/>
<path d="M889.06 578.151C889.06 578.151 882.739 574.908 873.424 576.737C865.856 578.317 854.379 585.137 848.973 588.547L852.549 594.202C862.28 594.036 892.137 593.371 893.467 590.21C895.131 586.634 889.06 578.151 889.06 578.151Z" fill="#4C1212"/>
<path d="M866.604 460.553C866.604 460.553 870.014 574.325 873.507 576.737C876.917 579.232 889.392 582.392 889.392 576.737C889.392 571.082 897.127 451.903 897.127 451.903L866.604 460.553Z" fill="#F4B990"/>
<path d="M919.083 579.315C919.083 579.315 924.655 587.549 922.825 591.541C920.996 595.533 893.218 619.235 891.055 614.328C888.893 609.422 899.954 580.23 904.445 576.82C908.936 573.41 919.083 579.315 919.083 579.315Z" fill="#4C1212"/>
<path d="M897.126 451.987C897.126 451.987 904.029 574.741 904.445 576.82C904.861 578.9 916.837 583.141 919.083 579.315C921.411 575.407 926.401 469.119 932.389 454.565C938.377 439.927 897.126 451.987 897.126 451.987Z" fill="#FFC197"/>
<path d="M879.994 228.268C879.994 228.268 868.434 231.345 860.034 239.163C851.634 246.981 842.403 269.27 830.011 268.438C817.619 267.523 805.227 237.916 800.486 230.347C795.247 222.031 783.77 218.288 780.11 222.28C776.451 226.272 768.883 236.252 772.792 235.587C776.701 235.005 783.853 230.264 787.845 230.264C791.837 230.264 793.916 234.007 795.995 238.83C798.074 243.654 810.633 287.649 828.68 287.4C846.727 287.15 875.004 253.967 875.004 253.967L880.659 229.516L879.994 228.268Z" fill="#FFC197"/>
<path d="M899.539 222.196C899.539 222.196 884.236 225.689 879.995 228.267C875.753 230.846 860.284 263.697 861.947 271.597C863.611 279.498 865.339 283.177 868 288.5C870.662 293.739 873.009 294.85 871.678 303C870.347 311.067 861.365 368.404 860.118 376.887C858.87 385.287 848.99 553.337 851.402 555C853.814 556.58 945.41 557.416 949.402 557C949.402 553.5 946.528 389.778 936.798 362.333C927.067 334.888 924.655 327.985 925.903 315.842C927.15 303.783 944.283 241.325 933.138 234.755C916.671 224.941 899.539 222.196 899.539 222.196Z" fill="url(#paint11_linear)"/>
<path d="M848.474 161.484C848.474 161.484 836.248 158.324 838.078 145.35C839.824 132.376 846.394 111.75 870.929 109.837C902.2 107.426 911.098 117.738 916.92 126.554C922.409 134.954 920.33 149.259 920.33 149.259C920.33 149.259 933.304 163.064 935.882 168.72C940.955 179.698 937.046 192.755 932.971 200.573C928.896 208.39 915.673 213.963 907.772 212.965C899.871 211.967 893.633 212.632 888.311 213.048C882.988 213.547 872.675 197.163 872.01 194.668C871.345 192.173 848.474 161.484 848.474 161.484Z" fill="url(#paint12_linear)"/>
<path d="M891.721 201.654C891.721 201.654 894.548 217.789 893.134 223.194C893.134 223.194 887.895 228.101 887.146 230.014C886.398 231.927 883.321 248.311 888.976 247.063C894.631 245.899 905.776 233.008 907.19 229.266C908.604 225.523 905.61 222.695 905.61 222.695L900.952 197.163L891.721 201.654Z" fill="#F4B990"/>
<path d="M877.416 141.275C874.006 141.524 870.763 142.273 867.769 143.603C867.769 143.603 870.098 141.441 861.947 142.356C853.797 143.271 843.817 146.182 843.9 152.17L848.474 179.033C848.64 180.114 848.807 181.112 848.973 182.11C852.383 197.912 866.189 209.305 881.907 208.224C899.206 207.06 912.263 191.092 911.016 172.629C909.768 154.083 894.715 140.11 877.416 141.275Z" fill="#FFC197"/>
<path d="M860.034 176.288C860.034 176.288 860.284 186.684 861.864 186.684C863.444 186.684 866.022 186.684 865.44 185.436C864.858 184.106 860.034 176.288 860.034 176.288Z" fill="#E29865"/>
<path d="M867.602 169.219C867.602 169.219 874.422 171.132 876.418 166.89C876.418 166.807 874.505 173.793 867.602 169.219Z" fill="#E29865"/>
<path d="M848.474 175.29C848.474 175.29 855.376 176.787 857.123 172.546C857.206 172.546 855.626 179.532 848.474 175.29Z" fill="#E29865"/>
<path d="M872.842 191.674C872.842 191.674 879.994 189.428 880.576 187.682C880.576 187.682 878.996 193.42 876.751 193.42C874.505 193.42 872.842 191.674 872.842 191.674Z" fill="#E29865"/>
<path d="M858.371 136.95C858.371 136.95 854.795 164.561 845.729 162.731C836.664 160.902 837.413 146.763 838.743 141.191C840.074 135.619 858.371 136.95 858.371 136.95Z" fill="#FA9F4D"/>
<path d="M855.792 141.192C855.792 141.192 889.641 174.792 908.52 165.81C927.399 156.911 913.427 151.671 913.427 151.671L872.01 117.822L855.792 141.192Z" fill="#FA9F4D"/>
<path d="M913.344 177.785C916.789 177.785 919.581 174.583 919.581 170.633C919.581 166.683 916.789 163.48 913.344 163.48C909.899 163.48 907.106 166.683 907.106 170.633C907.106 174.583 909.899 177.785 913.344 177.785Z" fill="#FFC197"/>
<path d="M923.843 245.78C923.843 245.78 928.584 234.136 933.075 235.051C937.566 235.966 943.637 242.703 942.057 252.516C940.477 262.413 939.146 311.315 920.766 324.289C902.386 337.263 873.195 341.255 867.789 341.422C862.383 341.588 861.052 342.669 857.725 342.669C854.399 342.669 844.252 336.182 844.003 332.357C843.753 328.531 859.472 328.78 861.718 329.03C863.963 329.279 862.799 327.2 861.302 325.454C859.721 323.624 862.632 323.624 862.632 323.624C862.632 323.624 865.294 328.78 868.205 329.446C871.115 330.111 870.866 331.442 870.866 331.442C870.866 331.442 913.697 317.553 916.857 302.084C920.101 286.615 922.513 248.691 923.843 245.78Z" fill="#FFC197"/>
<defs>
<linearGradient id="paint0_linear" x1="336.71" y1="39.5159" x2="478.715" y2="690.55" gradientUnits="userSpaceOnUse">
<stop stop-color="#377093"/>
<stop offset="0.0302786" stop-color="#367097"/>
<stop offset="1" stop-color="#6EBACC"/>
</linearGradient>
<linearGradient id="paint1_linear" x1="931.152" y1="331.975" x2="996.669" y2="540.622" gradientUnits="userSpaceOnUse">
<stop offset="0.177" stop-color="#2CCD90"/>
<stop offset="1" stop-color="#005E63"/>
</linearGradient>
<linearGradient id="paint2_linear" x1="906.739" y1="382.437" x2="986.917" y2="505.605" gradientUnits="userSpaceOnUse">
<stop stop-color="#D85F4A"/>
<stop offset="1" stop-color="#4F1D25"/>
</linearGradient>
<linearGradient id="paint3_linear" x1="868.871" y1="486.123" x2="1058.16" y2="509.448" gradientUnits="userSpaceOnUse">
<stop offset="0.2288" stop-color="#4888AA"/>
<stop offset="1" stop-color="#A5BAC2"/>
</linearGradient>
<linearGradient id="paint4_linear" x1="774.369" y1="515.655" x2="868.686" y2="515.655" gradientUnits="userSpaceOnUse">
<stop offset="0.2288" stop-color="#4888AA"/>
<stop offset="1" stop-color="#A5BAC2"/>
</linearGradient>
<linearGradient id="paint5_linear" x1="723.847" y1="571.326" x2="617.64" y2="399.711" gradientUnits="userSpaceOnUse">
<stop offset="0.2288" stop-color="#4888AA"/>
<stop offset="1" stop-color="#A5BAC2"/>
</linearGradient>
<linearGradient id="paint6_linear" x1="431.894" y1="495.263" x2="431.894" y2="337.639" gradientUnits="userSpaceOnUse">
<stop stop-color="#ED588D"/>
<stop offset="1" stop-color="#F58279"/>
</linearGradient>
<linearGradient id="paint7_linear" x1="462.85" y1="250.279" x2="396.928" y2="328.842" gradientUnits="userSpaceOnUse">
<stop stop-color="#410F0B"/>
<stop offset="0.6172" stop-color="#410F0B"/>
<stop offset="0.8726" stop-color="#47140B"/>
<stop offset="1" stop-color="#4D190B"/>
</linearGradient>
<linearGradient id="paint8_linear" x1="690.902" y1="431.276" x2="779.525" y2="463.532" gradientUnits="userSpaceOnUse">
<stop offset="0.0761177" stop-color="#3E80A6"/>
<stop offset="1" stop-color="#34586F"/>
</linearGradient>
<linearGradient id="paint9_linear" x1="780.056" y1="332.268" x2="780.056" y2="576.809" gradientUnits="userSpaceOnUse">
<stop offset="0.0761177" stop-color="#3E80A6"/>
<stop offset="1" stop-color="#34586F"/>
</linearGradient>
<linearGradient id="paint10_linear" x1="703.65" y1="154.642" x2="787.424" y2="154.642" gradientUnits="userSpaceOnUse">
<stop stop-color="#410F0B"/>
<stop offset="0.6172" stop-color="#410F0B"/>
<stop offset="0.8726" stop-color="#47140B"/>
<stop offset="1" stop-color="#4D190B"/>
</linearGradient>
<linearGradient id="paint11_linear" x1="883.364" y1="314.415" x2="922.747" y2="476.744" gradientUnits="userSpaceOnUse">
<stop stop-color="#ED588D"/>
<stop offset="1" stop-color="#F58279"/>
</linearGradient>
<linearGradient id="paint12_linear" x1="883.706" y1="145.195" x2="901.081" y2="216.81" gradientUnits="userSpaceOnUse">
<stop offset="0.0761177" stop-color="#FA9F4D"/>
<stop offset="1" stop-color="#FA894D"/>
</linearGradient>
</defs>
</svg>
