<svg width="98" height="79" viewBox="0 0 98 79" fill="none" xmlns="http://www.w3.org/2000/svg">
<circle cx="42.5" cy="34.5" r="34.5" fill="#5194A6"/>
<path fill-rule="evenodd" clip-rule="evenodd" d="M57.9823 19.7429C57.4398 19.8464 57.0839 20.37 57.1873 20.9125L60.5588 38.594C60.6622 39.1365 61.1859 39.4924 61.7284 39.389L88.2505 34.3317C88.7931 34.2283 89.149 33.7047 89.0455 33.1621L88.1168 28.2914L95.2047 30.7602C95.9316 31.0135 96.6601 30.3848 96.5159 29.6286L93.9205 16.0174C93.7763 15.2612 92.8676 14.9447 92.2849 15.4477L86.6028 20.3515L85.6741 15.4807C85.5706 14.9382 85.047 14.5823 84.5045 14.6857L57.9823 19.7429Z" fill="#3D6A9E"/>
<rect x="49.5537" y="33.0837" width="39" height="29" rx="1" transform="rotate(9.14986 49.5537 33.0837)" fill="#BC7646"/>
<rect x="51.2104" y="35.3763" width="35" height="25" rx="1" transform="rotate(9.14986 51.2104 35.3763)" fill="#1B3913"/>
<path d="M57.0023 49.7911L56.8199 50.9235L52.5464 50.2352C52.6616 49.8146 52.8657 49.432 53.1586 49.0874C53.4519 48.74 53.9909 48.3046 54.7755 47.7811C55.4076 47.3576 55.8004 47.0648 55.9542 46.9026C56.1624 46.678 56.2864 46.4428 56.326 46.1969C56.3698 45.925 56.3296 45.7049 56.2053 45.5365C56.0845 45.3657 55.8953 45.2596 55.6379 45.2181C55.3834 45.1771 55.1686 45.2212 54.9935 45.3502C54.8184 45.4793 54.6906 45.7199 54.6102 46.0719L53.4149 45.7548C53.5953 45.0954 53.8999 44.6503 54.3288 44.4197C54.7576 44.1891 55.2584 44.1199 55.8311 44.2121C56.4588 44.3132 56.9247 44.5618 57.2288 44.958C57.533 45.3542 57.6445 45.8039 57.5635 46.3072C57.5173 46.5936 57.4212 46.8585 57.2752 47.1021C57.1325 47.3432 56.927 47.5875 56.6586 47.8351C56.4808 47.9994 56.1711 48.2269 55.7296 48.5178C55.2881 48.8088 55.0059 49.0037 54.8832 49.1026C54.7633 49.202 54.6627 49.3015 54.5814 49.4012L57.0023 49.7911Z" fill="white"/>
<path d="M59.72 50.4514L59.9862 48.7984L58.3202 48.53L58.504 47.389L60.17 47.6573L60.4362 46.0043L61.5469 46.1832L61.2807 47.8362L62.951 48.1053L62.7673 49.2463L61.0969 48.9773L60.8306 50.6303L59.72 50.4514Z" fill="white"/>
<path d="M66.4902 52.4811L65.271 52.2847L66.0111 47.6901C65.4985 48.0349 64.924 48.2583 64.2873 48.3606L64.4655 47.2542C64.8004 47.2013 65.1777 47.0603 65.5975 46.8312C66.0176 46.5991 66.3283 46.3005 66.5296 45.9353L67.5188 46.0946L66.4902 52.4811Z" fill="white"/>
<path d="M69.1448 49.2765L69.3251 48.1571L73.7722 48.8734L73.5919 49.9928L69.1448 49.2765ZM68.8346 51.2028L69.0156 50.0791L73.4626 50.7954L73.2817 51.9191L68.8346 51.2028Z" fill="white"/>
<path d="M74.2673 52.0022L75.4705 52.0491C75.4596 52.356 75.5238 52.6022 75.663 52.7878C75.8023 52.9735 75.9891 53.0852 76.2233 53.1229C76.475 53.1634 76.7015 53.102 76.9029 52.9386C77.1072 52.7756 77.2354 52.5322 77.2876 52.2082C77.337 51.9016 77.2937 51.6454 77.1577 51.4395C77.0217 51.2336 76.8351 51.1116 76.598 51.0734C76.4418 51.0482 76.2503 51.0485 76.0236 51.0743L76.3181 50.1025C76.6465 50.1643 76.9095 50.1339 77.1073 50.0115C77.3055 49.8861 77.4249 49.6976 77.4654 49.446C77.4999 49.232 77.4638 49.0511 77.357 48.9033C77.2502 48.7555 77.0913 48.6646 76.8801 48.6306C76.6719 48.5971 76.4823 48.6407 76.3115 48.7616C76.1407 48.8825 76.0171 49.0792 75.9405 49.3517L74.8476 48.9798C74.9876 48.6077 75.1541 48.32 75.3471 48.1166C75.5435 47.9109 75.7924 47.7655 76.094 47.6805C76.3988 47.5931 76.7263 47.5776 77.0763 47.634C77.675 47.7304 78.1244 47.9987 78.4244 48.4387C78.672 48.7991 78.7642 49.1759 78.7008 49.5693C78.6109 50.1275 78.234 50.5238 77.5701 50.7581C77.922 50.8949 78.1845 51.1167 78.3576 51.4236C78.5337 51.7309 78.5907 52.0769 78.5287 52.4616C78.4388 53.0198 78.1583 53.4627 77.6871 53.7904C77.2159 54.1181 76.6766 54.233 76.0692 54.1352C75.4936 54.0425 75.0429 53.8007 74.7171 53.41C74.3918 53.0163 74.2418 52.5471 74.2673 52.0022Z" fill="white"/>
<path d="M41 31C36.3333 27 24.9 20.3 16.5 25.5C6 32 5.5 49 6.5 59.5C7.5 70 7 74 4 74C2.87381 74 1.99716 73.7798 1.34941 73.4944C0.843369 73.1335 0.387672 72.7965 0 72.5C0.176918 72.7654 0.616749 73.1716 1.34941 73.4944C4.54179 75.7714 9.73784 79 12.5 79C16.5 79 31 75.5 36 74C40 72.8 41 66.8333 41 64V33.5V31Z" fill="#CA0D46"/>
<path d="M47.5478 45.2886C47.0056 41.0385 44.1865 37.4469 40.3372 36.1898C35.4036 34.5736 29.2772 34.6335 25.3195 36.1898C19.2474 38.5244 18.7052 51.5141 18.7052 51.5141C18.4341 52.412 18.2173 53.3698 18.1088 54.3874C17.133 62.8876 22.8256 70.7293 30.9037 71.8667C38.277 72.8843 45.0539 67.9757 46.8972 60.6129C48.4153 55.5248 48.09 49.4789 47.5478 45.2886Z" fill="#FFC197"/>
<path d="M35.974 34.8701C36.5456 36.1321 43.7229 50.4564 49.5663 48.8788C55.4098 47.2382 51.4083 37.7097 47.2163 33.2925C43.0242 28.8754 33.2428 28.4336 35.974 34.8701Z" fill="#CA0D46"/>
<path d="M35.5 49C35.5 49 36.9706 52.4548 39.5 52.8867C39.5 52.8867 36.0294 54.0383 35.5 49Z" fill="#BC7646"/>
<path d="M45.5 54C45.5 54 47.3248 54.9476 48.4979 54.4459C48.5631 54.4459 47.0641 55.951 45.5 54Z" fill="#BC7646"/>
<path d="M44.9753 55C44.9753 55 45.8205 59.7032 45.3654 60.431C44.9103 61.1589 44.4552 61.1589 43.6751 60.599C42.8949 60.0391 44.9753 55 44.9753 55Z" fill="#BC7646"/>
<path d="M14 53C18.4 53.4 31.1667 41.1667 37 35C26.2 29.4 18.1667 34.6667 15.5 38C13.1667 42.8333 9.6 52.6 14 53Z" fill="#CA0D46"/>
<path d="M14.8813 60.9635C12.4716 60.6578 10.7132 58.5789 11.0389 56.2554L11.104 55.644C11.4296 53.3817 13.6439 51.7308 16.1187 52.0365C18.5284 52.3422 20.2868 54.4211 19.9611 56.7446L19.896 57.356C19.5704 59.6183 17.291 61.2692 14.8813 60.9635Z" fill="#FFC197"/>
<circle r="4.5" transform="matrix(-1 0 0 1 37.5 51)" stroke="#5194A6"/>
<path d="M46 55C46 56.3057 46.3186 57.4635 46.8074 58.2783C47.3023 59.103 47.9162 59.5 48.5 59.5C49.0838 59.5 49.6977 59.103 50.1926 58.2783C50.6814 57.4635 51 56.3057 51 55C51 53.6943 50.6814 52.5365 50.1926 51.7217C49.6977 50.897 49.0838 50.5 48.5 50.5C47.9162 50.5 47.3023 50.897 46.8074 51.7217C46.3186 52.5365 46 53.6943 46 55Z" stroke="#5194A6"/>
<path d="M46 54.5C45.5 53.8333 44 52.5 42 52.5" stroke="#5194A6"/>
<path d="M38 62.5C38.1667 63 38.9 64 40.5 64" stroke="#BC7646"/>
</svg>
