<svg width="102" height="107" viewBox="0 0 102 107" fill="none" xmlns="http://www.w3.org/2000/svg">
<path d="M20.5102 3.71654C20.5102 3.71654 89.6857 -4.64568 95.1275 3.71654C100.569 12.0788 104.166 49.098 98.4479 55.5811C92.7294 62.0642 96.8799 62.346 93.4672 68.0775C90.0546 73.8089 80.2778 77.943 73.0835 68.0775C65.7971 58.2119 41.2628 63.0977 27.7044 60.9367C14.2383 58.7757 -4.66967 58.2119 1.04884 30.3065C6.76734 2.40113 14.4227 4.37425 20.5102 3.71654Z" fill="#F1E9D2"/>
<path d="M95.2189 82.9236C96.9713 84.8027 96.6024 89.2187 95.2189 91.4737C93.8354 93.8226 85.2576 94.6683 86.0877 88.9369C87.1023 83.1115 92.0829 79.4471 95.2189 82.9236Z" fill="#F1E9D2"/>
<path d="M83.3207 99.0841C81.3838 101.433 81.8449 103.688 83.3207 104.44C84.7964 105.191 86.3644 108.104 88.3936 104.44C90.4227 100.775 89.9616 97.4868 87.379 97.017C84.7965 96.5472 83.3207 99.0841 83.3207 99.0841Z" fill="#F1E9D2"/>
<path d="M35.2676 32.3752C35.3598 35.7577 36.9278 44.2139 37.3889 44.8716C37.8501 45.5293 61.7387 49.0057 67.1805 42.8045C67.1805 42.8045 69.4863 31.9055 67.1805 29.8384C64.8747 27.7713 35.2676 32.3752 35.2676 32.3752Z" fill="#74BEC9"/>
<path d="M75.5725 23.3555C75.5725 24.483 76.2182 31.4358 75.5725 33.9727C74.9269 36.5095 76.6793 36.4156 76.6793 36.4156V23.3555H75.5725Z" fill="#410F0B"/>
<path d="M25.5822 28.2398C26.7812 27.676 46.9804 18.2803 50.1164 18.2803C53.2524 18.2803 79.908 18.2803 79.908 21.2869C79.908 24.2936 63.1214 36.3201 57.0339 37.4476C50.762 38.6691 12.485 34.1591 25.5822 28.2398Z" fill="#94CACE"/>
<path d="M76.0339 42.335C76.0339 42.335 73.4513 39.7042 73.8203 38.2948C74.1892 36.7915 75.3883 34.3486 76.0339 34.3486C76.6795 34.3486 77.6941 35.2882 77.6941 37.2613C77.6941 39.2344 76.0339 42.335 76.0339 42.335Z" fill="url(#paint0_linear)"/>
<defs>
<linearGradient id="paint0_linear" x1="73.7597" y1="38.3315" x2="77.7218" y2="38.3315" gradientUnits="userSpaceOnUse">
<stop stop-color="#ED588D"/>
<stop offset="1" stop-color="#F58279"/>
</linearGradient>
</defs>
</svg>
