<svg width="65" height="65" viewBox="0 0 65 65" fill="none" xmlns="http://www.w3.org/2000/svg">
<circle cx="32.5" cy="32.5" r="32.5" fill="#FFCD6A"/>
<path d="M37.6741 39.4821C37.6741 38.5 37.3839 37.9866 36.8036 37.9866C36.4688 37.9866 36.1339 38.1429 35.7991 38.4777V45.1964C36.1339 45.5312 36.4688 45.6875 36.8036 45.6875C37.3839 45.6875 37.6741 45.1964 37.6741 44.192V39.4821ZM45.2188 39.5045C45.2188 38.5 44.8839 37.9866 44.2143 37.9866C43.5446 37.9866 43.2098 38.5 43.2098 39.5045V40.5312H45.2188V39.5045ZM23.6563 34.6384V47.3393H21.4241V34.6384H19.0804V32.5402H26.0446V34.6384H23.6563ZM30.0848 47.3393V46.1339C29.2812 47.0491 28.5223 47.4955 27.808 47.4955C27.1607 47.4955 26.692 47.2277 26.5134 46.6696C26.4018 46.3348 26.3348 45.8214 26.3348 45.0402V36.3125H28.3214V44.4375C28.3214 44.9062 28.3214 45.1518 28.3438 45.2188C28.3884 45.5312 28.5446 45.6875 28.8125 45.6875C29.2143 45.6875 29.6384 45.375 30.0848 44.75V36.3125H32.0714V47.3393H30.0848ZM39.6607 44.0357C39.6607 45.0625 39.6161 45.7991 39.4598 46.2679C39.2143 47.0714 38.6562 47.4955 37.875 47.4955C37.1607 47.4955 36.4688 47.0938 35.7991 46.2679V47.3393H33.8125V32.5402H35.7991V37.3839C36.4464 36.5804 37.1384 36.1786 37.875 36.1786C38.6562 36.1786 39.2143 36.6027 39.4598 37.4286C39.6161 37.875 39.6607 38.6116 39.6607 39.6384V44.0357ZM47.2054 43.8125C47.2054 44.4598 47.2054 44.9062 47.1607 45.1071C47.1161 45.5536 46.9375 45.9554 46.692 46.3125C46.1563 47.0938 45.3304 47.4955 44.2813 47.4955C43.2321 47.4955 42.4509 47.1161 41.8705 46.3571C41.4464 45.8214 41.2232 44.9509 41.2232 43.7679V39.9062C41.2232 38.7232 41.4241 37.875 41.8482 37.317C42.4286 36.558 43.2098 36.1786 44.2366 36.1786C45.2411 36.1786 46.0223 36.558 46.6027 37.317C47.0045 37.875 47.2054 38.7232 47.2054 39.9062V42.2054H43.2098V44.1473C43.2098 45.1741 43.5446 45.6875 44.2366 45.6875C44.7277 45.6875 45.0179 45.4196 45.1295 44.8839C45.1518 44.7723 45.1741 44.3259 45.1741 43.5223H47.2054V43.8125ZM33.6339 23.433C33.6339 24.4598 33.3438 24.9955 32.6741 24.9955C32.0268 24.9955 31.7143 24.4598 31.7143 23.433V18.7455C31.7143 17.7187 32.0268 17.2054 32.6741 17.2054C33.3438 17.2054 33.6339 17.7187 33.6339 18.7455V23.433ZM49.683 40.1964C49.683 37.6071 49.683 34.8839 49.1027 32.3839C48.7009 30.6205 47.25 29.3259 45.5313 29.125C41.4241 28.6786 37.2723 28.6786 33.1429 28.6786C29.0134 28.6786 24.8616 28.6786 20.7768 29.125C19.0357 29.3259 17.6071 30.6205 17.183 32.3839C16.625 34.8839 16.6027 37.6071 16.6027 40.1964C16.6027 42.7634 16.6027 45.5089 17.183 48.0089C17.5848 49.7723 19.0357 51.067 20.7545 51.2455C24.8616 51.7143 29.0134 51.7143 33.1429 51.7143C37.2723 51.7143 41.4241 51.7143 45.5313 51.2455C47.25 51.067 48.6786 49.7723 49.1027 48.0089C49.6607 45.5089 49.683 42.7634 49.683 40.1964ZM27.4062 11.7143L25.8884 17.5848L24.3036 11.7143H21.9375C22.4062 13.0982 22.8973 14.5045 23.3884 15.8884C24.1027 17.9643 24.5491 19.5268 24.75 20.6205V26.6696H26.9821V20.6205L29.683 11.7143H27.4062ZM35.6652 19.1473C35.6652 17.9643 35.4643 17.0937 35.0402 16.5357C34.4821 15.7768 33.7009 15.3973 32.6741 15.3973C31.6696 15.3973 30.8884 15.7768 30.3304 16.5357C29.9063 17.0937 29.7054 17.9643 29.7054 19.1473V23.0536C29.7054 24.2366 29.9063 25.1071 30.3304 25.6875C30.8884 26.4464 31.6696 26.8259 32.6741 26.8259C33.7009 26.8259 34.4821 26.4464 35.0402 25.6875C35.4643 25.1295 35.6652 24.2366 35.6652 23.0536V19.1473ZM43.1429 15.5312H41.1116V24.0357C40.6652 24.683 40.2411 24.9955 39.8393 24.9955C39.5714 24.9955 39.4152 24.817 39.3705 24.5045C39.3482 24.4598 39.3482 24.192 39.3482 23.7232V15.5312H37.317V24.3259C37.317 25.1295 37.3839 25.6652 37.4955 26C37.6964 26.558 38.1652 26.8259 38.8125 26.8259C39.5491 26.8259 40.308 26.3795 41.1116 25.442V26.6696H43.1429V15.5312Z" fill="#EBF4FF"/>
</svg>
